<svg width="22" height="24" viewBox="0 0 22 24" fill="none" xmlns="http://www.w3.org/2000/svg">
<path d="M10.7887 23.9998C7.45722 23.9998 4.10733 23.9998 0.775844 23.9998C0.168447 23.9998 -0.015613 23.8341 0.00279294 23.2083C0.0211989 22.1408 -0.034019 21.0548 0.0396049 19.9873C0.278883 16.9503 2.45079 14.2446 5.35893 13.3243C5.76387 13.1955 6.1688 13.1218 6.57373 13.0482C6.84982 12.993 7.05228 13.0666 7.25475 13.2507C8.28549 14.1894 9.48187 14.6495 10.8807 14.6311C12.1507 14.6127 13.2735 14.1894 14.2122 13.3427C14.5251 13.0666 14.8196 12.993 15.2245 13.0482C18.4088 13.6004 21.0224 16.2693 21.501 19.4535C21.7034 20.7603 21.593 22.0855 21.6114 23.3924C21.6114 23.7973 21.3721 23.963 20.8936 23.963C17.5069 23.9998 14.1386 23.9998 10.7887 23.9998ZM10.7519 22.9322C13.5312 22.9322 16.3105 22.9322 19.0898 22.9322C19.4763 22.9322 19.8813 22.9322 20.2678 22.9322C20.4334 22.9322 20.5071 22.8954 20.5071 22.7113C20.4702 21.6806 20.5623 20.6499 20.415 19.6191C20.0469 17.0055 17.9302 14.7416 15.335 14.171C15.0773 14.1158 14.8932 14.1526 14.6908 14.3182C13.5864 15.2017 12.3164 15.6619 10.8991 15.6803C9.33463 15.6987 7.97258 15.2201 6.77619 14.2262C6.68416 14.1526 6.61054 14.0789 6.46329 14.0973C3.88646 14.5575 1.5489 16.9319 1.16237 19.5455C1.01512 20.5578 1.08875 21.5886 1.05193 22.6009C1.03353 22.877 1.12556 22.9506 1.40165 22.9506C4.51226 22.9322 7.64128 22.9322 10.7519 22.9322Z" fill="black" fill-opacity="0.5"/>
<path d="M16.7523 5.75967C16.8627 8.9255 14.4883 11.6864 11.2489 11.9257C7.77014 12.1834 5.1749 9.56971 4.862 6.64316C4.49388 3.23805 6.99709 0.256284 10.347 0.0170059C13.8441 -0.240678 16.6418 2.465 16.7523 5.75967ZM5.89273 5.98054C5.89273 8.70463 8.08305 10.8949 10.8071 10.8949C13.4944 10.8949 15.6847 8.70463 15.7031 5.99895C15.7031 3.27486 13.5128 1.06615 10.8071 1.06615C8.08305 1.04774 5.87433 3.25646 5.89273 5.98054Z" fill="black" fill-opacity="0.5"/>
</svg>
