<svg width="22" height="24" viewBox="0 0 22 24" fill="none" xmlns="http://www.w3.org/2000/svg">
<path d="M10.7979 23.9912C7.45862 23.9912 4.11937 23.9912 0.780116 23.9912C0.172178 23.9912 -0.00403598 23.8238 0.00477471 23.2071C0.0223961 22.1322 -0.0392788 21.0572 0.0488282 19.9823C0.286717 16.9603 2.46296 14.2378 5.3793 13.3215C5.77578 13.1981 6.18107 13.11 6.59517 13.0395C6.87712 12.9867 7.07976 13.0659 7.28241 13.251C8.30445 14.1937 9.51151 14.6607 10.9036 14.6343C12.1635 14.6166 13.2913 14.1937 14.2252 13.3479C14.5424 13.0659 14.842 12.9955 15.2385 13.0659C18.4279 13.621 21.0271 16.273 21.5029 19.4801C21.6967 20.7929 21.591 22.1145 21.6086 23.4273C21.6174 23.8238 21.3707 24 20.9214 24C18.8773 24 16.8332 24 14.7891 24C13.4587 23.9912 12.1283 23.9912 10.7979 23.9912ZM10.7979 22.9339C13.0182 22.9339 15.2385 22.9339 17.4588 22.9339C18.3927 22.9339 19.3266 22.9339 20.2606 22.9339C20.4103 22.9339 20.5425 22.9604 20.5337 22.7313C20.4985 21.7004 20.5954 20.6696 20.4456 19.6387C20.0491 16.9779 17.9257 14.7224 15.3001 14.1673C15.0711 14.1144 14.9213 14.1585 14.7451 14.3083C13.679 15.1805 12.4455 15.6475 11.0622 15.7003C9.44984 15.762 8.02251 15.2686 6.7802 14.2378C6.69209 14.1673 6.62161 14.1056 6.48945 14.132C3.68764 14.6871 1.64356 16.9162 1.18541 19.533C1.00919 20.5374 1.10611 21.5506 1.07087 22.5551C1.06206 22.8458 1.13254 22.9427 1.44092 22.9427C4.5599 22.9251 7.67889 22.9339 10.7979 22.9339Z" fill="#16A7E1"/>
<path d="M16.7715 6.17597C16.6658 9.47117 13.8464 12.2025 10.3221 11.9205C7.07094 11.6562 4.70967 8.89847 4.84183 5.73543C4.9828 2.36975 7.84628 -0.238219 11.2648 0.0172913C14.5072 0.25518 16.8772 3.02174 16.7715 6.17597ZM5.89912 5.96451C5.8903 8.66058 8.08417 10.8809 10.7626 10.8809C13.4851 10.8897 15.679 8.71345 15.6966 5.99094C15.7142 3.28606 13.5292 1.06576 10.8507 1.05695C8.1106 1.04814 5.90793 3.23319 5.89912 5.96451Z" fill="#16A7E1"/>
<path d="M10.7979 22.9341C7.67887 22.9341 4.55989 22.9253 1.4409 22.9429C1.12372 22.9429 1.06204 22.8548 1.07085 22.5552C1.1061 21.5508 1.00918 20.5376 1.18539 19.5332C1.64355 16.9164 3.68763 14.6873 6.48943 14.1322C6.62159 14.1058 6.69208 14.1675 6.78018 14.238C8.02249 15.2688 9.44982 15.7622 11.0622 15.7005C12.4455 15.6477 13.6701 15.1807 14.7451 14.3084C14.9213 14.1675 15.071 14.1234 15.3001 14.1675C17.9345 14.7225 20.0579 16.9781 20.4456 19.6389C20.5954 20.6698 20.5072 21.7006 20.5337 22.7315C20.5425 22.9605 20.4015 22.9341 20.2605 22.9341C19.3266 22.9341 18.3927 22.9341 17.4587 22.9341C15.2385 22.9341 13.0182 22.9341 10.7979 22.9341Z" fill="#16A7E1"/>
<path d="M5.89911 5.96471C5.90792 3.2334 8.11059 1.04834 10.8507 1.05716C13.5292 1.06597 15.7142 3.29507 15.6966 5.99114C15.679 8.71365 13.4851 10.8811 10.7626 10.8811C8.09297 10.8723 5.89911 8.66078 5.89911 5.96471Z" fill="#16A7E1"/>
</svg>
