<svg width="22" height="22" viewBox="0 0 22 22" fill="none" xmlns="http://www.w3.org/2000/svg">
<path d="M0 10.7384C0.0436264 10.7258 0.0378861 10.6845 0.0499408 10.6529C0.234779 10.1747 0.603308 9.92272 1.12108 9.92214C3.97689 9.92157 6.83213 9.91985 9.68794 9.92673C9.88655 9.92731 9.92731 9.87335 9.92673 9.68334C9.92042 6.9211 9.93592 4.15829 9.91296 1.39605C9.90722 0.730169 10.0921 0.24626 10.7384 0C10.8957 0 11.0536 0 11.2108 0C11.6253 0.13662 11.933 0.379435 12.0449 0.82431C12.0736 0.938542 12.069 1.05163 12.069 1.16528C12.0696 4.00674 12.0725 6.84877 12.0644 9.69023C12.0639 9.89516 12.127 9.92616 12.3113 9.92616C15.1745 9.92042 18.0378 9.92157 20.9005 9.92272C21.4613 9.92272 21.9257 10.3205 21.9877 10.8481C22.0543 11.4169 21.7105 11.9146 21.1508 12.0466C21.048 12.0707 20.9378 12.069 20.8316 12.069C17.9902 12.0702 15.1481 12.0719 12.3067 12.065C12.1121 12.0644 12.065 12.1126 12.0656 12.3067C12.0725 15.1768 12.0707 18.047 12.0696 20.9177C12.0696 21.4458 11.7039 21.8838 11.1913 21.982C10.6908 22.0778 10.1718 21.7828 9.98701 21.2983C9.93247 21.1554 9.92099 21.0084 9.92157 20.8569C9.92329 18.008 9.92099 15.159 9.92673 12.3101C9.92731 12.1241 9.89344 12.0639 9.69023 12.0644C6.91996 12.0725 4.14968 12.057 1.37997 12.0794C0.71754 12.0851 0.245112 11.8888 0 11.2539C0 11.0823 0 10.9106 0 10.7384Z" fill="#16A7E1"/>
</svg>
