<svg width="14" height="17" viewBox="0 0 14 17" fill="none" xmlns="http://www.w3.org/2000/svg">
<path d="M7.42651 13.123C6.89345 13.4804 6.51789 13.4804 5.99694 13.123C5.86973 13.3895 5.74858 13.65 5.62137 13.9105C5.18523 14.8433 4.74909 15.7762 4.31295 16.709C4.24632 16.8605 4.16757 16.9937 3.97979 16.9998C3.78595 17.0058 3.7072 16.8726 3.6224 16.7333C3.34375 16.2547 3.05299 15.7762 2.77435 15.2916C2.70166 15.1644 2.63503 15.1341 2.48965 15.1583C1.92024 15.2673 1.34478 15.3582 0.775373 15.4491C0.63605 15.4733 0.502785 15.4551 0.411923 15.3279C0.308945 15.1886 0.351348 15.0432 0.41798 14.9039C1.02373 13.6136 1.62342 12.3173 2.24129 11.0271C2.33821 10.8272 2.27763 10.7727 2.10802 10.7182C1.96264 10.6758 1.82332 10.6212 1.684 10.5728C0.908638 10.3002 0.629993 9.88223 0.842005 9.10686C1.01767 8.47083 0.890465 8.01046 0.424038 7.54403C-0.145367 6.97462 -0.127195 6.46579 0.39375 5.84793C0.460383 5.76918 0.533073 5.68438 0.605763 5.61169C0.914696 5.32093 1.01767 4.98171 0.896523 4.56374C0.85412 4.38201 0.817775 4.18817 0.793545 3.99433C0.751143 3.55819 0.896523 3.21291 1.2842 2.98273C1.49622 2.86158 1.72034 2.77677 1.95053 2.72226C2.3685 2.61322 2.63503 2.37698 2.73195 1.9469C2.76829 1.7894 2.83492 1.63191 2.8955 1.48047C3.14386 0.892891 3.55577 0.674821 4.17969 0.795971C4.31901 0.820201 4.46439 0.844431 4.59766 0.880776C4.99139 0.989811 5.32456 0.911064 5.60926 0.614246C5.76676 0.450694 5.93637 0.305314 6.13021 0.184164C6.53 -0.0702515 6.92374 -0.0581365 7.31142 0.202336C7.49314 0.323486 7.66275 0.468866 7.81419 0.626361C8.09284 0.917121 8.426 0.983754 8.80762 0.886834C9.04992 0.826259 9.29222 0.771741 9.54058 0.771741C9.93432 0.771741 10.219 0.941351 10.4129 1.27451C10.5401 1.49258 10.6249 1.72277 10.6794 1.96507C10.7763 2.37698 11.0307 2.61322 11.4305 2.7162C11.5335 2.74043 11.6304 2.77677 11.7334 2.81312C12.5027 3.07965 12.745 3.49156 12.5875 4.28509C12.5693 4.38807 12.5451 4.49105 12.5148 4.59403C12.3937 4.99988 12.5027 5.33304 12.7995 5.61774C12.957 5.76918 13.0963 5.93879 13.2175 6.12052C13.4658 6.5082 13.4658 6.90193 13.2054 7.28356C13.0842 7.45922 12.957 7.62883 12.7995 7.76816C12.4845 8.07103 12.3937 8.41631 12.5148 8.83428C12.5633 8.99177 12.5814 9.15532 12.6057 9.31888C12.6905 9.83982 12.4906 10.2396 11.9999 10.4577C11.7637 10.5667 11.5093 10.6515 11.2609 10.7303C11.1034 10.7787 11.0731 10.8333 11.1519 10.9968C11.7637 12.2871 12.3634 13.5834 12.9691 14.8736C13.0418 15.0311 13.1024 15.1825 12.9752 15.34C12.8601 15.4854 12.7026 15.4612 12.539 15.4309C11.9757 15.3279 11.4123 15.2431 10.849 15.1401C10.7339 15.122 10.6915 15.1765 10.637 15.2613C10.3523 15.758 10.0615 16.2487 9.77076 16.7454C9.69202 16.8786 9.60721 17.0058 9.42549 16.9998C9.2377 16.9937 9.15896 16.8605 9.09232 16.709C8.56532 15.5884 8.03832 14.4617 7.51132 13.3411C7.4992 13.2744 7.46891 13.2078 7.42651 13.123ZM1.4417 9.48849C1.3993 9.68233 1.50227 9.81559 1.69611 9.88828C1.86572 9.94886 2.03533 10.0155 2.20494 10.064C2.76829 10.2275 3.14991 10.5667 3.31347 11.1422C3.37404 11.3481 3.45279 11.5541 3.53759 11.754C3.59817 11.9054 3.72538 11.9781 3.89499 11.9721C4.107 11.9599 4.31295 11.9175 4.51891 11.863C5.1186 11.6995 5.61532 11.8751 6.0454 12.2931C6.17261 12.4143 6.30587 12.5233 6.43914 12.6323C6.61481 12.7777 6.80259 12.7717 6.97826 12.6323C7.13575 12.5051 7.28719 12.3658 7.43863 12.2325C7.7839 11.9175 8.17764 11.7479 8.65618 11.8267C8.88637 11.863 9.11655 11.9175 9.34068 11.9539C9.68596 12.0145 9.80105 11.9539 9.92826 11.6207C9.98883 11.4572 10.0494 11.2997 10.0979 11.1301C10.2675 10.5486 10.6552 10.2093 11.2367 10.0518C12.0302 9.83377 12.0787 9.74896 11.8788 8.94331C11.7273 8.31939 11.8545 7.78027 12.321 7.32596C12.4361 7.21692 12.539 7.09577 12.6299 6.96857C12.7874 6.75655 12.7874 6.60512 12.6238 6.3931C12.5209 6.25378 12.3997 6.12657 12.2786 5.99937C11.8727 5.5814 11.7213 5.0968 11.8606 4.52739C11.9091 4.3275 11.9515 4.13366 11.9696 3.9277C11.9939 3.69752 11.903 3.55214 11.6849 3.47339C11.5153 3.41281 11.3457 3.34618 11.1761 3.29772C10.6188 3.13417 10.2493 2.78889 10.0858 2.22554C10.0252 2.02564 9.9646 1.82575 9.87374 1.63191C9.78288 1.43807 9.63144 1.36538 9.43154 1.40172C9.26193 1.43201 9.09232 1.4623 8.92271 1.5047C8.32302 1.66825 7.80813 1.52287 7.36594 1.08673C7.24479 0.965581 7.10546 0.856546 6.9722 0.741454C6.78442 0.583959 6.59058 0.590016 6.40279 0.747511C6.26347 0.862604 6.13021 0.983754 5.99694 1.1049C5.60926 1.4623 5.16706 1.65008 4.634 1.52893C4.41593 1.48047 4.1918 1.43807 3.96768 1.40172C3.75566 1.36538 3.59817 1.43201 3.50731 1.63796C3.43462 1.80152 3.37404 1.97113 3.32558 2.14679C3.16203 2.74649 2.79252 3.14022 2.18071 3.30378C1.99899 3.35224 1.82332 3.41887 1.64765 3.49156C1.47199 3.56425 1.3993 3.69146 1.41141 3.8853C1.42958 4.06702 1.45987 4.24269 1.50227 4.41836C1.66583 5.03622 1.53256 5.5814 1.06613 6.02965C0.963156 6.12657 0.872293 6.24167 0.787488 6.35676C0.593648 6.61117 0.58759 6.74444 0.787488 6.99885C0.87835 7.12 0.981328 7.22904 1.08431 7.33807C1.50227 7.7621 1.65977 8.25882 1.52045 8.84639C1.50227 9.06446 1.4417 9.2583 1.4417 9.48849ZM10.6854 11.4814C10.6249 11.6389 10.5825 11.7661 10.534 11.8873C10.4007 12.2144 10.2069 12.487 9.84951 12.5778C9.61933 12.6384 9.38914 12.6142 9.1529 12.5718C8.88031 12.5233 8.61378 12.4324 8.32908 12.4627C8.01409 12.493 7.92323 12.6444 8.05043 12.9231C8.49869 13.8741 8.94089 14.8251 9.38914 15.7762C9.41943 15.8368 9.42549 15.9216 9.51029 15.9518C9.69807 15.6308 9.8798 15.3097 10.0736 14.9948C10.4431 14.383 10.3281 14.4011 11.1034 14.5404C11.4548 14.601 11.8061 14.6495 12.1998 14.7101C11.6849 13.6136 11.1882 12.5596 10.6854 11.4814ZM1.22969 14.7161C1.73246 14.6313 2.17466 14.5647 2.62291 14.4859C2.9803 14.4254 3.03482 14.4435 3.2226 14.7585C3.45885 15.1583 3.68903 15.552 3.93739 15.9761C3.98585 15.8792 4.01614 15.8125 4.04642 15.7459C4.49468 14.7949 4.94293 13.8438 5.38513 12.8928C5.50628 12.6384 5.48205 12.596 5.22158 12.487C5.15495 12.4567 5.08832 12.4627 5.02168 12.4567C4.75515 12.4324 4.50074 12.5233 4.24632 12.5778C3.54365 12.7171 3.11963 12.487 2.85915 11.8206C2.82281 11.7176 2.78646 11.6147 2.738 11.4753C2.23523 12.5657 1.73852 13.6136 1.22969 14.7161Z" fill="#16A7E1"/>
<path d="M2.40483 6.67775C2.42906 4.27292 4.34929 2.36481 6.74806 2.37086C9.11048 2.37692 11.0368 4.33955 11.0186 6.73227C11.0004 9.10681 9.04385 11.0331 6.66931 11.0149C4.30083 10.9907 2.3806 9.04017 2.40483 6.67775ZM6.70566 10.3668C8.66223 10.391 10.3583 8.74336 10.3826 6.79284C10.4068 4.72117 8.80761 3.0493 6.77229 3.03113C4.75514 3.0069 3.0651 4.61214 3.04087 6.58689C3.01058 8.68278 4.61582 10.3365 6.70566 10.3668Z" fill="#16A7E1"/>
</svg>
