<svg width="22" height="25" viewBox="0 0 22 25" fill="none" xmlns="http://www.w3.org/2000/svg">
<path d="M4.59075 25C4.32169 24.8594 4.01595 24.8043 3.76524 24.627C3.14152 24.1867 2.85412 23.5752 2.79297 22.8292C2.68291 21.4901 2.57284 20.157 2.46277 18.8179C2.35882 17.5276 2.26098 16.2435 2.15091 14.9532C2.04696 13.6752 1.93077 12.3972 1.82682 11.1131C1.7351 10.0308 1.64337 8.94232 1.57 7.85387C1.53331 7.32187 1.54554 7.32187 1.00743 7.32187C0.909589 7.32187 0.811751 7.32187 0.713913 7.32187C0.316445 7.30964 0.010701 7.0039 0.00458616 6.60643C-0.00152872 6.11724 -0.00152872 5.62805 0.00458616 5.14497C0.0168159 3.89754 0.970738 2.94362 2.21817 2.9375C3.59402 2.93139 4.96987 2.93139 6.33961 2.94362C6.56586 2.94362 6.60255 2.87635 6.59643 2.67456C6.57197 2.14257 6.59032 1.6228 6.8716 1.13972C7.2813 0.448743 7.88667 0.0390457 8.68772 0.020701C10.2164 -0.00987338 11.7452 -0.00375849 13.2739 0.020701C14.4051 0.0390457 15.3224 0.980738 15.3713 2.11811C15.3774 2.31378 15.3896 2.50946 15.3713 2.70513C15.3468 2.91916 15.4324 2.94973 15.6281 2.94973C16.9612 2.94362 18.2942 2.94362 19.6272 2.94362C21.0337 2.94362 21.9631 3.87308 21.9631 5.27339C21.9631 5.71366 21.9692 6.15393 21.9631 6.58809C21.957 7.01613 21.6574 7.32187 21.2293 7.3341C21.107 7.3341 20.9848 7.3341 20.8625 7.3341C20.4405 7.3341 20.4405 7.3341 20.4038 7.76826C20.2387 9.84732 20.0736 11.9325 19.9024 14.0116C19.7434 15.9928 19.5783 17.9801 19.4132 19.9613C19.3337 20.9336 19.2542 21.9059 19.1747 22.8781C19.083 24.0033 18.3187 24.8349 17.3036 24.9633C17.2914 24.9633 17.2852 24.9878 17.2791 25C13.0476 25 8.82225 25 4.59075 25ZM2.99476 7.3341C3.06814 8.21464 3.14152 9.07684 3.2149 9.93293C3.31885 11.2232 3.41669 12.5073 3.52676 13.7975C3.64906 15.2773 3.77747 16.7633 3.89977 18.2431C4.02206 19.7229 4.13213 21.2088 4.26054 22.6886C4.31558 23.3184 4.56629 23.5385 5.20224 23.5385C9.05461 23.5385 12.9131 23.5385 16.7655 23.5385C16.8389 23.5385 16.9122 23.5447 16.9856 23.5385C17.3709 23.508 17.6338 23.2695 17.6827 22.8843C17.7255 22.5602 17.7439 22.2361 17.7744 21.912C17.86 20.8358 17.9457 19.7595 18.0374 18.6833C18.1413 17.4053 18.2514 16.1273 18.3615 14.8432C18.4532 13.7608 18.5327 12.6724 18.6244 11.5901C18.7345 10.2631 18.8384 8.9362 18.9607 7.60927C18.9791 7.38914 18.9302 7.3341 18.7039 7.3341C13.5613 7.34022 8.42478 7.34022 3.28216 7.34022C3.19044 7.3341 3.11095 7.3341 2.99476 7.3341ZM10.9808 5.86653C13.9832 5.86653 16.9795 5.86653 19.9819 5.86653C20.4956 5.86653 20.4956 5.86653 20.4956 5.35899C20.4956 4.6619 20.2387 4.40507 19.5416 4.40507C13.8303 4.40507 8.12515 4.40507 2.41385 4.40507C2.34047 4.40507 2.26709 4.40507 2.19371 4.40507C1.77179 4.42953 1.48439 4.71693 1.45993 5.13886C1.4477 5.30396 1.47216 5.46295 1.45381 5.62805C1.43547 5.82984 1.50885 5.87264 1.71064 5.87264C4.80477 5.86653 7.89279 5.86653 10.9808 5.86653ZM10.9808 2.94362C11.739 2.94362 12.4912 2.94973 13.2494 2.94362C13.4634 2.94362 13.7692 3.04145 13.8731 2.90081C13.9832 2.75405 13.9159 2.46665 13.9098 2.2404C13.8976 1.80625 13.6102 1.48827 13.1822 1.48216C11.7207 1.46993 10.2592 1.46993 8.79167 1.48216C8.36363 1.48216 8.07623 1.80013 8.05789 2.23429C8.05177 2.40551 8.07012 2.57672 8.05177 2.74794C8.03954 2.90693 8.08846 2.94973 8.24745 2.94973C9.15857 2.9375 10.0697 2.94362 10.9808 2.94362Z" fill="white"/>
<path d="M5.85651 14.6904C5.85651 12.9843 5.85651 11.2722 5.85651 9.56611C5.85651 8.99131 6.39462 8.62442 6.89604 8.8629C7.17732 8.99743 7.32408 9.22979 7.32408 9.54165C7.32408 10.4589 7.32408 11.3822 7.32408 12.2995C7.32408 14.8127 7.32408 17.3259 7.32408 19.8391C7.32408 20.4261 6.76762 20.7869 6.2662 20.5301C5.99103 20.3895 5.86262 20.151 5.86262 19.833C5.86262 18.1208 5.85651 16.4087 5.85651 14.6904Z" fill="white"/>
<path d="M10.2531 14.7025C10.2531 12.9782 10.2531 11.2538 10.2531 9.52936C10.2531 9.15024 10.5222 8.84449 10.8768 8.80169C11.2498 8.75277 11.5984 8.9729 11.6962 9.3398C11.7146 9.41929 11.7207 9.49878 11.7207 9.57828C11.7207 12.9965 11.7207 16.4086 11.7207 19.8268C11.7207 20.2977 11.4149 20.6156 10.9747 20.6095C10.5527 20.6034 10.2531 20.2854 10.2531 19.8268C10.2531 18.1208 10.2531 16.4147 10.2531 14.7025Z" fill="white"/>
<path d="M14.6436 14.7025C14.6436 12.9782 14.6436 11.2538 14.6436 9.52936C14.6436 9.15024 14.9126 8.84449 15.2612 8.80169C15.6342 8.75277 15.9827 8.9729 16.0806 9.3398C16.0989 9.41929 16.105 9.49878 16.105 9.57828C16.105 12.9965 16.105 16.4086 16.105 19.8268C16.105 20.2977 15.7993 20.6156 15.3651 20.6095C14.9432 20.6034 14.6436 20.2854 14.6436 19.8268C14.6436 18.1208 14.6436 16.4147 14.6436 14.7025Z" fill="white"/>
</svg>
