<svg width="21" height="24" viewBox="0 0 21 24" fill="none" xmlns="http://www.w3.org/2000/svg">
<path d="M19.4484 24C13.4624 24 7.48848 24 1.5025 24C1.4424 23.9279 1.34624 23.9279 1.27412 23.9038C0.516861 23.6394 0 22.9422 0 22.1489C0.01202 15.8865 0.01202 9.62404 0.01202 3.34958C0.01202 2.3399 0.841402 1.52254 1.83907 1.51052C2.34391 1.51052 2.84875 1.51052 3.36561 1.51052C3.75025 1.51052 3.75025 1.51052 3.76227 1.12588C3.76227 0.633055 4.07479 0.212354 4.53155 0.0560935C5.27679 -0.172287 6.01002 0.368614 6.01002 1.17396C6.01002 1.51052 6.01002 1.51052 6.34658 1.51052C9.09916 1.51052 11.8397 1.51052 14.5923 1.51052C15.001 1.51052 15.001 1.51052 15.001 1.10184C15.013 0.657095 15.2294 0.320534 15.614 0.128214C15.9987 -0.0641068 16.3833 -0.0400668 16.7439 0.200334C17.1285 0.452755 17.2848 0.837396 17.2367 1.29416C17.2247 1.48648 17.2848 1.52254 17.4651 1.52254C18.018 1.51052 18.571 1.51052 19.1239 1.52254C20.1576 1.52254 20.987 2.35192 20.987 3.37362C20.987 9.63606 20.987 15.8985 20.987 22.1489C20.987 22.9543 20.4581 23.6634 19.6888 23.9159C19.6167 23.9519 19.5205 23.9279 19.4484 24ZM10.5055 6.01803C7.33222 6.01803 4.17095 6.01803 0.997663 6.01803C0.805342 6.01803 0.757262 6.05409 0.757262 6.25843C0.769282 10.7659 0.757262 15.2614 0.757262 19.7689C0.757262 20.5382 1.21402 21.019 1.98331 21.019C6.50284 21.019 11.0224 21.019 15.5419 21.019C15.7102 21.019 15.7462 20.971 15.7462 20.8147C15.7342 19.9973 15.7342 19.192 15.7462 18.3746C15.7583 17.3169 16.5636 16.5235 17.6214 16.5115C18.4147 16.5115 19.208 16.4995 20.0134 16.5115C20.2177 16.5115 20.2538 16.4634 20.2538 16.2711C20.2417 12.9295 20.2417 9.58798 20.2538 6.24641C20.2538 6.05409 20.2057 6.00601 20.0134 6.00601C16.8401 6.01803 13.6788 6.01803 10.5055 6.01803ZM10.5055 5.27279C13.6788 5.27279 16.8641 5.27279 20.0374 5.27279C20.2177 5.27279 20.2538 5.23673 20.2538 5.05643C20.2417 4.52755 20.2538 3.99866 20.2538 3.46978C20.2538 2.7606 19.785 2.2798 19.0638 2.2798C18.607 2.2798 18.1382 2.2798 17.6815 2.2798C17.2608 2.2798 17.2608 2.2798 17.2487 2.7005C17.2367 3.27746 16.7439 3.77028 16.179 3.7823C15.5058 3.79432 15.013 3.31352 15.001 2.62838C15.001 2.2798 15.001 2.2798 14.6524 2.2798C11.9119 2.2798 9.17128 2.2798 6.43072 2.2798C6.02204 2.2798 6.02204 2.2798 6.01002 2.67646C5.998 3.10918 5.79366 3.43372 5.42103 3.63806C5.03639 3.8424 4.65175 3.83038 4.29115 3.602C3.88247 3.33756 3.72621 2.95292 3.77429 2.48414C3.78631 2.32788 3.75025 2.26778 3.58197 2.2798C3.04107 2.29182 2.50017 2.2798 1.97129 2.2798C1.2621 2.2798 0.793322 2.7606 0.781302 3.46978C0.781302 3.99866 0.793322 4.51553 0.781302 5.04441C0.781302 5.23673 0.829382 5.28481 1.0217 5.28481C4.17095 5.26077 7.33222 5.27279 10.5055 5.27279ZM20.2538 17.8578C20.2297 17.8457 20.2177 17.8217 20.1937 17.8097C20.1456 17.8818 20.0975 17.9539 20.0494 18.014C18.8835 19.18 17.7175 20.3459 16.5636 21.5119C16.3833 21.6922 16.203 21.7763 15.9506 21.7763C11.4671 21.7643 6.99566 21.7643 2.51219 21.7763C1.91119 21.7763 1.31018 21.8244 0.781302 21.3917C0.781302 21.608 0.781302 21.7763 0.781302 21.9566C0.781302 22.8461 1.21402 23.2788 2.10351 23.2788C7.45242 23.2788 12.7893 23.2788 18.1382 23.2788C18.4628 23.2788 18.7993 23.2788 19.1239 23.2788C19.797 23.2668 20.2658 22.786 20.2778 22.1129C20.2538 20.6825 20.2538 19.2641 20.2538 17.8578ZM19.6768 17.2568C19.6287 17.2568 19.5927 17.2568 19.5686 17.2568C18.9316 17.2568 18.3065 17.2568 17.6694 17.2568C16.9963 17.2568 16.5155 17.7496 16.5035 18.4227C16.5035 19.0237 16.5035 19.6247 16.5035 20.2257C16.5035 20.2858 16.4674 20.3579 16.5155 20.406C17.5613 19.3603 18.607 18.3145 19.6768 17.2568ZM16.5035 1.90718C16.5035 1.66678 16.5035 1.42638 16.5035 1.18598C16.4915 0.933556 16.3352 0.765275 16.1189 0.777295C15.9145 0.789316 15.7583 0.945576 15.7583 1.18598C15.7583 1.66678 15.7583 2.13556 15.7583 2.61636C15.7583 2.85676 15.9145 3.01302 16.1189 3.02504C16.3352 3.03706 16.4915 2.85676 16.5035 2.61636C16.5035 2.37596 16.5035 2.13556 16.5035 1.90718ZM4.50751 1.89516C4.50751 2.12354 4.50751 2.36394 4.50751 2.59232C4.50751 2.84474 4.66377 3.01302 4.88013 3.01302C5.08447 3.01302 5.25275 2.84474 5.25275 2.59232C5.25275 2.12354 5.25275 1.65476 5.25275 1.18598C5.25275 0.933556 5.09649 0.765275 4.88013 0.765275C4.65175 0.765275 4.50751 0.933556 4.50751 1.21002C4.50751 1.4384 4.50751 1.66678 4.50751 1.89516Z" fill="black" fill-opacity="0.5"/>
<path d="M6.75525 8.99897C6.75525 8.74655 6.75525 8.49413 6.75525 8.25373C6.76727 7.83303 7.07979 7.52051 7.50049 7.52051C8.00533 7.52051 8.51017 7.52051 9.02704 7.52051C9.43572 7.52051 9.76026 7.84505 9.76026 8.24171C9.76026 8.75857 9.76026 9.27543 9.76026 9.79229C9.76026 10.201 9.43572 10.5135 9.02704 10.5135C8.51017 10.5135 7.99331 10.5135 7.47645 10.5135C7.07979 10.5135 6.76727 10.189 6.75525 9.80431C6.75525 9.52785 6.75525 9.26341 6.75525 8.99897ZM9.003 8.99897C9.003 8.80665 8.99098 8.62635 9.003 8.43403C9.01502 8.31383 8.97896 8.25373 8.84674 8.26575C8.46209 8.27777 8.06543 8.27777 7.68079 8.26575C7.56059 8.26575 7.50049 8.28979 7.51251 8.42201C7.52453 8.81867 7.52453 9.21533 7.51251 9.61199C7.51251 9.72017 7.52453 9.76825 7.64473 9.75623C8.05341 9.74421 8.46209 9.74421 8.85875 9.75623C8.99098 9.75623 9.01502 9.70815 9.003 9.58795C9.003 9.40765 9.003 9.20331 9.003 8.99897Z" fill="black" fill-opacity="0.5"/>
<path d="M12.7412 10.5133C12.4888 10.5133 12.2364 10.5133 11.996 10.5133C11.5753 10.5013 11.2628 10.1888 11.2507 9.76807C11.2507 9.26323 11.2507 8.75838 11.2507 8.24152C11.2507 7.82082 11.5753 7.5083 11.996 7.5083C12.5008 7.5083 13.0057 7.5083 13.5225 7.5083C13.9312 7.5083 14.2437 7.83284 14.2557 8.2295C14.2557 8.74636 14.2678 9.26323 14.2557 9.78009C14.2557 10.1767 13.9312 10.5013 13.5225 10.5013C13.2581 10.5133 13.0057 10.5133 12.7412 10.5133ZM12.02 9.0108C12.032 9.25121 11.8998 9.58777 12.0561 9.71999C12.1883 9.84019 12.5128 9.75605 12.7532 9.75605C12.9936 9.75605 13.3302 9.86423 13.4624 9.70797C13.5826 9.57575 13.4985 9.25121 13.4985 9.0108C13.4985 8.7704 13.6067 8.43384 13.4504 8.30162C13.3182 8.18142 12.9936 8.26556 12.7532 8.26556C12.5128 8.26556 12.1763 8.15738 12.0441 8.31364C11.9239 8.44586 12.02 8.7704 12.02 9.0108Z" fill="black" fill-opacity="0.5"/>
<path d="M12.7653 12.0161C13.0177 12.0161 13.2701 12.0161 13.5105 12.0161C13.9312 12.0161 14.2557 12.3286 14.2557 12.7493C14.2557 13.2541 14.2557 13.759 14.2557 14.2759C14.2557 14.6966 13.9312 15.0091 13.5105 15.0091C13.0057 15.0091 12.5008 15.0091 11.984 15.0091C11.5753 15.0091 11.2628 14.6845 11.2507 14.2879C11.2507 13.771 11.2507 13.2541 11.2507 12.7373C11.2507 12.3286 11.5753 12.0161 11.984 12.0161C12.2484 12.0041 12.5008 12.0161 12.7653 12.0161ZM13.4985 13.4945C13.4985 13.3022 13.4985 13.1099 13.4985 12.9056C13.4985 12.7974 13.4744 12.7613 13.3542 12.7613C12.9456 12.7733 12.5369 12.7733 12.1402 12.7613C12.032 12.7613 11.996 12.7854 11.996 12.9056C12.008 13.3142 12.008 13.7229 11.996 14.1196C11.996 14.2278 12.02 14.2638 12.1402 14.2638C12.5489 14.2518 12.9576 14.2518 13.3542 14.2638C13.4624 14.2638 13.4985 14.2398 13.4985 14.1196C13.4985 13.9152 13.4985 13.6989 13.4985 13.4945Z" fill="black" fill-opacity="0.5"/>
<path d="M8.24573 15.0089C7.99331 15.0089 7.74089 15.0089 7.50049 15.0089C7.07979 15.0089 6.76727 14.6844 6.75525 14.2637C6.75525 13.7588 6.75525 13.254 6.75525 12.7371C6.75525 12.3164 7.07979 12.0039 7.50049 12.0039C8.00533 12.0039 8.51017 12.0039 9.02704 12.0039C9.43572 12.0039 9.74824 12.3284 9.76026 12.7251C9.76026 13.242 9.76026 13.7588 9.76026 14.2757C9.76026 14.6724 9.43572 14.9969 9.02704 14.9969C8.76259 15.0089 8.51017 15.0089 8.24573 15.0089ZM8.24573 14.2637C8.45007 14.2637 8.65441 14.2637 8.85875 14.2637C8.95492 14.2637 9.01502 14.2637 9.01502 14.1315C9.003 13.7228 9.003 13.3021 9.01502 12.8934C9.01502 12.7852 8.97896 12.7612 8.8828 12.7612C8.47411 12.7612 8.05341 12.7612 7.64473 12.7612C7.53655 12.7612 7.51251 12.7972 7.51251 12.8934C7.51251 13.3021 7.51251 13.7228 7.51251 14.1315C7.51251 14.2396 7.54857 14.2637 7.64473 14.2637C7.83705 14.2517 8.04139 14.2637 8.24573 14.2637Z" fill="black" fill-opacity="0.5"/>
<path d="M18.7512 9.02301C18.7512 9.27543 18.7512 9.52785 18.7512 9.76825C18.7392 10.189 18.4267 10.5015 18.006 10.5135C17.5012 10.5135 16.9963 10.5135 16.4795 10.5135C16.0708 10.5135 15.7582 10.189 15.7462 9.79229C15.7342 9.27543 15.7342 8.75857 15.7462 8.24171C15.7462 7.83303 16.0708 7.52051 16.4795 7.52051C16.9963 7.52051 17.5132 7.52051 18.03 7.52051C18.4267 7.52051 18.7392 7.84505 18.7512 8.22969C18.7512 8.24171 18.7512 8.26575 18.7512 8.27777C18.7512 8.53019 18.7512 8.77059 18.7512 9.02301ZM17.2487 9.75623C17.4891 9.75623 17.8137 9.85239 17.9459 9.73219C18.1022 9.59997 17.982 9.26341 17.994 9.02301C17.994 8.78261 18.0781 8.45807 17.9579 8.32585C17.8137 8.16959 17.4891 8.28979 17.2487 8.27777C17.0083 8.27777 16.6838 8.19363 16.5516 8.31383C16.3953 8.45807 16.5155 8.78261 16.5035 9.02301C16.5035 9.26341 16.4194 9.58795 16.5396 9.72017C16.6718 9.87643 17.0083 9.74421 17.2487 9.75623Z" fill="black" fill-opacity="0.5"/>
<path d="M3.75025 15.0089C3.49783 15.0089 3.24541 15.0089 3.00501 15.0089C2.58431 15.0089 2.27179 14.6844 2.25977 14.2637C2.25977 13.7588 2.25977 13.254 2.25977 12.7371C2.25977 12.3164 2.58431 12.0039 3.00501 12.0039C3.50985 12.0039 4.01469 12.0039 4.53155 12.0039C4.94023 12.0039 5.25275 12.3284 5.26477 12.7251C5.27679 13.242 5.27679 13.7588 5.26477 14.2757C5.26477 14.6844 4.94023 14.9969 4.53155 14.9969C4.26711 15.0089 4.01469 15.0089 3.75025 15.0089ZM4.50751 13.5064C4.48347 13.266 4.61569 12.9294 4.45943 12.7972C4.32721 12.677 4.00267 12.7612 3.76227 12.7612C3.52187 12.7612 3.19733 12.677 3.06511 12.7972C2.90885 12.9415 3.01703 13.266 3.01703 13.5064C3.01703 13.7468 2.90885 14.0834 3.06511 14.2156C3.19733 14.3358 3.52187 14.2517 3.76227 14.2517C4.00267 14.2517 4.32721 14.3358 4.45943 14.2156C4.61569 14.0834 4.48347 13.7588 4.50751 13.5064Z" fill="black" fill-opacity="0.5"/>
<path d="M17.2367 15.0089C16.9843 15.0089 16.7319 15.0089 16.4915 15.0089C16.0708 14.9969 15.7583 14.6844 15.7583 14.2637C15.7583 13.7588 15.7583 13.254 15.7583 12.7371C15.7583 12.3164 16.0828 12.0039 16.5035 12.0039C17.0084 12.0039 17.5012 12.0039 18.006 12.0039C18.4387 12.0039 18.7513 12.3164 18.7633 12.7612C18.7633 13.266 18.7633 13.7588 18.7633 14.2637C18.7633 14.6964 18.4387 15.0089 18.006 15.0089C17.7416 15.0089 17.4892 15.0089 17.2367 15.0089ZM17.2488 12.7732C17.0084 12.7852 16.6718 12.653 16.5396 12.8092C16.4194 12.9415 16.5035 13.266 16.5035 13.5064C16.5035 13.7588 16.3953 14.0834 16.5516 14.2156C16.6838 14.3358 17.0084 14.2517 17.2488 14.2517C17.4892 14.2517 17.8257 14.3598 17.9579 14.2036C18.0781 14.0714 17.994 13.7468 17.994 13.5064C17.994 13.266 18.1022 12.9294 17.9459 12.7972C17.8137 12.677 17.4892 12.7732 17.2488 12.7732Z" fill="black" fill-opacity="0.5"/>
<path d="M12.7653 16.5117C13.0177 16.5117 13.2701 16.5117 13.5105 16.5117C13.9312 16.5237 14.2438 16.8363 14.2558 17.257C14.2558 17.7618 14.2558 18.2666 14.2558 18.7835C14.2558 19.1922 13.9312 19.5167 13.5346 19.5167C13.0177 19.5287 12.5009 19.5287 11.984 19.5167C11.5753 19.5167 11.2628 19.1922 11.2628 18.7835C11.2628 18.2787 11.2628 17.7738 11.2628 17.257C11.2628 16.8363 11.5753 16.5237 11.996 16.5117C12.2484 16.5117 12.5009 16.5117 12.7653 16.5117ZM13.4985 17.9902C13.4985 17.8099 13.4865 17.6296 13.4985 17.4493C13.5105 17.305 13.4745 17.2449 13.3182 17.257C12.9336 17.269 12.5489 17.269 12.1763 17.257C12.0561 17.257 11.996 17.281 12.008 17.4132C12.02 17.7979 12.02 18.1945 12.008 18.5792C12.008 18.7354 12.0561 18.7595 12.2003 18.7474C12.573 18.7354 12.9456 18.7354 13.3182 18.7474C13.4985 18.7595 13.5226 18.6873 13.5105 18.5311C13.4985 18.3628 13.4985 18.1825 13.4985 17.9902Z" fill="black" fill-opacity="0.5"/>
<path d="M6.75525 18.0022C6.75525 17.7618 6.75525 17.5214 6.75525 17.281C6.75525 16.8242 7.06777 16.5117 7.51251 16.5117C8.00533 16.5117 8.49815 16.5117 8.99097 16.5117C9.43572 16.5117 9.74824 16.8242 9.76026 17.281C9.76026 17.7738 9.76026 18.2666 9.76026 18.7595C9.76026 19.1922 9.44774 19.5167 9.01502 19.5167C8.51017 19.5167 8.01735 19.5167 7.51251 19.5167C7.07979 19.5167 6.76727 19.1922 6.75525 18.7595C6.75525 18.507 6.75525 18.2546 6.75525 18.0022ZM8.25775 17.257C8.05341 17.257 7.84907 17.257 7.64473 17.257C7.53655 17.257 7.50049 17.281 7.50049 17.4012C7.51251 17.8099 7.51251 18.2186 7.50049 18.6152C7.50049 18.7234 7.52453 18.7595 7.64473 18.7595C8.05341 18.7474 8.46209 18.7474 8.85875 18.7595C8.96694 18.7595 9.003 18.7354 9.003 18.6152C8.99098 18.2065 8.99098 17.7979 9.003 17.4012C9.003 17.293 8.97896 17.2449 8.85875 17.257C8.66643 17.269 8.46209 17.257 8.25775 17.257Z" fill="black" fill-opacity="0.5"/>
<path d="M3.75025 10.5133C3.49783 10.5133 3.24541 10.5133 3.00501 10.5133C2.58431 10.5013 2.27179 10.1888 2.27179 9.76807C2.27179 9.26323 2.27179 8.75838 2.27179 8.24152C2.27179 7.83284 2.59633 7.52032 2.99299 7.5083C3.50985 7.5083 4.02671 7.5083 4.53156 7.5083C4.92822 7.5083 5.25276 7.83284 5.25276 8.21748C5.26478 8.73434 5.26478 9.26323 5.25276 9.78009C5.25276 10.1888 4.92822 10.4893 4.51954 10.5013C4.26712 10.5133 4.00267 10.5133 3.75025 10.5133ZM3.01703 8.9507C3.01703 9.20313 3.01703 9.40747 3.01703 9.62383C3.01703 9.73201 3.05309 9.76807 3.16127 9.76807C3.56995 9.75605 3.96661 9.75605 4.3753 9.76807C4.48348 9.76807 4.51954 9.73201 4.51954 9.62383C4.50752 9.21515 4.50752 8.81848 4.51954 8.4098C4.51954 8.30162 4.48348 8.26556 4.3753 8.26556C4.17095 8.27758 3.95459 8.26556 3.75025 8.26556C3.52187 8.26556 3.20935 8.18142 3.07713 8.30162C2.90885 8.43384 3.02905 8.75838 3.01703 8.9507Z" fill="black" fill-opacity="0.5"/>
<path d="M5.25276 18.002C5.25276 18.2544 5.25276 18.5069 5.25276 18.7473C5.25276 19.18 4.92822 19.5045 4.50752 19.5045C4.01469 19.5045 3.50985 19.5045 3.01703 19.5045C2.58431 19.5045 2.27179 19.18 2.27179 18.7473C2.27179 18.2544 2.27179 17.7496 2.27179 17.2448C2.27179 16.8241 2.59633 16.4995 3.00501 16.4995C3.50985 16.4995 4.01469 16.4995 4.51954 16.4995C4.92822 16.4995 5.25276 16.8241 5.26478 17.2448C5.26478 17.4972 5.25276 17.7496 5.25276 18.002ZM3.01703 17.99C3.01703 18.2424 2.92087 18.567 3.04107 18.7112C3.18531 18.8675 3.52187 18.7473 3.77429 18.7593C4.00267 18.7713 4.3152 18.8434 4.44742 18.7232C4.59166 18.591 4.48348 18.2665 4.4955 18.0261C4.4955 17.7736 4.59166 17.4491 4.45944 17.3049C4.3152 17.1486 3.97863 17.2688 3.72621 17.2568C3.49783 17.2448 3.18531 17.1726 3.05309 17.2928C2.90885 17.4251 3.02905 17.7496 3.01703 17.99Z" fill="black" fill-opacity="0.5"/>
<path d="M10.5296 3.39746C11.371 3.39746 12.2124 3.39746 13.0538 3.39746C13.3663 3.39746 13.5105 3.51751 13.5105 3.7696C13.5105 4.02169 13.3663 4.15374 13.0658 4.15374C11.3589 4.15374 9.6521 4.15374 7.94525 4.15374C7.75293 4.15374 7.59667 4.10573 7.53657 3.91365C7.47647 3.74559 7.50051 3.58953 7.65677 3.46949C7.75293 3.39746 7.86111 3.39746 7.96929 3.39746C8.8107 3.39746 9.66412 3.39746 10.5296 3.39746Z" fill="black" fill-opacity="0.5"/>
</svg>
