<svg width="22" height="24" viewBox="0 0 22 24" fill="none" xmlns="http://www.w3.org/2000/svg">
<path d="M5.16252 0C5.18131 0.0814409 5.26276 0.0563821 5.31287 0.0814409C5.75767 0.29444 6.00199 0.632733 6.00825 1.12764C6.01452 1.62882 6.01452 2.12373 6.00825 2.6249C6.00199 3.25764 5.50708 3.75255 4.88061 3.75255C4.25414 3.75255 3.75923 3.25764 3.75923 2.6249C3.75923 2.15505 3.75923 1.69146 3.75923 1.22161C3.75923 0.620204 4.00355 0.269381 4.56111 0.0438528C4.57991 0.0375881 4.58617 0.0125294 4.5987 0C4.78664 0 4.97458 0 5.16252 0Z" fill="#16A7E1"/>
<path d="M16.4139 0C16.4327 0.0814409 16.5141 0.0563821 16.5642 0.0814409C17.009 0.29444 17.2534 0.632733 17.2596 1.12764C17.2659 1.62882 17.2659 2.12373 17.2596 2.6249C17.2534 3.25764 16.7584 3.75255 16.1382 3.75255C15.5118 3.75255 15.0169 3.25764 15.0169 2.6249C15.0169 2.14252 15.0169 1.66014 15.0169 1.1715C15.0169 0.638998 15.2862 0.250587 15.7749 0.0563821C15.8062 0.0438528 15.8563 0.0626468 15.8626 0C16.038 0 16.2259 0 16.4139 0Z" fill="#16A7E1"/>
<path d="M10.5126 5.99528C13.9268 5.99528 17.3411 5.99528 20.7553 5.98901C20.9746 5.98901 21.0184 6.0454 21.0184 6.2584C21.0122 9.59747 21.0122 12.9303 21.0184 16.2694C21.0184 16.4636 20.9746 16.5137 20.7804 16.5074C19.778 16.4949 18.7819 16.5012 17.7796 16.5012C16.558 16.5012 15.7624 17.2968 15.7624 18.5246C15.7624 19.5333 15.7561 20.5419 15.7686 21.5505C15.7686 21.7134 15.7373 21.7572 15.5682 21.7572C11.0075 21.751 6.44051 21.7572 1.87982 21.751C0.839886 21.751 0.012948 20.9178 0.012948 19.8716C0.012948 15.3171 0.012948 10.7627 0.00668335 6.20828C0.00668335 6.0266 0.0568008 5.99528 0.225947 5.99528C3.65273 6.00154 7.07951 5.99528 10.5126 5.99528ZM14.2588 13.5066C14.2588 13.2623 14.2651 13.0243 14.2588 12.7799C14.2526 12.3351 13.9393 12.0156 13.4945 12.0031C13.0059 11.9968 12.511 11.9906 12.0223 12.0031C11.5838 12.0094 11.2706 12.3226 11.2643 12.7611C11.2518 13.2498 11.2581 13.7447 11.2643 14.2333C11.2706 14.6781 11.5963 14.9914 12.0411 14.9976C12.5235 15.0039 13.0059 15.0039 13.4945 14.9976C13.9393 14.9914 14.2588 14.6719 14.2651 14.2271C14.2588 13.989 14.2588 13.7447 14.2588 13.5066ZM12.7678 16.5012C12.5173 16.5012 12.2667 16.4949 12.0223 16.5012C11.5901 16.5137 11.2706 16.8206 11.2643 17.2529C11.2518 17.7416 11.2581 18.2365 11.2643 18.7251C11.2706 19.1762 11.5838 19.4831 12.0349 19.4894C12.5173 19.4957 12.9996 19.4957 13.482 19.4894C13.9393 19.4831 14.2526 19.1574 14.2588 18.7001C14.2651 18.2239 14.2651 17.7478 14.2588 17.2717C14.2526 16.8144 13.9331 16.5012 13.4758 16.4949C13.2377 16.5012 13.0059 16.5012 12.7678 16.5012ZM2.2557 8.97727C2.2557 9.22785 2.24944 9.47844 2.2557 9.72903C2.26823 10.1738 2.58147 10.4933 3.02626 10.4996C3.50864 10.5059 3.99729 10.5059 4.47967 10.4996C4.93072 10.4933 5.24396 10.1801 5.25022 9.72903C5.25649 9.24665 5.25649 8.758 5.25022 8.27562C5.24396 7.82457 4.92446 7.51133 4.47967 7.50507C3.99729 7.4988 3.50864 7.4988 3.02626 7.50507C2.58147 7.51133 2.26823 7.83083 2.2557 8.27562C2.24944 8.50742 2.2557 8.74547 2.2557 8.97727ZM8.26353 7.4988C8.01921 7.4988 7.78116 7.49254 7.53683 7.4988C7.07951 7.50507 6.76001 7.82457 6.75375 8.28189C6.74748 8.758 6.74748 9.23412 6.75375 9.71024C6.76001 10.1676 7.07325 10.4933 7.53057 10.4996C8.01295 10.5059 8.49533 10.5059 8.98397 10.4996C9.42877 10.4933 9.74826 10.1801 9.75453 9.72903C9.76079 9.24665 9.76079 8.76427 9.75453 8.27562C9.74826 7.8183 9.42877 7.50507 8.96518 7.4988C8.73339 7.4988 8.50159 7.4988 8.26353 7.4988ZM14.2588 9.02112C14.2588 8.7768 14.2588 8.53874 14.2588 8.29442C14.2526 7.83083 13.9456 7.51133 13.4883 7.4988C13.0059 7.49254 12.5235 7.49254 12.0349 7.4988C11.5901 7.50507 11.2706 7.8183 11.2581 8.26309C11.2518 8.75174 11.2455 9.24665 11.2581 9.73529C11.2643 10.1613 11.5713 10.4808 11.991 10.4933C12.4985 10.5059 13.0059 10.5059 13.5133 10.4933C13.9456 10.4808 14.2463 10.155 14.2526 9.7165C14.2588 9.49097 14.2588 9.25291 14.2588 9.02112ZM15.7561 8.98353C15.7561 9.22785 15.7561 9.46591 15.7561 9.71024C15.7624 10.1676 16.0756 10.4933 16.5329 10.4996C17.0153 10.5059 17.4977 10.5059 17.9863 10.4996C18.4249 10.4933 18.7443 10.1864 18.7569 9.75409C18.7694 9.25291 18.7694 8.758 18.7569 8.25683C18.7443 7.82457 18.4311 7.51133 17.9926 7.50507C17.5039 7.4988 17.009 7.4988 16.5204 7.50507C16.0756 7.51133 15.7686 7.8371 15.7624 8.28815C15.7561 8.51995 15.7561 8.75174 15.7561 8.98353ZM2.2557 13.4878C2.2557 13.7384 2.24944 13.989 2.2557 14.2333C2.26823 14.6656 2.58147 14.9851 3.01373 14.9914C3.50238 14.9976 3.99729 14.9976 4.48593 14.9914C4.92446 14.9851 5.23769 14.6781 5.25022 14.2396C5.26275 13.7384 5.26275 13.2435 5.25022 12.7423C5.23769 12.3101 4.92446 12.0031 4.48593 11.9906C3.99729 11.9843 3.50238 11.9781 3.01373 11.9906C2.58147 12.0031 2.2745 12.3163 2.2557 12.7486C2.24944 13.0055 2.2557 13.2498 2.2557 13.4878ZM9.75453 13.5004C9.75453 13.256 9.76079 13.018 9.75453 12.7737C9.742 12.3289 9.42877 12.0094 8.98397 12.0031C8.50159 11.9968 8.01921 11.9968 7.53057 12.0031C7.07325 12.0094 6.76001 12.3351 6.75375 12.7925C6.74748 13.2686 6.74748 13.7447 6.75375 14.2208C6.76001 14.6781 7.07951 14.9976 7.53683 15.0039C8.01295 15.0102 8.48906 15.0102 8.96518 15.0039C9.42877 14.9976 9.742 14.6844 9.75453 14.2271C9.76079 13.9827 9.75453 13.7384 9.75453 13.5004ZM17.2471 15.0039C17.4914 15.0039 17.7295 15.0102 17.9738 15.0039C18.4249 14.9976 18.7506 14.6907 18.7569 14.2459C18.7694 13.7447 18.7694 13.2498 18.7569 12.7486C18.7443 12.3226 18.4311 12.0156 18.0114 12.0031C17.5102 11.9906 17.0153 11.9906 16.5141 12.0031C16.0819 12.0156 15.7686 12.3351 15.7624 12.7674C15.7561 13.2498 15.7561 13.7322 15.7624 14.2145C15.7686 14.6719 16.0881 14.9851 16.5454 14.9976C16.7772 15.0039 17.009 15.0039 17.2471 15.0039ZM2.2557 18.0109C2.2557 18.2427 2.24944 18.4808 2.2557 18.7126C2.26823 19.1762 2.5752 19.4894 3.03879 19.4957C3.51491 19.5019 3.99102 19.5019 4.46714 19.4957C4.93072 19.4894 5.24396 19.1762 5.25022 18.7126C5.25649 18.2365 5.25649 17.7604 5.25022 17.2842C5.24396 16.8269 4.92446 16.5074 4.46714 16.5012C3.99102 16.4949 3.51491 16.4949 3.03879 16.5012C2.58147 16.5074 2.26197 16.8269 2.2557 17.2842C2.2557 17.5286 2.2557 17.7729 2.2557 18.0109ZM8.23221 19.5019C8.47653 19.5019 8.71459 19.5082 8.95891 19.5019C9.43503 19.4957 9.74826 19.1824 9.75453 18.7063C9.76079 18.2365 9.76079 17.7666 9.75453 17.303C9.74826 16.8269 9.43503 16.5137 8.95891 16.5074C8.48906 16.5012 8.01921 16.5012 7.55563 16.5074C7.07951 16.5137 6.76628 16.8269 6.76001 17.303C6.75375 17.7729 6.75375 18.2427 6.76001 18.7063C6.76628 19.1762 7.07951 19.4957 7.55563 19.5019C7.78115 19.5019 8.00668 19.5019 8.23221 19.5019Z" fill="#16A7E1"/>
<path d="M10.4875 5.24992C7.07325 5.24992 3.659 5.24992 0.244745 5.25618C0.0568041 5.25618 -0.0058427 5.22486 0.000421985 5.02439C0.019216 4.4731 0.00668667 3.91554 0.00668667 3.35799C0.0129514 2.33058 0.83989 1.5099 1.87356 1.50364C2.19933 1.50364 2.53135 1.5099 2.85712 1.49738C2.98241 1.49111 3.01373 1.5287 3.01373 1.65399C3.02 2.07999 2.97615 2.51225 3.04506 2.93825C3.19541 3.82157 3.98476 4.49816 4.88061 4.49816C5.77646 4.49816 6.57207 3.81531 6.71616 2.93825C6.78507 2.51225 6.74122 2.07999 6.75375 1.65399C6.75375 1.53496 6.78507 1.49738 6.91037 1.49738C9.30974 1.50364 11.7091 1.50364 14.1022 1.49738C14.2463 1.49738 14.2588 1.55376 14.2651 1.67279C14.2714 2.09878 14.2275 2.53105 14.3027 2.95705C14.4468 3.82157 15.2424 4.49816 16.132 4.49816C17.0278 4.50442 17.8297 3.82157 17.9738 2.94452C18.0427 2.52478 18.0051 2.10505 18.0114 1.67905C18.0114 1.54749 18.0302 1.48485 18.1868 1.49111C18.6379 1.52243 19.0952 1.44099 19.54 1.54123C20.3982 1.7229 21.0122 2.47467 21.0184 3.34546C21.0247 3.90928 21.0122 4.4731 21.0247 5.03066C21.031 5.20607 20.9808 5.24366 20.8117 5.24366C17.3599 5.24992 13.9205 5.24992 10.4875 5.24992ZM10.5188 3.37678C9.77959 3.37678 9.03409 3.37678 8.29486 3.37678C8.15704 3.37678 8.01295 3.37052 7.87513 3.37678C7.6496 3.38931 7.51178 3.5334 7.51178 3.75266C7.51178 3.9594 7.63707 4.09722 7.85633 4.12228C7.91898 4.12854 7.98163 4.12854 8.04427 4.12854C9.69189 4.12854 11.3395 4.12854 12.9871 4.12854C13.0873 4.12854 13.1876 4.13481 13.2878 4.09722C13.4444 4.03457 13.5196 3.91554 13.5133 3.75266C13.5133 3.58978 13.4382 3.47075 13.2815 3.4081C13.2001 3.37678 13.1124 3.37678 13.031 3.37678C12.1852 3.37678 11.352 3.37678 10.5188 3.37678Z" fill="#16A7E1"/>
<path d="M0.00668335 21.6946C0.645681 22.3211 1.37865 22.5091 2.19932 22.5091C6.77881 22.4965 11.352 22.5028 15.9315 22.5091C16.3826 22.5091 16.7397 22.3712 17.0591 22.0455C18.3058 20.7863 19.565 19.5333 20.818 18.2804C20.8681 18.2303 20.9182 18.1676 20.9746 18.105C21.0372 18.1864 21.0122 18.2491 21.0122 18.3055C21.0122 19.5709 21.0122 20.8364 21.0122 22.1018C21.0122 23.1794 20.1915 24 19.1202 24C13.388 24 7.65586 24 1.92368 24C0.833622 24 0.0192127 23.1856 0.012948 22.0956C0.00668335 21.9828 0.00668335 21.8638 0.00668335 21.6946Z" fill="#16A7E1"/>
<path d="M16.5079 21.4816C16.5079 21.0243 16.5079 20.5607 16.5079 20.0971C16.5079 19.5145 16.5016 18.9256 16.5079 18.343C16.5141 17.7478 16.984 17.2655 17.5729 17.2592C18.6128 17.2529 19.6465 17.2529 20.6864 17.2529C20.7052 17.2529 20.7303 17.2592 20.7303 17.2592C19.327 18.6625 17.9174 20.0658 16.5079 21.4816Z" fill="#16A7E1"/>
<path d="M13.5008 13.2833C13.5008 13.5214 13.5948 13.8471 13.4758 13.985C13.338 14.1416 13.0059 14.0288 12.7616 14.0288C12.5173 14.0288 12.1853 14.1353 12.0474 13.985C11.9284 13.8471 12.0161 13.5276 12.0161 13.2833C12.0161 13.0452 11.9284 12.7195 12.0537 12.5817C12.1915 12.425 12.5236 12.5378 12.7679 12.5378C13.0122 12.5378 13.3442 12.4313 13.482 12.5817C13.5948 12.7195 13.5008 13.0452 13.5008 13.2833Z" fill="#16A7E1"/>
<path d="M12.7553 17.2467C12.9996 17.2718 13.3317 17.1465 13.4695 17.2968C13.5885 17.4347 13.5008 17.7542 13.5008 17.9985C13.5008 18.2365 13.5885 18.5623 13.4632 18.7001C13.3254 18.8567 12.9934 18.744 12.7491 18.744C12.5047 18.744 12.1727 18.8505 12.0349 18.7001C11.9158 18.5623 12.0036 18.2428 12.0036 17.9985C12.0036 17.7604 11.9158 17.4347 12.0411 17.2968C12.179 17.1465 12.511 17.2718 12.7553 17.2467Z" fill="#16A7E1"/>
<path d="M3.02 8.78521C3.02 8.54715 2.92603 8.22139 3.04506 8.08357C3.18288 7.92695 3.51491 8.03971 3.75923 8.03345C3.99729 8.02718 4.32305 7.94574 4.46088 8.06477C4.61749 8.2026 4.50473 8.53462 4.50473 8.77895C4.51099 9.017 4.59244 9.34277 4.47341 9.48059C4.33558 9.63721 4.00356 9.52444 3.75923 9.53071C3.52117 9.53697 3.19541 9.61841 3.05759 9.49939C2.90097 9.36156 3.02626 9.02953 3.02 8.78521Z" fill="#16A7E1"/>
<path d="M8.27605 9.53071C8.07558 9.53071 7.86885 9.52444 7.66838 9.53071C7.56188 9.53697 7.49923 9.51818 7.5055 9.38662C7.51802 8.97941 7.51176 8.57221 7.5055 8.17127C7.5055 8.05224 7.54935 8.03345 7.65585 8.03345C8.06305 8.03971 8.47026 8.03971 8.8712 8.03345C8.99023 8.03345 9.00902 8.0773 9.00902 8.1838C9.00275 8.591 9.00275 8.99821 9.00902 9.39915C9.00902 9.51818 8.96517 9.54324 8.85867 9.53697C8.66446 9.53071 8.47026 9.53071 8.27605 9.53071Z" fill="#16A7E1"/>
<path d="M12.7616 8.04618C12.9996 8.04618 13.3254 7.95221 13.4632 8.07124C13.6198 8.20907 13.5071 8.54109 13.5071 8.78542C13.5133 9.02347 13.5948 9.34924 13.4758 9.48706C13.3379 9.63741 13.0059 9.52465 12.7616 9.53091C12.5235 9.53718 12.1978 9.61862 12.0599 9.49959C11.9033 9.36177 12.0161 9.02974 12.0161 8.78542C12.0098 8.54736 11.9284 8.2216 12.0474 8.08377C12.1852 7.92716 12.511 8.05245 12.7616 8.04618Z" fill="#16A7E1"/>
<path d="M18.0051 8.76641C18.0051 8.96688 17.9988 9.17362 18.0051 9.37409C18.0114 9.48685 17.9926 9.54324 17.8548 9.53697C17.4476 9.52444 17.0404 9.53071 16.6394 9.53697C16.5204 9.53697 16.5016 9.49312 16.5016 9.38662C16.5079 8.97941 16.5079 8.57221 16.5016 8.17127C16.5016 8.05224 16.5454 8.03345 16.6519 8.03345C17.0591 8.03971 17.4663 8.03971 17.8673 8.03345C17.9863 8.03345 18.0114 8.0773 18.0051 8.1838C18.0051 8.37174 18.0051 8.57221 18.0051 8.76641Z" fill="#16A7E1"/>
<path d="M4.49847 13.2834C4.49847 13.5215 4.59244 13.8472 4.47341 13.9851C4.33559 14.1354 4.00356 14.0226 3.75924 14.0289C3.52118 14.0352 3.19542 14.1166 3.05759 13.9976C2.90724 13.8598 3.02001 13.5277 3.01374 13.2834C3.00748 13.0454 2.92604 12.7196 3.04507 12.5818C3.18289 12.4314 3.51492 12.5442 3.75924 12.5379C3.9973 12.5316 4.32306 12.4502 4.46088 12.5692C4.61124 12.7071 4.48594 13.0391 4.49847 13.2834Z" fill="#16A7E1"/>
<path d="M7.51801 13.2833C7.51801 13.0452 7.42404 12.7195 7.54307 12.5817C7.68089 12.425 8.01292 12.5378 8.25724 12.5378C8.50157 12.5378 8.8336 12.4313 8.97142 12.5817C9.09045 12.7195 9.00274 13.039 9.00274 13.2833C9.00274 13.5214 9.09045 13.8471 8.97142 13.985C8.8336 14.1416 8.50157 14.0288 8.25724 14.0288C8.01292 14.0288 7.68089 14.1353 7.54307 13.985C7.42404 13.8471 7.51801 13.5276 7.51801 13.2833Z" fill="#16A7E1"/>
<path d="M16.5204 13.4752C16.5329 13.2372 16.4014 12.9177 16.558 12.7799C16.6895 12.6608 17.0028 12.7423 17.2346 12.7485C17.4914 12.7548 17.8297 12.6358 17.9738 12.7986C18.0991 12.9365 18.0114 13.2748 18.0051 13.5191C17.9989 13.7571 18.1116 14.0766 17.9613 14.2145C17.8297 14.3335 17.5165 14.2521 17.2847 14.2458C17.0278 14.2395 16.6895 14.3586 16.5455 14.1957C16.4202 14.0641 16.5204 13.7258 16.5204 13.4752Z" fill="#16A7E1"/>
<path d="M3.7655 17.253C3.96597 17.253 4.1727 17.2592 4.37317 17.253C4.47341 17.2467 4.50473 17.278 4.50473 17.3845C4.49846 17.798 4.49846 18.2115 4.50473 18.6249C4.50473 18.7252 4.47967 18.7565 4.37317 18.7565C3.9597 18.7502 3.54623 18.7502 3.13276 18.7565C3.03253 18.7565 3.00121 18.7314 3.00121 18.6249C3.00747 18.2115 3.00747 17.798 3.00121 17.3845C3.00121 17.2843 3.02626 17.2467 3.13276 17.253C3.34576 17.2592 3.55876 17.253 3.7655 17.253Z" fill="#16A7E1"/>
<path d="M8.25728 18.7565C8.01295 18.7314 7.68093 18.8567 7.5431 18.7064C7.42407 18.5686 7.51178 18.2491 7.51178 18.0047C7.51178 17.7667 7.42407 17.4409 7.5431 17.3031C7.68093 17.1465 8.01295 17.2592 8.25728 17.2592C8.5016 17.2592 8.83363 17.1527 8.97145 17.3031C9.09048 17.4409 9.00277 17.7604 9.00277 18.0047C9.00277 18.2428 9.09048 18.5686 8.97145 18.7064C8.83363 18.8567 8.5016 18.7314 8.25728 18.7565Z" fill="#16A7E1"/>
</svg>
