<svg width="17" height="17" viewBox="0 0 17 17" fill="none" xmlns="http://www.w3.org/2000/svg">
<mask id="path-1-inside-1_1163_25486" fill="white">
<path d="M13.5161 16.9988C10.8902 16.8921 8.45843 16.145 6.26935 14.6848C3.23571 12.6522 1.27962 9.85314 0.396227 6.31184C0.143829 5.31737 0.0418983 4.30349 0.00306768 3.27992C-0.060032 1.6451 0.85734 0.733095 2.10477 0.272242C2.47366 0.136411 2.85226 0.0296874 3.24542 0.00543202C3.86186 -0.0333767 4.40063 0.13156 4.79864 0.636073C5.36169 1.35403 5.93444 2.06229 6.49263 2.7851C7.0945 3.56128 7.0314 4.62367 6.35187 5.33192C6.08976 5.60844 5.83251 5.8898 5.56069 6.15661C5.45876 6.25848 5.43449 6.3555 5.45876 6.49618C5.59952 7.2481 5.96842 7.8836 6.43438 8.47058C7.41485 9.71246 8.60889 10.6972 10.0747 11.3182C10.6863 11.5801 10.6912 11.5753 11.1669 11.1144C11.3367 10.9495 11.5115 10.7894 11.6814 10.6293C12.3803 9.96956 13.4287 9.90165 14.1859 10.4838C14.9674 11.0853 15.744 11.6917 16.5012 12.3223C16.8847 12.6425 17.0254 13.1131 16.9963 13.5982C16.9429 14.5199 16.6517 15.3688 16.0352 16.0819C15.5159 16.6835 14.8412 16.96 14.0549 16.9939C13.8801 17.0036 13.7006 16.9988 13.5161 16.9988ZM13.72 16.2081C13.7976 16.2081 13.8753 16.2081 13.9578 16.2081C14.715 16.2129 15.2975 15.8927 15.7003 15.2572C15.9916 14.7964 16.1517 14.287 16.2294 13.7534C16.2779 13.409 16.2245 13.0743 15.9236 12.8366C15.2101 12.2738 14.4966 11.716 13.7831 11.1581C13.2783 10.7651 12.6764 10.7991 12.2056 11.2405C11.861 11.5656 11.5163 11.8857 11.1717 12.2108C11.0552 12.3223 10.9242 12.3854 10.764 12.3514C10.4873 12.2932 10.2107 12.2253 9.94855 12.1186C7.99246 11.323 6.46836 10.0181 5.33742 8.24743C4.97824 7.6847 4.7404 7.06861 4.66274 6.39431C4.63361 6.14691 4.6773 5.95286 4.86174 5.77337C5.17724 5.4629 5.47333 5.13788 5.77912 4.81771C6.22081 4.35201 6.24994 3.74562 5.85192 3.24111C5.30344 2.54255 4.74525 1.84884 4.20162 1.15029C4.0463 0.946543 3.84244 0.84467 3.6046 0.820414C2.97846 0.752499 2.41542 0.961096 1.87664 1.24731C1.15828 1.63055 0.799094 2.23693 0.794241 3.05677C0.789387 3.95907 0.876756 4.85652 1.06605 5.73942C1.58056 8.16981 2.67752 10.2994 4.39578 12.0992C6.92947 14.743 10.0553 16.0868 13.72 16.2081Z"/>
</mask>
<path d="M13.5161 16.9988C10.8902 16.8921 8.45843 16.145 6.26935 14.6848C3.23571 12.6522 1.27962 9.85314 0.396227 6.31184C0.143829 5.31737 0.0418983 4.30349 0.00306768 3.27992C-0.060032 1.6451 0.85734 0.733095 2.10477 0.272242C2.47366 0.136411 2.85226 0.0296874 3.24542 0.00543202C3.86186 -0.0333767 4.40063 0.13156 4.79864 0.636073C5.36169 1.35403 5.93444 2.06229 6.49263 2.7851C7.0945 3.56128 7.0314 4.62367 6.35187 5.33192C6.08976 5.60844 5.83251 5.8898 5.56069 6.15661C5.45876 6.25848 5.43449 6.3555 5.45876 6.49618C5.59952 7.2481 5.96842 7.8836 6.43438 8.47058C7.41485 9.71246 8.60889 10.6972 10.0747 11.3182C10.6863 11.5801 10.6912 11.5753 11.1669 11.1144C11.3367 10.9495 11.5115 10.7894 11.6814 10.6293C12.3803 9.96956 13.4287 9.90165 14.1859 10.4838C14.9674 11.0853 15.744 11.6917 16.5012 12.3223C16.8847 12.6425 17.0254 13.1131 16.9963 13.5982C16.9429 14.5199 16.6517 15.3688 16.0352 16.0819C15.5159 16.6835 14.8412 16.96 14.0549 16.9939C13.8801 17.0036 13.7006 16.9988 13.5161 16.9988ZM13.72 16.2081C13.7976 16.2081 13.8753 16.2081 13.9578 16.2081C14.715 16.2129 15.2975 15.8927 15.7003 15.2572C15.9916 14.7964 16.1517 14.287 16.2294 13.7534C16.2779 13.409 16.2245 13.0743 15.9236 12.8366C15.2101 12.2738 14.4966 11.716 13.7831 11.1581C13.2783 10.7651 12.6764 10.7991 12.2056 11.2405C11.861 11.5656 11.5163 11.8857 11.1717 12.2108C11.0552 12.3223 10.9242 12.3854 10.764 12.3514C10.4873 12.2932 10.2107 12.2253 9.94855 12.1186C7.99246 11.323 6.46836 10.0181 5.33742 8.24743C4.97824 7.6847 4.7404 7.06861 4.66274 6.39431C4.63361 6.14691 4.6773 5.95286 4.86174 5.77337C5.17724 5.4629 5.47333 5.13788 5.77912 4.81771C6.22081 4.35201 6.24994 3.74562 5.85192 3.24111C5.30344 2.54255 4.74525 1.84884 4.20162 1.15029C4.0463 0.946543 3.84244 0.84467 3.6046 0.820414C2.97846 0.752499 2.41542 0.961096 1.87664 1.24731C1.15828 1.63055 0.799094 2.23693 0.794241 3.05677C0.789387 3.95907 0.876756 4.85652 1.06605 5.73942C1.58056 8.16981 2.67752 10.2994 4.39578 12.0992C6.92947 14.743 10.0553 16.0868 13.72 16.2081Z" fill="#16A7E1"/>
<path d="M13.5161 16.9988L13.4755 17.998L13.4958 17.9988H13.5161V16.9988ZM6.26935 14.6848L5.71272 15.5156L5.71444 15.5167L6.26935 14.6848ZM0.396227 6.31184L1.3665 6.0698L1.3655 6.06584L0.396227 6.31184ZM0.00306768 3.27992L1.00235 3.24201L1.00232 3.24135L0.00306768 3.27992ZM2.10477 0.272242L1.75924 -0.666165L1.75822 -0.66579L2.10477 0.272242ZM3.24542 0.00543202L3.307 1.00354L3.30825 1.00346L3.24542 0.00543202ZM4.79864 0.636073L5.58553 0.0189735L5.58374 0.0167034L4.79864 0.636073ZM6.49263 2.7851L5.70116 3.39632L5.70238 3.39789L6.49263 2.7851ZM6.35187 5.33192L5.63027 4.63959L5.62611 4.64398L6.35187 5.33192ZM5.56069 6.15661L4.86016 5.44293L4.85379 5.4493L5.56069 6.15661ZM5.45876 6.49618L4.47332 6.66618L4.47453 6.6732L4.47584 6.68019L5.45876 6.49618ZM6.43438 8.47058L7.21925 7.85091L7.2176 7.84883L6.43438 8.47058ZM10.0747 11.3182L10.4685 10.3989L10.4648 10.3974L10.0747 11.3182ZM11.1669 11.1144L11.8627 11.8326L11.8634 11.8319L11.1669 11.1144ZM11.6814 10.6293L12.3672 11.3571L12.3678 11.3565L11.6814 10.6293ZM14.1859 10.4838L14.7959 9.69135L14.7954 9.69099L14.1859 10.4838ZM16.5012 12.3223L17.1421 11.5547L17.1412 11.5539L16.5012 12.3223ZM16.9963 13.5982L15.9981 13.5382L15.998 13.5403L16.9963 13.5982ZM16.0352 16.0819L15.2787 15.428L15.2783 15.4284L16.0352 16.0819ZM14.0549 16.9939L14.0117 15.9948L13.9994 15.9955L14.0549 16.9939ZM13.72 16.2081L13.6869 17.2075L13.7034 17.2081H13.72V16.2081ZM13.9578 16.2081L13.9642 15.2081H13.9578V16.2081ZM15.7003 15.2572L16.5449 15.7927L16.5457 15.7915L15.7003 15.2572ZM16.2294 13.7534L17.219 13.8974L17.2196 13.893L16.2294 13.7534ZM15.9236 12.8366L16.5434 12.0518L16.5429 12.0514L15.9236 12.8366ZM13.7831 11.1581L14.399 10.3703L14.3973 10.369L13.7831 11.1581ZM12.2056 11.2405L11.5216 10.511L11.5195 10.5131L12.2056 11.2405ZM11.1717 12.2108L10.4856 11.4833L10.48 11.4886L11.1717 12.2108ZM10.764 12.3514L10.9714 11.3732L10.9699 11.3729L10.764 12.3514ZM9.94855 12.1186L10.3257 11.1924L10.3253 11.1923L9.94855 12.1186ZM5.33742 8.24743L4.49449 8.78546L4.49466 8.78571L5.33742 8.24743ZM4.66274 6.39431L5.65617 6.2799L5.65588 6.27741L4.66274 6.39431ZM4.86174 5.77337L5.55917 6.49005L5.56315 6.48614L4.86174 5.77337ZM5.77912 4.81771L6.50228 5.50839L6.50468 5.50587L5.77912 4.81771ZM5.85192 3.24111L5.06539 3.85866L5.06682 3.86048L5.85192 3.24111ZM4.20162 1.15029L3.40632 1.75658L3.41244 1.76444L4.20162 1.15029ZM3.6046 0.820414L3.49677 1.8146L3.50315 1.81525L3.6046 0.820414ZM1.87664 1.24731L1.4075 0.364186L1.40595 0.365012L1.87664 1.24731ZM0.794241 3.05677L-0.205742 3.05084L-0.205745 3.05139L0.794241 3.05677ZM1.06605 5.73942L2.04438 5.53231L2.04383 5.52977L1.06605 5.73942ZM4.39578 12.0992L3.67248 12.7897L3.67379 12.7911L4.39578 12.0992ZM13.5567 15.9996C11.1029 15.8999 8.8513 15.205 6.82426 13.8529L5.71444 15.5167C8.06555 17.085 10.6774 17.8842 13.4755 17.998L13.5567 15.9996ZM6.82598 13.8541C3.99993 11.9605 2.19025 9.37202 1.36649 6.06981L-0.574039 6.55388C0.368995 10.3343 2.47149 13.3439 5.71272 15.5156L6.82598 13.8541ZM1.3655 6.06584C1.13675 5.16455 1.03972 4.22704 1.00235 3.24201L-0.996213 3.31782C-0.955921 4.37995 -0.849091 5.47019 -0.573042 6.55785L1.3655 6.06584ZM1.00232 3.24135C0.978797 2.63182 1.13519 2.23106 1.35471 1.94605C1.58561 1.64628 1.94796 1.39623 2.45132 1.21027L1.75822 -0.66579C1.01415 -0.390898 0.294102 0.0454889 -0.229768 0.725631C-0.765016 1.42055 -1.03576 2.2932 -0.996188 3.31848L1.00232 3.24135ZM2.45031 1.21065C2.77573 1.09082 3.05118 1.01932 3.307 1.00353L3.18384 -0.99267C2.65334 -0.959942 2.1716 -0.818001 1.75924 -0.666165L2.45031 1.21065ZM3.30825 1.00346C3.68658 0.979638 3.86877 1.07193 4.01355 1.25544L5.58374 0.0167034C4.93249 -0.808805 4.03713 -1.04639 3.18259 -0.992592L3.30825 1.00346ZM4.01176 1.25317C4.59056 1.99122 5.14258 2.673 5.70116 3.39631L7.2841 2.17389C6.7263 1.45159 6.13282 0.716848 5.58553 0.0189761L4.01176 1.25317ZM5.70238 3.39789C5.99621 3.77682 5.97121 4.28426 5.63028 4.6396L7.07345 6.02425C8.09159 4.96308 8.19279 3.34574 7.28288 2.17232L5.70238 3.39789ZM5.62611 4.64398C5.34747 4.93792 5.11486 5.19298 4.86019 5.44296L6.2612 6.87025C6.55016 6.58662 6.83205 6.27895 7.07763 6.01987L5.62611 4.64398ZM4.85379 5.4493C4.71546 5.58755 4.57562 5.77853 4.50173 6.03416C4.42994 6.28253 4.44565 6.50581 4.47332 6.66618L6.44421 6.32619C6.44761 6.34588 6.46332 6.45031 6.42308 6.58953C6.38074 6.73601 6.304 6.82754 6.2676 6.86392L4.85379 5.4493ZM4.47584 6.68019C4.65744 7.65027 5.12862 8.43408 5.65116 9.09232L7.2176 7.84883C6.80821 7.33312 6.54161 6.84594 6.44169 6.31218L4.47584 6.68019ZM5.64951 9.09024C6.71765 10.4432 8.04117 11.5428 9.6847 12.239L10.4648 10.3974C9.17661 9.85169 8.11206 8.98176 7.21925 7.85092L5.64951 9.09024ZM9.68102 12.2374C9.81734 12.2958 9.98555 12.3687 10.1397 12.4166C10.3065 12.4684 10.5607 12.5264 10.8586 12.4697C11.1554 12.4133 11.3698 12.2669 11.504 12.1601C11.6282 12.0614 11.7582 11.9338 11.8627 11.8326L10.471 10.3962C10.441 10.4253 10.4146 10.4509 10.39 10.4745C10.3656 10.498 10.3447 10.5179 10.3261 10.5352C10.3076 10.5525 10.293 10.5657 10.2813 10.576C10.2696 10.5864 10.2625 10.5922 10.259 10.5949C10.2556 10.5976 10.2578 10.5957 10.2648 10.5909C10.2719 10.5861 10.2854 10.5774 10.3048 10.5672C10.3244 10.5567 10.35 10.5447 10.3812 10.5334C10.4128 10.5219 10.4475 10.5121 10.485 10.505C10.5224 10.4978 10.5585 10.4942 10.5924 10.4933C10.626 10.4924 10.6547 10.4942 10.6773 10.4968C10.6996 10.4994 10.7159 10.5026 10.7249 10.5047C10.7337 10.5067 10.737 10.5078 10.7333 10.5067C10.7297 10.5056 10.7214 10.5029 10.7072 10.4976C10.693 10.4924 10.675 10.4855 10.6518 10.4761C10.6287 10.4668 10.6023 10.4559 10.5714 10.4428C10.5404 10.4297 10.5067 10.4153 10.4685 10.3989L9.68102 12.2374ZM11.8634 11.8319C12.0269 11.6732 12.1829 11.5307 12.3672 11.3571L10.9956 9.90153C10.84 10.0481 10.6466 10.2258 10.4703 10.3969L11.8634 11.8319ZM12.3678 11.3565C12.7216 11.0225 13.2217 11.0039 13.5764 11.2766L14.7954 9.69099C13.6358 8.79943 12.039 8.91658 10.9949 9.9021L12.3678 11.3565ZM13.576 11.2762C14.3548 11.8757 15.1192 12.4727 15.8612 13.0907L17.1412 11.5539C16.3688 10.9107 15.58 10.2949 14.7959 9.69135L13.576 11.2762ZM15.8603 13.0899C15.937 13.154 16.0137 13.278 15.9981 13.5382L17.9945 13.6581C18.0371 12.9481 17.8323 12.131 17.1421 11.5547L15.8603 13.0899ZM15.998 13.5403C15.9551 14.2799 15.7281 14.908 15.2787 15.428L16.7918 16.7359C17.5752 15.8296 17.9307 14.7598 17.9946 13.656L15.998 13.5403ZM15.2783 15.4284C14.9666 15.7895 14.5677 15.9709 14.0117 15.9949L14.098 17.993C15.1147 17.9491 16.0652 17.5774 16.7922 16.7354L15.2783 15.4284ZM13.9994 15.9955C13.8616 16.0031 13.7375 15.9988 13.5161 15.9988V17.9988C13.6636 17.9988 13.8987 18.0041 14.1103 17.9924L13.9994 15.9955ZM13.72 17.2081C13.7201 17.2081 13.7203 17.2081 13.7204 17.2081C13.7206 17.2081 13.7207 17.2081 13.7209 17.2081C13.721 17.2081 13.7212 17.2081 13.7213 17.2081C13.7215 17.2081 13.7216 17.2081 13.7218 17.2081C13.7219 17.2081 13.7221 17.2081 13.7222 17.2081C13.7224 17.2081 13.7225 17.2081 13.7227 17.2081C13.7229 17.2081 13.723 17.2081 13.7232 17.2081C13.7233 17.2081 13.7235 17.2081 13.7236 17.2081C13.7238 17.2081 13.7239 17.2081 13.7241 17.2081C13.7242 17.2081 13.7244 17.2081 13.7245 17.2081C13.7247 17.2081 13.7248 17.2081 13.725 17.2081C13.7251 17.2081 13.7253 17.2081 13.7254 17.2081C13.7256 17.2081 13.7257 17.2081 13.7259 17.2081C13.726 17.2081 13.7262 17.2081 13.7263 17.2081C13.7265 17.2081 13.7266 17.2081 13.7268 17.2081C13.7269 17.2081 13.7271 17.2081 13.7273 17.2081C13.7274 17.2081 13.7276 17.2081 13.7277 17.2081C13.7279 17.2081 13.728 17.2081 13.7282 17.2081C13.7283 17.2081 13.7285 17.2081 13.7286 17.2081C13.7288 17.2081 13.7289 17.2081 13.7291 17.2081C13.7292 17.2081 13.7294 17.2081 13.7295 17.2081C13.7297 17.2081 13.7298 17.2081 13.73 17.2081C13.7301 17.2081 13.7303 17.2081 13.7304 17.2081C13.7306 17.2081 13.7307 17.2081 13.7309 17.2081C13.731 17.2081 13.7312 17.2081 13.7313 17.2081C13.7315 17.2081 13.7317 17.2081 13.7318 17.2081C13.732 17.2081 13.7321 17.2081 13.7323 17.2081C13.7324 17.2081 13.7326 17.2081 13.7327 17.2081C13.7329 17.2081 13.733 17.2081 13.7332 17.2081C13.7333 17.2081 13.7335 17.2081 13.7336 17.2081C13.7338 17.2081 13.7339 17.2081 13.7341 17.2081C13.7342 17.2081 13.7344 17.2081 13.7345 17.2081C13.7347 17.2081 13.7348 17.2081 13.735 17.2081C13.7351 17.2081 13.7353 17.2081 13.7354 17.2081C13.7356 17.2081 13.7357 17.2081 13.7359 17.2081C13.736 17.2081 13.7362 17.2081 13.7364 17.2081C13.7365 17.2081 13.7367 17.2081 13.7368 17.2081C13.737 17.2081 13.7371 17.2081 13.7373 17.2081C13.7374 17.2081 13.7376 17.2081 13.7377 17.2081C13.7379 17.2081 13.738 17.2081 13.7382 17.2081C13.7383 17.2081 13.7385 17.2081 13.7386 17.2081C13.7388 17.2081 13.7389 17.2081 13.7391 17.2081C13.7392 17.2081 13.7394 17.2081 13.7395 17.2081C13.7397 17.2081 13.7398 17.2081 13.74 17.2081C13.7401 17.2081 13.7403 17.2081 13.7404 17.2081C13.7406 17.2081 13.7408 17.2081 13.7409 17.2081C13.7411 17.2081 13.7412 17.2081 13.7414 17.2081C13.7415 17.2081 13.7417 17.2081 13.7418 17.2081C13.742 17.2081 13.7421 17.2081 13.7423 17.2081C13.7424 17.2081 13.7426 17.2081 13.7427 17.2081C13.7429 17.2081 13.743 17.2081 13.7432 17.2081C13.7433 17.2081 13.7435 17.2081 13.7436 17.2081C13.7438 17.2081 13.7439 17.2081 13.7441 17.2081C13.7442 17.2081 13.7444 17.2081 13.7445 17.2081C13.7447 17.2081 13.7449 17.2081 13.745 17.2081C13.7452 17.2081 13.7453 17.2081 13.7455 17.2081C13.7456 17.2081 13.7458 17.2081 13.7459 17.2081C13.7461 17.2081 13.7462 17.2081 13.7464 17.2081C13.7465 17.2081 13.7467 17.2081 13.7468 17.2081C13.747 17.2081 13.7471 17.2081 13.7473 17.2081C13.7474 17.2081 13.7476 17.2081 13.7477 17.2081C13.7479 17.2081 13.748 17.2081 13.7482 17.2081C13.7483 17.2081 13.7485 17.2081 13.7486 17.2081C13.7488 17.2081 13.749 17.2081 13.7491 17.2081C13.7493 17.2081 13.7494 17.2081 13.7496 17.2081C13.7497 17.2081 13.7499 17.2081 13.75 17.2081C13.7502 17.2081 13.7503 17.2081 13.7505 17.2081C13.7506 17.2081 13.7508 17.2081 13.7509 17.2081C13.7511 17.2081 13.7512 17.2081 13.7514 17.2081C13.7515 17.2081 13.7517 17.2081 13.7518 17.2081C13.752 17.2081 13.7521 17.2081 13.7523 17.2081C13.7524 17.2081 13.7526 17.2081 13.7527 17.2081C13.7529 17.2081 13.753 17.2081 13.7532 17.2081C13.7534 17.2081 13.7535 17.2081 13.7537 17.2081C13.7538 17.2081 13.754 17.2081 13.7541 17.2081C13.7543 17.2081 13.7544 17.2081 13.7546 17.2081C13.7547 17.2081 13.7549 17.2081 13.755 17.2081C13.7552 17.2081 13.7553 17.2081 13.7555 17.2081C13.7556 17.2081 13.7558 17.2081 13.7559 17.2081C13.7561 17.2081 13.7562 17.2081 13.7564 17.2081C13.7565 17.2081 13.7567 17.2081 13.7568 17.2081C13.757 17.2081 13.7572 17.2081 13.7573 17.2081C13.7575 17.2081 13.7576 17.2081 13.7578 17.2081C13.7579 17.2081 13.7581 17.2081 13.7582 17.2081C13.7584 17.2081 13.7585 17.2081 13.7587 17.2081C13.7588 17.2081 13.759 17.2081 13.7591 17.2081C13.7593 17.2081 13.7594 17.2081 13.7596 17.2081C13.7597 17.2081 13.7599 17.2081 13.76 17.2081C13.7602 17.2081 13.7603 17.2081 13.7605 17.2081C13.7606 17.2081 13.7608 17.2081 13.761 17.2081C13.7611 17.2081 13.7613 17.2081 13.7614 17.2081C13.7616 17.2081 13.7617 17.2081 13.7619 17.2081C13.762 17.2081 13.7622 17.2081 13.7623 17.2081C13.7625 17.2081 13.7626 17.2081 13.7628 17.2081C13.7629 17.2081 13.7631 17.2081 13.7632 17.2081C13.7634 17.2081 13.7635 17.2081 13.7637 17.2081C13.7638 17.2081 13.764 17.2081 13.7641 17.2081C13.7643 17.2081 13.7644 17.2081 13.7646 17.2081C13.7648 17.2081 13.7649 17.2081 13.7651 17.2081C13.7652 17.2081 13.7654 17.2081 13.7655 17.2081C13.7657 17.2081 13.7658 17.2081 13.766 17.2081C13.7661 17.2081 13.7663 17.2081 13.7664 17.2081C13.7666 17.2081 13.7667 17.2081 13.7669 17.2081C13.767 17.2081 13.7672 17.2081 13.7673 17.2081C13.7675 17.2081 13.7676 17.2081 13.7678 17.2081C13.7679 17.2081 13.7681 17.2081 13.7682 17.2081C13.7684 17.2081 13.7686 17.2081 13.7687 17.2081C13.7689 17.2081 13.769 17.2081 13.7692 17.2081C13.7693 17.2081 13.7695 17.2081 13.7696 17.2081C13.7698 17.2081 13.7699 17.2081 13.7701 17.2081C13.7702 17.2081 13.7704 17.2081 13.7705 17.2081C13.7707 17.2081 13.7708 17.2081 13.771 17.2081C13.7711 17.2081 13.7713 17.2081 13.7714 17.2081C13.7716 17.2081 13.7717 17.2081 13.7719 17.2081C13.7721 17.2081 13.7722 17.2081 13.7724 17.2081C13.7725 17.2081 13.7727 17.2081 13.7728 17.2081C13.773 17.2081 13.7731 17.2081 13.7733 17.2081C13.7734 17.2081 13.7736 17.2081 13.7737 17.2081C13.7739 17.2081 13.774 17.2081 13.7742 17.2081C13.7743 17.2081 13.7745 17.2081 13.7746 17.2081C13.7748 17.2081 13.7749 17.2081 13.7751 17.2081C13.7752 17.2081 13.7754 17.2081 13.7756 17.2081C13.7757 17.2081 13.7759 17.2081 13.776 17.2081C13.7762 17.2081 13.7763 17.2081 13.7765 17.2081C13.7766 17.2081 13.7768 17.2081 13.7769 17.2081C13.7771 17.2081 13.7772 17.2081 13.7774 17.2081C13.7775 17.2081 13.7777 17.2081 13.7778 17.2081C13.778 17.2081 13.7781 17.2081 13.7783 17.2081C13.7784 17.2081 13.7786 17.2081 13.7787 17.2081C13.7789 17.2081 13.7791 17.2081 13.7792 17.2081C13.7794 17.2081 13.7795 17.2081 13.7797 17.2081C13.7798 17.2081 13.78 17.2081 13.7801 17.2081C13.7803 17.2081 13.7804 17.2081 13.7806 17.2081C13.7807 17.2081 13.7809 17.2081 13.781 17.2081C13.7812 17.2081 13.7813 17.2081 13.7815 17.2081C13.7816 17.2081 13.7818 17.2081 13.7819 17.2081C13.7821 17.2081 13.7823 17.2081 13.7824 17.2081C13.7826 17.2081 13.7827 17.2081 13.7829 17.2081C13.783 17.2081 13.7832 17.2081 13.7833 17.2081C13.7835 17.2081 13.7836 17.2081 13.7838 17.2081C13.7839 17.2081 13.7841 17.2081 13.7842 17.2081C13.7844 17.2081 13.7845 17.2081 13.7847 17.2081C13.7848 17.2081 13.785 17.2081 13.7851 17.2081C13.7853 17.2081 13.7855 17.2081 13.7856 17.2081C13.7858 17.2081 13.7859 17.2081 13.7861 17.2081C13.7862 17.2081 13.7864 17.2081 13.7865 17.2081C13.7867 17.2081 13.7868 17.2081 13.787 17.2081C13.7871 17.2081 13.7873 17.2081 13.7874 17.2081C13.7876 17.2081 13.7877 17.2081 13.7879 17.2081C13.788 17.2081 13.7882 17.2081 13.7883 17.2081C13.7885 17.2081 13.7887 17.2081 13.7888 17.2081C13.789 17.2081 13.7891 17.2081 13.7893 17.2081C13.7894 17.2081 13.7896 17.2081 13.7897 17.2081C13.7899 17.2081 13.79 17.2081 13.7902 17.2081C13.7903 17.2081 13.7905 17.2081 13.7906 17.2081C13.7908 17.2081 13.7909 17.2081 13.7911 17.2081C13.7912 17.2081 13.7914 17.2081 13.7916 17.2081C13.7917 17.2081 13.7919 17.2081 13.792 17.2081C13.7922 17.2081 13.7923 17.2081 13.7925 17.2081C13.7926 17.2081 13.7928 17.2081 13.7929 17.2081C13.7931 17.2081 13.7932 17.2081 13.7934 17.2081C13.7935 17.2081 13.7937 17.2081 13.7938 17.2081C13.794 17.2081 13.7941 17.2081 13.7943 17.2081C13.7945 17.2081 13.7946 17.2081 13.7948 17.2081C13.7949 17.2081 13.7951 17.2081 13.7952 17.2081C13.7954 17.2081 13.7955 17.2081 13.7957 17.2081C13.7958 17.2081 13.796 17.2081 13.7961 17.2081C13.7963 17.2081 13.7964 17.2081 13.7966 17.2081C13.7967 17.2081 13.7969 17.2081 13.797 17.2081C13.7972 17.2081 13.7974 17.2081 13.7975 17.2081C13.7977 17.2081 13.7978 17.2081 13.798 17.2081C13.7981 17.2081 13.7983 17.2081 13.7984 17.2081C13.7986 17.2081 13.7987 17.2081 13.7989 17.2081C13.799 17.2081 13.7992 17.2081 13.7993 17.2081C13.7995 17.2081 13.7996 17.2081 13.7998 17.2081C13.7999 17.2081 13.8001 17.2081 13.8003 17.2081C13.8004 17.2081 13.8006 17.2081 13.8007 17.2081C13.8009 17.2081 13.801 17.2081 13.8012 17.2081C13.8013 17.2081 13.8015 17.2081 13.8016 17.2081C13.8018 17.2081 13.8019 17.2081 13.8021 17.2081C13.8022 17.2081 13.8024 17.2081 13.8025 17.2081C13.8027 17.2081 13.8029 17.2081 13.803 17.2081C13.8032 17.2081 13.8033 17.2081 13.8035 17.2081C13.8036 17.2081 13.8038 17.2081 13.8039 17.2081C13.8041 17.2081 13.8042 17.2081 13.8044 17.2081C13.8045 17.2081 13.8047 17.2081 13.8048 17.2081C13.805 17.2081 13.8051 17.2081 13.8053 17.2081C13.8055 17.2081 13.8056 17.2081 13.8058 17.2081C13.8059 17.2081 13.8061 17.2081 13.8062 17.2081C13.8064 17.2081 13.8065 17.2081 13.8067 17.2081C13.8068 17.2081 13.807 17.2081 13.8071 17.2081C13.8073 17.2081 13.8074 17.2081 13.8076 17.2081C13.8077 17.2081 13.8079 17.2081 13.8081 17.2081C13.8082 17.2081 13.8084 17.2081 13.8085 17.2081C13.8087 17.2081 13.8088 17.2081 13.809 17.2081C13.8091 17.2081 13.8093 17.2081 13.8094 17.2081C13.8096 17.2081 13.8097 17.2081 13.8099 17.2081C13.81 17.2081 13.8102 17.2081 13.8103 17.2081C13.8105 17.2081 13.8107 17.2081 13.8108 17.2081C13.811 17.2081 13.8111 17.2081 13.8113 17.2081C13.8114 17.2081 13.8116 17.2081 13.8117 17.2081C13.8119 17.2081 13.812 17.2081 13.8122 17.2081C13.8123 17.2081 13.8125 17.2081 13.8126 17.2081C13.8128 17.2081 13.813 17.2081 13.8131 17.2081C13.8133 17.2081 13.8134 17.2081 13.8136 17.2081C13.8137 17.2081 13.8139 17.2081 13.814 17.2081C13.8142 17.2081 13.8143 17.2081 13.8145 17.2081C13.8146 17.2081 13.8148 17.2081 13.8149 17.2081C13.8151 17.2081 13.8153 17.2081 13.8154 17.2081C13.8156 17.2081 13.8157 17.2081 13.8159 17.2081C13.816 17.2081 13.8162 17.2081 13.8163 17.2081C13.8165 17.2081 13.8166 17.2081 13.8168 17.2081C13.8169 17.2081 13.8171 17.2081 13.8172 17.2081C13.8174 17.2081 13.8176 17.2081 13.8177 17.2081C13.8179 17.2081 13.818 17.2081 13.8182 17.2081C13.8183 17.2081 13.8185 17.2081 13.8186 17.2081C13.8188 17.2081 13.8189 17.2081 13.8191 17.2081C13.8192 17.2081 13.8194 17.2081 13.8195 17.2081C13.8197 17.2081 13.8199 17.2081 13.82 17.2081C13.8202 17.2081 13.8203 17.2081 13.8205 17.2081C13.8206 17.2081 13.8208 17.2081 13.8209 17.2081C13.8211 17.2081 13.8212 17.2081 13.8214 17.2081C13.8215 17.2081 13.8217 17.2081 13.8218 17.2081C13.822 17.2081 13.8222 17.2081 13.8223 17.2081C13.8225 17.2081 13.8226 17.2081 13.8228 17.2081C13.8229 17.2081 13.8231 17.2081 13.8232 17.2081C13.8234 17.2081 13.8235 17.2081 13.8237 17.2081C13.8238 17.2081 13.824 17.2081 13.8241 17.2081C13.8243 17.2081 13.8245 17.2081 13.8246 17.2081C13.8248 17.2081 13.8249 17.2081 13.8251 17.2081C13.8252 17.2081 13.8254 17.2081 13.8255 17.2081C13.8257 17.2081 13.8258 17.2081 13.826 17.2081C13.8261 17.2081 13.8263 17.2081 13.8265 17.2081C13.8266 17.2081 13.8268 17.2081 13.8269 17.2081C13.8271 17.2081 13.8272 17.2081 13.8274 17.2081C13.8275 17.2081 13.8277 17.2081 13.8278 17.2081C13.828 17.2081 13.8281 17.2081 13.8283 17.2081C13.8285 17.2081 13.8286 17.2081 13.8288 17.2081C13.8289 17.2081 13.8291 17.2081 13.8292 17.2081C13.8294 17.2081 13.8295 17.2081 13.8297 17.2081C13.8298 17.2081 13.83 17.2081 13.8301 17.2081C13.8303 17.2081 13.8304 17.2081 13.8306 17.2081C13.8308 17.2081 13.8309 17.2081 13.8311 17.2081C13.8312 17.2081 13.8314 17.2081 13.8315 17.2081C13.8317 17.2081 13.8318 17.2081 13.832 17.2081C13.8321 17.2081 13.8323 17.2081 13.8324 17.2081C13.8326 17.2081 13.8328 17.2081 13.8329 17.2081C13.8331 17.2081 13.8332 17.2081 13.8334 17.2081C13.8335 17.2081 13.8337 17.2081 13.8338 17.2081C13.834 17.2081 13.8341 17.2081 13.8343 17.2081C13.8344 17.2081 13.8346 17.2081 13.8348 17.2081C13.8349 17.2081 13.8351 17.2081 13.8352 17.2081C13.8354 17.2081 13.8355 17.2081 13.8357 17.2081C13.8358 17.2081 13.836 17.2081 13.8361 17.2081C13.8363 17.2081 13.8365 17.2081 13.8366 17.2081C13.8368 17.2081 13.8369 17.2081 13.8371 17.2081C13.8372 17.2081 13.8374 17.2081 13.8375 17.2081C13.8377 17.2081 13.8378 17.2081 13.838 17.2081C13.8381 17.2081 13.8383 17.2081 13.8385 17.2081C13.8386 17.2081 13.8388 17.2081 13.8389 17.2081C13.8391 17.2081 13.8392 17.2081 13.8394 17.2081C13.8395 17.2081 13.8397 17.2081 13.8398 17.2081C13.84 17.2081 13.8402 17.2081 13.8403 17.2081C13.8405 17.2081 13.8406 17.2081 13.8408 17.2081C13.8409 17.2081 13.8411 17.2081 13.8412 17.2081C13.8414 17.2081 13.8415 17.2081 13.8417 17.2081C13.8418 17.2081 13.842 17.2081 13.8422 17.2081C13.8423 17.2081 13.8425 17.2081 13.8426 17.2081C13.8428 17.2081 13.8429 17.2081 13.8431 17.2081C13.8432 17.2081 13.8434 17.2081 13.8435 17.2081C13.8437 17.2081 13.8439 17.2081 13.844 17.2081C13.8442 17.2081 13.8443 17.2081 13.8445 17.2081C13.8446 17.2081 13.8448 17.2081 13.8449 17.2081C13.8451 17.2081 13.8452 17.2081 13.8454 17.2081C13.8456 17.2081 13.8457 17.2081 13.8459 17.2081C13.846 17.2081 13.8462 17.2081 13.8463 17.2081C13.8465 17.2081 13.8466 17.2081 13.8468 17.2081C13.8469 17.2081 13.8471 17.2081 13.8472 17.2081C13.8474 17.2081 13.8476 17.2081 13.8477 17.2081C13.8479 17.2081 13.848 17.2081 13.8482 17.2081C13.8483 17.2081 13.8485 17.2081 13.8486 17.2081C13.8488 17.2081 13.8489 17.2081 13.8491 17.2081C13.8493 17.2081 13.8494 17.2081 13.8496 17.2081C13.8497 17.2081 13.8499 17.2081 13.85 17.2081C13.8502 17.2081 13.8503 17.2081 13.8505 17.2081C13.8506 17.2081 13.8508 17.2081 13.851 17.2081C13.8511 17.2081 13.8513 17.2081 13.8514 17.2081C13.8516 17.2081 13.8517 17.2081 13.8519 17.2081C13.852 17.2081 13.8522 17.2081 13.8524 17.2081C13.8525 17.2081 13.8527 17.2081 13.8528 17.2081C13.853 17.2081 13.8531 17.2081 13.8533 17.2081C13.8534 17.2081 13.8536 17.2081 13.8537 17.2081C13.8539 17.2081 13.8541 17.2081 13.8542 17.2081C13.8544 17.2081 13.8545 17.2081 13.8547 17.2081C13.8548 17.2081 13.855 17.2081 13.8551 17.2081C13.8553 17.2081 13.8554 17.2081 13.8556 17.2081C13.8558 17.2081 13.8559 17.2081 13.8561 17.2081C13.8562 17.2081 13.8564 17.2081 13.8565 17.2081C13.8567 17.2081 13.8568 17.2081 13.857 17.2081C13.8572 17.2081 13.8573 17.2081 13.8575 17.2081C13.8576 17.2081 13.8578 17.2081 13.8579 17.2081C13.8581 17.2081 13.8582 17.2081 13.8584 17.2081C13.8585 17.2081 13.8587 17.2081 13.8589 17.2081C13.859 17.2081 13.8592 17.2081 13.8593 17.2081C13.8595 17.2081 13.8596 17.2081 13.8598 17.2081C13.8599 17.2081 13.8601 17.2081 13.8602 17.2081C13.8604 17.2081 13.8606 17.2081 13.8607 17.2081C13.8609 17.2081 13.861 17.2081 13.8612 17.2081C13.8613 17.2081 13.8615 17.2081 13.8616 17.2081C13.8618 17.2081 13.862 17.2081 13.8621 17.2081C13.8623 17.2081 13.8624 17.2081 13.8626 17.2081C13.8627 17.2081 13.8629 17.2081 13.863 17.2081C13.8632 17.2081 13.8634 17.2081 13.8635 17.2081C13.8637 17.2081 13.8638 17.2081 13.864 17.2081C13.8641 17.2081 13.8643 17.2081 13.8644 17.2081C13.8646 17.2081 13.8647 17.2081 13.8649 17.2081C13.8651 17.2081 13.8652 17.2081 13.8654 17.2081C13.8655 17.2081 13.8657 17.2081 13.8658 17.2081C13.866 17.2081 13.8661 17.2081 13.8663 17.2081C13.8665 17.2081 13.8666 17.2081 13.8668 17.2081C13.8669 17.2081 13.8671 17.2081 13.8672 17.2081C13.8674 17.2081 13.8675 17.2081 13.8677 17.2081C13.8679 17.2081 13.868 17.2081 13.8682 17.2081C13.8683 17.2081 13.8685 17.2081 13.8686 17.2081C13.8688 17.2081 13.8689 17.2081 13.8691 17.2081C13.8693 17.2081 13.8694 17.2081 13.8696 17.2081C13.8697 17.2081 13.8699 17.2081 13.87 17.2081C13.8702 17.2081 13.8703 17.2081 13.8705 17.2081C13.8707 17.2081 13.8708 17.2081 13.871 17.2081C13.8711 17.2081 13.8713 17.2081 13.8714 17.2081C13.8716 17.2081 13.8717 17.2081 13.8719 17.2081C13.8721 17.2081 13.8722 17.2081 13.8724 17.2081C13.8725 17.2081 13.8727 17.2081 13.8728 17.2081C13.873 17.2081 13.8731 17.2081 13.8733 17.2081C13.8735 17.2081 13.8736 17.2081 13.8738 17.2081C13.8739 17.2081 13.8741 17.2081 13.8742 17.2081C13.8744 17.2081 13.8745 17.2081 13.8747 17.2081C13.8749 17.2081 13.875 17.2081 13.8752 17.2081C13.8753 17.2081 13.8755 17.2081 13.8756 17.2081C13.8758 17.2081 13.876 17.2081 13.8761 17.2081C13.8763 17.2081 13.8764 17.2081 13.8766 17.2081C13.8767 17.2081 13.8769 17.2081 13.877 17.2081C13.8772 17.2081 13.8774 17.2081 13.8775 17.2081C13.8777 17.2081 13.8778 17.2081 13.878 17.2081C13.8781 17.2081 13.8783 17.2081 13.8784 17.2081C13.8786 17.2081 13.8788 17.2081 13.8789 17.2081C13.8791 17.2081 13.8792 17.2081 13.8794 17.2081C13.8795 17.2081 13.8797 17.2081 13.8798 17.2081C13.88 17.2081 13.8802 17.2081 13.8803 17.2081C13.8805 17.2081 13.8806 17.2081 13.8808 17.2081C13.8809 17.2081 13.8811 17.2081 13.8813 17.2081C13.8814 17.2081 13.8816 17.2081 13.8817 17.2081C13.8819 17.2081 13.882 17.2081 13.8822 17.2081C13.8823 17.2081 13.8825 17.2081 13.8827 17.2081C13.8828 17.2081 13.883 17.2081 13.8831 17.2081C13.8833 17.2081 13.8834 17.2081 13.8836 17.2081C13.8838 17.2081 13.8839 17.2081 13.8841 17.2081C13.8842 17.2081 13.8844 17.2081 13.8845 17.2081C13.8847 17.2081 13.8848 17.2081 13.885 17.2081C13.8852 17.2081 13.8853 17.2081 13.8855 17.2081C13.8856 17.2081 13.8858 17.2081 13.8859 17.2081C13.8861 17.2081 13.8863 17.2081 13.8864 17.2081C13.8866 17.2081 13.8867 17.2081 13.8869 17.2081C13.887 17.2081 13.8872 17.2081 13.8874 17.2081C13.8875 17.2081 13.8877 17.2081 13.8878 17.2081C13.888 17.2081 13.8881 17.2081 13.8883 17.2081C13.8884 17.2081 13.8886 17.2081 13.8888 17.2081C13.8889 17.2081 13.8891 17.2081 13.8892 17.2081C13.8894 17.2081 13.8895 17.2081 13.8897 17.2081C13.8899 17.2081 13.89 17.2081 13.8902 17.2081C13.8903 17.2081 13.8905 17.2081 13.8906 17.2081C13.8908 17.2081 13.891 17.2081 13.8911 17.2081C13.8913 17.2081 13.8914 17.2081 13.8916 17.2081C13.8917 17.2081 13.8919 17.2081 13.892 17.2081C13.8922 17.2081 13.8924 17.2081 13.8925 17.2081C13.8927 17.2081 13.8928 17.2081 13.893 17.2081C13.8931 17.2081 13.8933 17.2081 13.8935 17.2081C13.8936 17.2081 13.8938 17.2081 13.8939 17.2081C13.8941 17.2081 13.8942 17.2081 13.8944 17.2081C13.8946 17.2081 13.8947 17.2081 13.8949 17.2081C13.895 17.2081 13.8952 17.2081 13.8953 17.2081C13.8955 17.2081 13.8957 17.2081 13.8958 17.2081C13.896 17.2081 13.8961 17.2081 13.8963 17.2081C13.8964 17.2081 13.8966 17.2081 13.8968 17.2081C13.8969 17.2081 13.8971 17.2081 13.8972 17.2081C13.8974 17.2081 13.8975 17.2081 13.8977 17.2081C13.8979 17.2081 13.898 17.2081 13.8982 17.2081C13.8983 17.2081 13.8985 17.2081 13.8986 17.2081C13.8988 17.2081 13.899 17.2081 13.8991 17.2081C13.8993 17.2081 13.8994 17.2081 13.8996 17.2081C13.8997 17.2081 13.8999 17.2081 13.9001 17.2081C13.9002 17.2081 13.9004 17.2081 13.9005 17.2081C13.9007 17.2081 13.9008 17.2081 13.901 17.2081C13.9012 17.2081 13.9013 17.2081 13.9015 17.2081C13.9016 17.2081 13.9018 17.2081 13.9019 17.2081C13.9021 17.2081 13.9023 17.2081 13.9024 17.2081C13.9026 17.2081 13.9027 17.2081 13.9029 17.2081C13.903 17.2081 13.9032 17.2081 13.9034 17.2081C13.9035 17.2081 13.9037 17.2081 13.9038 17.2081C13.904 17.2081 13.9041 17.2081 13.9043 17.2081C13.9045 17.2081 13.9046 17.2081 13.9048 17.2081C13.9049 17.2081 13.9051 17.2081 13.9052 17.2081C13.9054 17.2081 13.9056 17.2081 13.9057 17.2081C13.9059 17.2081 13.906 17.2081 13.9062 17.2081C13.9064 17.2081 13.9065 17.2081 13.9067 17.2081C13.9068 17.2081 13.907 17.2081 13.9071 17.2081C13.9073 17.2081 13.9075 17.2081 13.9076 17.2081C13.9078 17.2081 13.9079 17.2081 13.9081 17.2081C13.9082 17.2081 13.9084 17.2081 13.9086 17.2081C13.9087 17.2081 13.9089 17.2081 13.909 17.2081C13.9092 17.2081 13.9093 17.2081 13.9095 17.2081C13.9097 17.2081 13.9098 17.2081 13.91 17.2081C13.9101 17.2081 13.9103 17.2081 13.9105 17.2081C13.9106 17.2081 13.9108 17.2081 13.9109 17.2081C13.9111 17.2081 13.9112 17.2081 13.9114 17.2081C13.9116 17.2081 13.9117 17.2081 13.9119 17.2081C13.912 17.2081 13.9122 17.2081 13.9123 17.2081C13.9125 17.2081 13.9127 17.2081 13.9128 17.2081C13.913 17.2081 13.9131 17.2081 13.9133 17.2081C13.9135 17.2081 13.9136 17.2081 13.9138 17.2081C13.9139 17.2081 13.9141 17.2081 13.9142 17.2081C13.9144 17.2081 13.9146 17.2081 13.9147 17.2081C13.9149 17.2081 13.915 17.2081 13.9152 17.2081C13.9153 17.2081 13.9155 17.2081 13.9157 17.2081C13.9158 17.2081 13.916 17.2081 13.9161 17.2081C13.9163 17.2081 13.9165 17.2081 13.9166 17.2081C13.9168 17.2081 13.9169 17.2081 13.9171 17.2081C13.9172 17.2081 13.9174 17.2081 13.9176 17.2081C13.9177 17.2081 13.9179 17.2081 13.918 17.2081C13.9182 17.2081 13.9184 17.2081 13.9185 17.2081C13.9187 17.2081 13.9188 17.2081 13.919 17.2081C13.9191 17.2081 13.9193 17.2081 13.9195 17.2081C13.9196 17.2081 13.9198 17.2081 13.9199 17.2081C13.9201 17.2081 13.9203 17.2081 13.9204 17.2081C13.9206 17.2081 13.9207 17.2081 13.9209 17.2081C13.9211 17.2081 13.9212 17.2081 13.9214 17.2081C13.9215 17.2081 13.9217 17.2081 13.9218 17.2081C13.922 17.2081 13.9222 17.2081 13.9223 17.2081C13.9225 17.2081 13.9226 17.2081 13.9228 17.2081C13.923 17.2081 13.9231 17.2081 13.9233 17.2081C13.9234 17.2081 13.9236 17.2081 13.9237 17.2081C13.9239 17.2081 13.9241 17.2081 13.9242 17.2081C13.9244 17.2081 13.9245 17.2081 13.9247 17.2081C13.9249 17.2081 13.925 17.2081 13.9252 17.2081C13.9253 17.2081 13.9255 17.2081 13.9257 17.2081C13.9258 17.2081 13.926 17.2081 13.9261 17.2081C13.9263 17.2081 13.9264 17.2081 13.9266 17.2081C13.9268 17.2081 13.9269 17.2081 13.9271 17.2081C13.9272 17.2081 13.9274 17.2081 13.9276 17.2081C13.9277 17.2081 13.9279 17.2081 13.928 17.2081C13.9282 17.2081 13.9284 17.2081 13.9285 17.2081C13.9287 17.2081 13.9288 17.2081 13.929 17.2081C13.9291 17.2081 13.9293 17.2081 13.9295 17.2081C13.9296 17.2081 13.9298 17.2081 13.9299 17.2081C13.9301 17.2081 13.9303 17.2081 13.9304 17.2081C13.9306 17.2081 13.9307 17.2081 13.9309 17.2081C13.9311 17.2081 13.9312 17.2081 13.9314 17.2081C13.9315 17.2081 13.9317 17.2081 13.9319 17.2081C13.932 17.2081 13.9322 17.2081 13.9323 17.2081C13.9325 17.2081 13.9327 17.2081 13.9328 17.2081C13.933 17.2081 13.9331 17.2081 13.9333 17.2081C13.9334 17.2081 13.9336 17.2081 13.9338 17.2081C13.9339 17.2081 13.9341 17.2081 13.9342 17.2081C13.9344 17.2081 13.9346 17.2081 13.9347 17.2081C13.9349 17.2081 13.935 17.2081 13.9352 17.2081C13.9354 17.2081 13.9355 17.2081 13.9357 17.2081C13.9358 17.2081 13.936 17.2081 13.9362 17.2081C13.9363 17.2081 13.9365 17.2081 13.9366 17.2081C13.9368 17.2081 13.937 17.2081 13.9371 17.2081C13.9373 17.2081 13.9374 17.2081 13.9376 17.2081C13.9378 17.2081 13.9379 17.2081 13.9381 17.2081C13.9382 17.2081 13.9384 17.2081 13.9386 17.2081C13.9387 17.2081 13.9389 17.2081 13.939 17.2081C13.9392 17.2081 13.9394 17.2081 13.9395 17.2081C13.9397 17.2081 13.9398 17.2081 13.94 17.2081C13.9402 17.2081 13.9403 17.2081 13.9405 17.2081C13.9406 17.2081 13.9408 17.2081 13.941 17.2081C13.9411 17.2081 13.9413 17.2081 13.9414 17.2081C13.9416 17.2081 13.9418 17.2081 13.9419 17.2081C13.9421 17.2081 13.9422 17.2081 13.9424 17.2081C13.9426 17.2081 13.9427 17.2081 13.9429 17.2081C13.943 17.2081 13.9432 17.2081 13.9434 17.2081C13.9435 17.2081 13.9437 17.2081 13.9438 17.2081C13.944 17.2081 13.9442 17.2081 13.9443 17.2081C13.9445 17.2081 13.9446 17.2081 13.9448 17.2081C13.945 17.2081 13.9451 17.2081 13.9453 17.2081C13.9454 17.2081 13.9456 17.2081 13.9458 17.2081C13.9459 17.2081 13.9461 17.2081 13.9462 17.2081C13.9464 17.2081 13.9466 17.2081 13.9467 17.2081C13.9469 17.2081 13.947 17.2081 13.9472 17.2081C13.9474 17.2081 13.9475 17.2081 13.9477 17.2081C13.9478 17.2081 13.948 17.2081 13.9482 17.2081C13.9483 17.2081 13.9485 17.2081 13.9486 17.2081C13.9488 17.2081 13.949 17.2081 13.9491 17.2081C13.9493 17.2081 13.9494 17.2081 13.9496 17.2081C13.9498 17.2081 13.9499 17.2081 13.9501 17.2081C13.9502 17.2081 13.9504 17.2081 13.9506 17.2081C13.9507 17.2081 13.9509 17.2081 13.951 17.2081C13.9512 17.2081 13.9514 17.2081 13.9515 17.2081C13.9517 17.2081 13.9519 17.2081 13.952 17.2081C13.9522 17.2081 13.9523 17.2081 13.9525 17.2081C13.9527 17.2081 13.9528 17.2081 13.953 17.2081C13.9531 17.2081 13.9533 17.2081 13.9535 17.2081C13.9536 17.2081 13.9538 17.2081 13.9539 17.2081C13.9541 17.2081 13.9543 17.2081 13.9544 17.2081C13.9546 17.2081 13.9547 17.2081 13.9549 17.2081C13.9551 17.2081 13.9552 17.2081 13.9554 17.2081C13.9556 17.2081 13.9557 17.2081 13.9559 17.2081C13.956 17.2081 13.9562 17.2081 13.9564 17.2081C13.9565 17.2081 13.9567 17.2081 13.9568 17.2081C13.957 17.2081 13.9572 17.2081 13.9573 17.2081C13.9575 17.2081 13.9576 17.2081 13.9578 17.2081V15.2081C13.9576 15.2081 13.9575 15.2081 13.9573 15.2081C13.9572 15.2081 13.957 15.2081 13.9568 15.2081C13.9567 15.2081 13.9565 15.2081 13.9564 15.2081C13.9562 15.2081 13.956 15.2081 13.9559 15.2081C13.9557 15.2081 13.9556 15.2081 13.9554 15.2081C13.9552 15.2081 13.9551 15.2081 13.9549 15.2081C13.9547 15.2081 13.9546 15.2081 13.9544 15.2081C13.9543 15.2081 13.9541 15.2081 13.9539 15.2081C13.9538 15.2081 13.9536 15.2081 13.9535 15.2081C13.9533 15.2081 13.9531 15.2081 13.953 15.2081C13.9528 15.2081 13.9527 15.2081 13.9525 15.2081C13.9523 15.2081 13.9522 15.2081 13.952 15.2081C13.9519 15.2081 13.9517 15.2081 13.9515 15.2081C13.9514 15.2081 13.9512 15.2081 13.951 15.2081C13.9509 15.2081 13.9507 15.2081 13.9506 15.2081C13.9504 15.2081 13.9502 15.2081 13.9501 15.2081C13.9499 15.2081 13.9498 15.2081 13.9496 15.2081C13.9494 15.2081 13.9493 15.2081 13.9491 15.2081C13.949 15.2081 13.9488 15.2081 13.9486 15.2081C13.9485 15.2081 13.9483 15.2081 13.9482 15.2081C13.948 15.2081 13.9478 15.2081 13.9477 15.2081C13.9475 15.2081 13.9474 15.2081 13.9472 15.2081C13.947 15.2081 13.9469 15.2081 13.9467 15.2081C13.9466 15.2081 13.9464 15.2081 13.9462 15.2081C13.9461 15.2081 13.9459 15.2081 13.9458 15.2081C13.9456 15.2081 13.9454 15.2081 13.9453 15.2081C13.9451 15.2081 13.945 15.2081 13.9448 15.2081C13.9446 15.2081 13.9445 15.2081 13.9443 15.2081C13.9442 15.2081 13.944 15.2081 13.9438 15.2081C13.9437 15.2081 13.9435 15.2081 13.9434 15.2081C13.9432 15.2081 13.943 15.2081 13.9429 15.2081C13.9427 15.2081 13.9426 15.2081 13.9424 15.2081C13.9422 15.2081 13.9421 15.2081 13.9419 15.2081C13.9418 15.2081 13.9416 15.2081 13.9414 15.2081C13.9413 15.2081 13.9411 15.2081 13.941 15.2081C13.9408 15.2081 13.9406 15.2081 13.9405 15.2081C13.9403 15.2081 13.9402 15.2081 13.94 15.2081C13.9398 15.2081 13.9397 15.2081 13.9395 15.2081C13.9394 15.2081 13.9392 15.2081 13.939 15.2081C13.9389 15.2081 13.9387 15.2081 13.9386 15.2081C13.9384 15.2081 13.9382 15.2081 13.9381 15.2081C13.9379 15.2081 13.9378 15.2081 13.9376 15.2081C13.9374 15.2081 13.9373 15.2081 13.9371 15.2081C13.937 15.2081 13.9368 15.2081 13.9366 15.2081C13.9365 15.2081 13.9363 15.2081 13.9362 15.2081C13.936 15.2081 13.9358 15.2081 13.9357 15.2081C13.9355 15.2081 13.9354 15.2081 13.9352 15.2081C13.935 15.2081 13.9349 15.2081 13.9347 15.2081C13.9346 15.2081 13.9344 15.2081 13.9342 15.2081C13.9341 15.2081 13.9339 15.2081 13.9338 15.2081C13.9336 15.2081 13.9334 15.2081 13.9333 15.2081C13.9331 15.2081 13.933 15.2081 13.9328 15.2081C13.9327 15.2081 13.9325 15.2081 13.9323 15.2081C13.9322 15.2081 13.932 15.2081 13.9319 15.2081C13.9317 15.2081 13.9315 15.2081 13.9314 15.2081C13.9312 15.2081 13.9311 15.2081 13.9309 15.2081C13.9307 15.2081 13.9306 15.2081 13.9304 15.2081C13.9303 15.2081 13.9301 15.2081 13.9299 15.2081C13.9298 15.2081 13.9296 15.2081 13.9295 15.2081C13.9293 15.2081 13.9291 15.2081 13.929 15.2081C13.9288 15.2081 13.9287 15.2081 13.9285 15.2081C13.9284 15.2081 13.9282 15.2081 13.928 15.2081C13.9279 15.2081 13.9277 15.2081 13.9276 15.2081C13.9274 15.2081 13.9272 15.2081 13.9271 15.2081C13.9269 15.2081 13.9268 15.2081 13.9266 15.2081C13.9264 15.2081 13.9263 15.2081 13.9261 15.2081C13.926 15.2081 13.9258 15.2081 13.9257 15.2081C13.9255 15.2081 13.9253 15.2081 13.9252 15.2081C13.925 15.2081 13.9249 15.2081 13.9247 15.2081C13.9245 15.2081 13.9244 15.2081 13.9242 15.2081C13.9241 15.2081 13.9239 15.2081 13.9237 15.2081C13.9236 15.2081 13.9234 15.2081 13.9233 15.2081C13.9231 15.2081 13.923 15.2081 13.9228 15.2081C13.9226 15.2081 13.9225 15.2081 13.9223 15.2081C13.9222 15.2081 13.922 15.2081 13.9218 15.2081C13.9217 15.2081 13.9215 15.2081 13.9214 15.2081C13.9212 15.2081 13.9211 15.2081 13.9209 15.2081C13.9207 15.2081 13.9206 15.2081 13.9204 15.2081C13.9203 15.2081 13.9201 15.2081 13.9199 15.2081C13.9198 15.2081 13.9196 15.2081 13.9195 15.2081C13.9193 15.2081 13.9191 15.2081 13.919 15.2081C13.9188 15.2081 13.9187 15.2081 13.9185 15.2081C13.9184 15.2081 13.9182 15.2081 13.918 15.2081C13.9179 15.2081 13.9177 15.2081 13.9176 15.2081C13.9174 15.2081 13.9172 15.2081 13.9171 15.2081C13.9169 15.2081 13.9168 15.2081 13.9166 15.2081C13.9165 15.2081 13.9163 15.2081 13.9161 15.2081C13.916 15.2081 13.9158 15.2081 13.9157 15.2081C13.9155 15.2081 13.9153 15.2081 13.9152 15.2081C13.915 15.2081 13.9149 15.2081 13.9147 15.2081C13.9146 15.2081 13.9144 15.2081 13.9142 15.2081C13.9141 15.2081 13.9139 15.2081 13.9138 15.2081C13.9136 15.2081 13.9135 15.2081 13.9133 15.2081C13.9131 15.2081 13.913 15.2081 13.9128 15.2081C13.9127 15.2081 13.9125 15.2081 13.9123 15.2081C13.9122 15.2081 13.912 15.2081 13.9119 15.2081C13.9117 15.2081 13.9116 15.2081 13.9114 15.2081C13.9112 15.2081 13.9111 15.2081 13.9109 15.2081C13.9108 15.2081 13.9106 15.2081 13.9105 15.2081C13.9103 15.2081 13.9101 15.2081 13.91 15.2081C13.9098 15.2081 13.9097 15.2081 13.9095 15.2081C13.9093 15.2081 13.9092 15.2081 13.909 15.2081C13.9089 15.2081 13.9087 15.2081 13.9086 15.2081C13.9084 15.2081 13.9082 15.2081 13.9081 15.2081C13.9079 15.2081 13.9078 15.2081 13.9076 15.2081C13.9075 15.2081 13.9073 15.2081 13.9071 15.2081C13.907 15.2081 13.9068 15.2081 13.9067 15.2081C13.9065 15.2081 13.9064 15.2081 13.9062 15.2081C13.906 15.2081 13.9059 15.2081 13.9057 15.2081C13.9056 15.2081 13.9054 15.2081 13.9052 15.2081C13.9051 15.2081 13.9049 15.2081 13.9048 15.2081C13.9046 15.2081 13.9045 15.2081 13.9043 15.2081C13.9041 15.2081 13.904 15.2081 13.9038 15.2081C13.9037 15.2081 13.9035 15.2081 13.9034 15.2081C13.9032 15.2081 13.903 15.2081 13.9029 15.2081C13.9027 15.2081 13.9026 15.2081 13.9024 15.2081C13.9023 15.2081 13.9021 15.2081 13.9019 15.2081C13.9018 15.2081 13.9016 15.2081 13.9015 15.2081C13.9013 15.2081 13.9012 15.2081 13.901 15.2081C13.9008 15.2081 13.9007 15.2081 13.9005 15.2081C13.9004 15.2081 13.9002 15.2081 13.9001 15.2081C13.8999 15.2081 13.8997 15.2081 13.8996 15.2081C13.8994 15.2081 13.8993 15.2081 13.8991 15.2081C13.899 15.2081 13.8988 15.2081 13.8986 15.2081C13.8985 15.2081 13.8983 15.2081 13.8982 15.2081C13.898 15.2081 13.8979 15.2081 13.8977 15.2081C13.8975 15.2081 13.8974 15.2081 13.8972 15.2081C13.8971 15.2081 13.8969 15.2081 13.8968 15.2081C13.8966 15.2081 13.8964 15.2081 13.8963 15.2081C13.8961 15.2081 13.896 15.2081 13.8958 15.2081C13.8957 15.2081 13.8955 15.2081 13.8953 15.2081C13.8952 15.2081 13.895 15.2081 13.8949 15.2081C13.8947 15.2081 13.8946 15.2081 13.8944 15.2081C13.8942 15.2081 13.8941 15.2081 13.8939 15.2081C13.8938 15.2081 13.8936 15.2081 13.8935 15.2081C13.8933 15.2081 13.8931 15.2081 13.893 15.2081C13.8928 15.2081 13.8927 15.2081 13.8925 15.2081C13.8924 15.2081 13.8922 15.2081 13.892 15.2081C13.8919 15.2081 13.8917 15.2081 13.8916 15.2081C13.8914 15.2081 13.8913 15.2081 13.8911 15.2081C13.891 15.2081 13.8908 15.2081 13.8906 15.2081C13.8905 15.2081 13.8903 15.2081 13.8902 15.2081C13.89 15.2081 13.8899 15.2081 13.8897 15.2081C13.8895 15.2081 13.8894 15.2081 13.8892 15.2081C13.8891 15.2081 13.8889 15.2081 13.8888 15.2081C13.8886 15.2081 13.8884 15.2081 13.8883 15.2081C13.8881 15.2081 13.888 15.2081 13.8878 15.2081C13.8877 15.2081 13.8875 15.2081 13.8874 15.2081C13.8872 15.2081 13.887 15.2081 13.8869 15.2081C13.8867 15.2081 13.8866 15.2081 13.8864 15.2081C13.8863 15.2081 13.8861 15.2081 13.8859 15.2081C13.8858 15.2081 13.8856 15.2081 13.8855 15.2081C13.8853 15.2081 13.8852 15.2081 13.885 15.2081C13.8848 15.2081 13.8847 15.2081 13.8845 15.2081C13.8844 15.2081 13.8842 15.2081 13.8841 15.2081C13.8839 15.2081 13.8838 15.2081 13.8836 15.2081C13.8834 15.2081 13.8833 15.2081 13.8831 15.2081C13.883 15.2081 13.8828 15.2081 13.8827 15.2081C13.8825 15.2081 13.8823 15.2081 13.8822 15.2081C13.882 15.2081 13.8819 15.2081 13.8817 15.2081C13.8816 15.2081 13.8814 15.2081 13.8813 15.2081C13.8811 15.2081 13.8809 15.2081 13.8808 15.2081C13.8806 15.2081 13.8805 15.2081 13.8803 15.2081C13.8802 15.2081 13.88 15.2081 13.8798 15.2081C13.8797 15.2081 13.8795 15.2081 13.8794 15.2081C13.8792 15.2081 13.8791 15.2081 13.8789 15.2081C13.8788 15.2081 13.8786 15.2081 13.8784 15.2081C13.8783 15.2081 13.8781 15.2081 13.878 15.2081C13.8778 15.2081 13.8777 15.2081 13.8775 15.2081C13.8774 15.2081 13.8772 15.2081 13.877 15.2081C13.8769 15.2081 13.8767 15.2081 13.8766 15.2081C13.8764 15.2081 13.8763 15.2081 13.8761 15.2081C13.876 15.2081 13.8758 15.2081 13.8756 15.2081C13.8755 15.2081 13.8753 15.2081 13.8752 15.2081C13.875 15.2081 13.8749 15.2081 13.8747 15.2081C13.8745 15.2081 13.8744 15.2081 13.8742 15.2081C13.8741 15.2081 13.8739 15.2081 13.8738 15.2081C13.8736 15.2081 13.8735 15.2081 13.8733 15.2081C13.8731 15.2081 13.873 15.2081 13.8728 15.2081C13.8727 15.2081 13.8725 15.2081 13.8724 15.2081C13.8722 15.2081 13.8721 15.2081 13.8719 15.2081C13.8717 15.2081 13.8716 15.2081 13.8714 15.2081C13.8713 15.2081 13.8711 15.2081 13.871 15.2081C13.8708 15.2081 13.8707 15.2081 13.8705 15.2081C13.8703 15.2081 13.8702 15.2081 13.87 15.2081C13.8699 15.2081 13.8697 15.2081 13.8696 15.2081C13.8694 15.2081 13.8693 15.2081 13.8691 15.2081C13.8689 15.2081 13.8688 15.2081 13.8686 15.2081C13.8685 15.2081 13.8683 15.2081 13.8682 15.2081C13.868 15.2081 13.8679 15.2081 13.8677 15.2081C13.8675 15.2081 13.8674 15.2081 13.8672 15.2081C13.8671 15.2081 13.8669 15.2081 13.8668 15.2081C13.8666 15.2081 13.8665 15.2081 13.8663 15.2081C13.8661 15.2081 13.866 15.2081 13.8658 15.2081C13.8657 15.2081 13.8655 15.2081 13.8654 15.2081C13.8652 15.2081 13.8651 15.2081 13.8649 15.2081C13.8647 15.2081 13.8646 15.2081 13.8644 15.2081C13.8643 15.2081 13.8641 15.2081 13.864 15.2081C13.8638 15.2081 13.8637 15.2081 13.8635 15.2081C13.8634 15.2081 13.8632 15.2081 13.863 15.2081C13.8629 15.2081 13.8627 15.2081 13.8626 15.2081C13.8624 15.2081 13.8623 15.2081 13.8621 15.2081C13.862 15.2081 13.8618 15.2081 13.8616 15.2081C13.8615 15.2081 13.8613 15.2081 13.8612 15.2081C13.861 15.2081 13.8609 15.2081 13.8607 15.2081C13.8606 15.2081 13.8604 15.2081 13.8602 15.2081C13.8601 15.2081 13.8599 15.2081 13.8598 15.2081C13.8596 15.2081 13.8595 15.2081 13.8593 15.2081C13.8592 15.2081 13.859 15.2081 13.8589 15.2081C13.8587 15.2081 13.8585 15.2081 13.8584 15.2081C13.8582 15.2081 13.8581 15.2081 13.8579 15.2081C13.8578 15.2081 13.8576 15.2081 13.8575 15.2081C13.8573 15.2081 13.8572 15.2081 13.857 15.2081C13.8568 15.2081 13.8567 15.2081 13.8565 15.2081C13.8564 15.2081 13.8562 15.2081 13.8561 15.2081C13.8559 15.2081 13.8558 15.2081 13.8556 15.2081C13.8554 15.2081 13.8553 15.2081 13.8551 15.2081C13.855 15.2081 13.8548 15.2081 13.8547 15.2081C13.8545 15.2081 13.8544 15.2081 13.8542 15.2081C13.8541 15.2081 13.8539 15.2081 13.8537 15.2081C13.8536 15.2081 13.8534 15.2081 13.8533 15.2081C13.8531 15.2081 13.853 15.2081 13.8528 15.2081C13.8527 15.2081 13.8525 15.2081 13.8524 15.2081C13.8522 15.2081 13.852 15.2081 13.8519 15.2081C13.8517 15.2081 13.8516 15.2081 13.8514 15.2081C13.8513 15.2081 13.8511 15.2081 13.851 15.2081C13.8508 15.2081 13.8506 15.2081 13.8505 15.2081C13.8503 15.2081 13.8502 15.2081 13.85 15.2081C13.8499 15.2081 13.8497 15.2081 13.8496 15.2081C13.8494 15.2081 13.8493 15.2081 13.8491 15.2081C13.8489 15.2081 13.8488 15.2081 13.8486 15.2081C13.8485 15.2081 13.8483 15.2081 13.8482 15.2081C13.848 15.2081 13.8479 15.2081 13.8477 15.2081C13.8476 15.2081 13.8474 15.2081 13.8472 15.2081C13.8471 15.2081 13.8469 15.2081 13.8468 15.2081C13.8466 15.2081 13.8465 15.2081 13.8463 15.2081C13.8462 15.2081 13.846 15.2081 13.8459 15.2081C13.8457 15.2081 13.8456 15.2081 13.8454 15.2081C13.8452 15.2081 13.8451 15.2081 13.8449 15.2081C13.8448 15.2081 13.8446 15.2081 13.8445 15.2081C13.8443 15.2081 13.8442 15.2081 13.844 15.2081C13.8439 15.2081 13.8437 15.2081 13.8435 15.2081C13.8434 15.2081 13.8432 15.2081 13.8431 15.2081C13.8429 15.2081 13.8428 15.2081 13.8426 15.2081C13.8425 15.2081 13.8423 15.2081 13.8422 15.2081C13.842 15.2081 13.8418 15.2081 13.8417 15.2081C13.8415 15.2081 13.8414 15.2081 13.8412 15.2081C13.8411 15.2081 13.8409 15.2081 13.8408 15.2081C13.8406 15.2081 13.8405 15.2081 13.8403 15.2081C13.8402 15.2081 13.84 15.2081 13.8398 15.2081C13.8397 15.2081 13.8395 15.2081 13.8394 15.2081C13.8392 15.2081 13.8391 15.2081 13.8389 15.2081C13.8388 15.2081 13.8386 15.2081 13.8385 15.2081C13.8383 15.2081 13.8381 15.2081 13.838 15.2081C13.8378 15.2081 13.8377 15.2081 13.8375 15.2081C13.8374 15.2081 13.8372 15.2081 13.8371 15.2081C13.8369 15.2081 13.8368 15.2081 13.8366 15.2081C13.8365 15.2081 13.8363 15.2081 13.8361 15.2081C13.836 15.2081 13.8358 15.2081 13.8357 15.2081C13.8355 15.2081 13.8354 15.2081 13.8352 15.2081C13.8351 15.2081 13.8349 15.2081 13.8348 15.2081C13.8346 15.2081 13.8344 15.2081 13.8343 15.2081C13.8341 15.2081 13.834 15.2081 13.8338 15.2081C13.8337 15.2081 13.8335 15.2081 13.8334 15.2081C13.8332 15.2081 13.8331 15.2081 13.8329 15.2081C13.8328 15.2081 13.8326 15.2081 13.8324 15.2081C13.8323 15.2081 13.8321 15.2081 13.832 15.2081C13.8318 15.2081 13.8317 15.2081 13.8315 15.2081C13.8314 15.2081 13.8312 15.2081 13.8311 15.2081C13.8309 15.2081 13.8308 15.2081 13.8306 15.2081C13.8304 15.2081 13.8303 15.2081 13.8301 15.2081C13.83 15.2081 13.8298 15.2081 13.8297 15.2081C13.8295 15.2081 13.8294 15.2081 13.8292 15.2081C13.8291 15.2081 13.8289 15.2081 13.8288 15.2081C13.8286 15.2081 13.8285 15.2081 13.8283 15.2081C13.8281 15.2081 13.828 15.2081 13.8278 15.2081C13.8277 15.2081 13.8275 15.2081 13.8274 15.2081C13.8272 15.2081 13.8271 15.2081 13.8269 15.2081C13.8268 15.2081 13.8266 15.2081 13.8265 15.2081C13.8263 15.2081 13.8261 15.2081 13.826 15.2081C13.8258 15.2081 13.8257 15.2081 13.8255 15.2081C13.8254 15.2081 13.8252 15.2081 13.8251 15.2081C13.8249 15.2081 13.8248 15.2081 13.8246 15.2081C13.8245 15.2081 13.8243 15.2081 13.8241 15.2081C13.824 15.2081 13.8238 15.2081 13.8237 15.2081C13.8235 15.2081 13.8234 15.2081 13.8232 15.2081C13.8231 15.2081 13.8229 15.2081 13.8228 15.2081C13.8226 15.2081 13.8225 15.2081 13.8223 15.2081C13.8222 15.2081 13.822 15.2081 13.8218 15.2081C13.8217 15.2081 13.8215 15.2081 13.8214 15.2081C13.8212 15.2081 13.8211 15.2081 13.8209 15.2081C13.8208 15.2081 13.8206 15.2081 13.8205 15.2081C13.8203 15.2081 13.8202 15.2081 13.82 15.2081C13.8199 15.2081 13.8197 15.2081 13.8195 15.2081C13.8194 15.2081 13.8192 15.2081 13.8191 15.2081C13.8189 15.2081 13.8188 15.2081 13.8186 15.2081C13.8185 15.2081 13.8183 15.2081 13.8182 15.2081C13.818 15.2081 13.8179 15.2081 13.8177 15.2081C13.8176 15.2081 13.8174 15.2081 13.8172 15.2081C13.8171 15.2081 13.8169 15.2081 13.8168 15.2081C13.8166 15.2081 13.8165 15.2081 13.8163 15.2081C13.8162 15.2081 13.816 15.2081 13.8159 15.2081C13.8157 15.2081 13.8156 15.2081 13.8154 15.2081C13.8153 15.2081 13.8151 15.2081 13.8149 15.2081C13.8148 15.2081 13.8146 15.2081 13.8145 15.2081C13.8143 15.2081 13.8142 15.2081 13.814 15.2081C13.8139 15.2081 13.8137 15.2081 13.8136 15.2081C13.8134 15.2081 13.8133 15.2081 13.8131 15.2081C13.813 15.2081 13.8128 15.2081 13.8126 15.2081C13.8125 15.2081 13.8123 15.2081 13.8122 15.2081C13.812 15.2081 13.8119 15.2081 13.8117 15.2081C13.8116 15.2081 13.8114 15.2081 13.8113 15.2081C13.8111 15.2081 13.811 15.2081 13.8108 15.2081C13.8107 15.2081 13.8105 15.2081 13.8103 15.2081C13.8102 15.2081 13.81 15.2081 13.8099 15.2081C13.8097 15.2081 13.8096 15.2081 13.8094 15.2081C13.8093 15.2081 13.8091 15.2081 13.809 15.2081C13.8088 15.2081 13.8087 15.2081 13.8085 15.2081C13.8084 15.2081 13.8082 15.2081 13.8081 15.2081C13.8079 15.2081 13.8077 15.2081 13.8076 15.2081C13.8074 15.2081 13.8073 15.2081 13.8071 15.2081C13.807 15.2081 13.8068 15.2081 13.8067 15.2081C13.8065 15.2081 13.8064 15.2081 13.8062 15.2081C13.8061 15.2081 13.8059 15.2081 13.8058 15.2081C13.8056 15.2081 13.8055 15.2081 13.8053 15.2081C13.8051 15.2081 13.805 15.2081 13.8048 15.2081C13.8047 15.2081 13.8045 15.2081 13.8044 15.2081C13.8042 15.2081 13.8041 15.2081 13.8039 15.2081C13.8038 15.2081 13.8036 15.2081 13.8035 15.2081C13.8033 15.2081 13.8032 15.2081 13.803 15.2081C13.8029 15.2081 13.8027 15.2081 13.8025 15.2081C13.8024 15.2081 13.8022 15.2081 13.8021 15.2081C13.8019 15.2081 13.8018 15.2081 13.8016 15.2081C13.8015 15.2081 13.8013 15.2081 13.8012 15.2081C13.801 15.2081 13.8009 15.2081 13.8007 15.2081C13.8006 15.2081 13.8004 15.2081 13.8003 15.2081C13.8001 15.2081 13.7999 15.2081 13.7998 15.2081C13.7996 15.2081 13.7995 15.2081 13.7993 15.2081C13.7992 15.2081 13.799 15.2081 13.7989 15.2081C13.7987 15.2081 13.7986 15.2081 13.7984 15.2081C13.7983 15.2081 13.7981 15.2081 13.798 15.2081C13.7978 15.2081 13.7977 15.2081 13.7975 15.2081C13.7974 15.2081 13.7972 15.2081 13.797 15.2081C13.7969 15.2081 13.7967 15.2081 13.7966 15.2081C13.7964 15.2081 13.7963 15.2081 13.7961 15.2081C13.796 15.2081 13.7958 15.2081 13.7957 15.2081C13.7955 15.2081 13.7954 15.2081 13.7952 15.2081C13.7951 15.2081 13.7949 15.2081 13.7948 15.2081C13.7946 15.2081 13.7945 15.2081 13.7943 15.2081C13.7941 15.2081 13.794 15.2081 13.7938 15.2081C13.7937 15.2081 13.7935 15.2081 13.7934 15.2081C13.7932 15.2081 13.7931 15.2081 13.7929 15.2081C13.7928 15.2081 13.7926 15.2081 13.7925 15.2081C13.7923 15.2081 13.7922 15.2081 13.792 15.2081C13.7919 15.2081 13.7917 15.2081 13.7916 15.2081C13.7914 15.2081 13.7912 15.2081 13.7911 15.2081C13.7909 15.2081 13.7908 15.2081 13.7906 15.2081C13.7905 15.2081 13.7903 15.2081 13.7902 15.2081C13.79 15.2081 13.7899 15.2081 13.7897 15.2081C13.7896 15.2081 13.7894 15.2081 13.7893 15.2081C13.7891 15.2081 13.789 15.2081 13.7888 15.2081C13.7887 15.2081 13.7885 15.2081 13.7883 15.2081C13.7882 15.2081 13.788 15.2081 13.7879 15.2081C13.7877 15.2081 13.7876 15.2081 13.7874 15.2081C13.7873 15.2081 13.7871 15.2081 13.787 15.2081C13.7868 15.2081 13.7867 15.2081 13.7865 15.2081C13.7864 15.2081 13.7862 15.2081 13.7861 15.2081C13.7859 15.2081 13.7858 15.2081 13.7856 15.2081C13.7855 15.2081 13.7853 15.2081 13.7851 15.2081C13.785 15.2081 13.7848 15.2081 13.7847 15.2081C13.7845 15.2081 13.7844 15.2081 13.7842 15.2081C13.7841 15.2081 13.7839 15.2081 13.7838 15.2081C13.7836 15.2081 13.7835 15.2081 13.7833 15.2081C13.7832 15.2081 13.783 15.2081 13.7829 15.2081C13.7827 15.2081 13.7826 15.2081 13.7824 15.2081C13.7823 15.2081 13.7821 15.2081 13.7819 15.2081C13.7818 15.2081 13.7816 15.2081 13.7815 15.2081C13.7813 15.2081 13.7812 15.2081 13.781 15.2081C13.7809 15.2081 13.7807 15.2081 13.7806 15.2081C13.7804 15.2081 13.7803 15.2081 13.7801 15.2081C13.78 15.2081 13.7798 15.2081 13.7797 15.2081C13.7795 15.2081 13.7794 15.2081 13.7792 15.2081C13.7791 15.2081 13.7789 15.2081 13.7787 15.2081C13.7786 15.2081 13.7784 15.2081 13.7783 15.2081C13.7781 15.2081 13.778 15.2081 13.7778 15.2081C13.7777 15.2081 13.7775 15.2081 13.7774 15.2081C13.7772 15.2081 13.7771 15.2081 13.7769 15.2081C13.7768 15.2081 13.7766 15.2081 13.7765 15.2081C13.7763 15.2081 13.7762 15.2081 13.776 15.2081C13.7759 15.2081 13.7757 15.2081 13.7756 15.2081C13.7754 15.2081 13.7752 15.2081 13.7751 15.2081C13.7749 15.2081 13.7748 15.2081 13.7746 15.2081C13.7745 15.2081 13.7743 15.2081 13.7742 15.2081C13.774 15.2081 13.7739 15.2081 13.7737 15.2081C13.7736 15.2081 13.7734 15.2081 13.7733 15.2081C13.7731 15.2081 13.773 15.2081 13.7728 15.2081C13.7727 15.2081 13.7725 15.2081 13.7724 15.2081C13.7722 15.2081 13.7721 15.2081 13.7719 15.2081C13.7717 15.2081 13.7716 15.2081 13.7714 15.2081C13.7713 15.2081 13.7711 15.2081 13.771 15.2081C13.7708 15.2081 13.7707 15.2081 13.7705 15.2081C13.7704 15.2081 13.7702 15.2081 13.7701 15.2081C13.7699 15.2081 13.7698 15.2081 13.7696 15.2081C13.7695 15.2081 13.7693 15.2081 13.7692 15.2081C13.769 15.2081 13.7689 15.2081 13.7687 15.2081C13.7686 15.2081 13.7684 15.2081 13.7682 15.2081C13.7681 15.2081 13.7679 15.2081 13.7678 15.2081C13.7676 15.2081 13.7675 15.2081 13.7673 15.2081C13.7672 15.2081 13.767 15.2081 13.7669 15.2081C13.7667 15.2081 13.7666 15.2081 13.7664 15.2081C13.7663 15.2081 13.7661 15.2081 13.766 15.2081C13.7658 15.2081 13.7657 15.2081 13.7655 15.2081C13.7654 15.2081 13.7652 15.2081 13.7651 15.2081C13.7649 15.2081 13.7648 15.2081 13.7646 15.2081C13.7644 15.2081 13.7643 15.2081 13.7641 15.2081C13.764 15.2081 13.7638 15.2081 13.7637 15.2081C13.7635 15.2081 13.7634 15.2081 13.7632 15.2081C13.7631 15.2081 13.7629 15.2081 13.7628 15.2081C13.7626 15.2081 13.7625 15.2081 13.7623 15.2081C13.7622 15.2081 13.762 15.2081 13.7619 15.2081C13.7617 15.2081 13.7616 15.2081 13.7614 15.2081C13.7613 15.2081 13.7611 15.2081 13.761 15.2081C13.7608 15.2081 13.7606 15.2081 13.7605 15.2081C13.7603 15.2081 13.7602 15.2081 13.76 15.2081C13.7599 15.2081 13.7597 15.2081 13.7596 15.2081C13.7594 15.2081 13.7593 15.2081 13.7591 15.2081C13.759 15.2081 13.7588 15.2081 13.7587 15.2081C13.7585 15.2081 13.7584 15.2081 13.7582 15.2081C13.7581 15.2081 13.7579 15.2081 13.7578 15.2081C13.7576 15.2081 13.7575 15.2081 13.7573 15.2081C13.7572 15.2081 13.757 15.2081 13.7568 15.2081C13.7567 15.2081 13.7565 15.2081 13.7564 15.2081C13.7562 15.2081 13.7561 15.2081 13.7559 15.2081C13.7558 15.2081 13.7556 15.2081 13.7555 15.2081C13.7553 15.2081 13.7552 15.2081 13.755 15.2081C13.7549 15.2081 13.7547 15.2081 13.7546 15.2081C13.7544 15.2081 13.7543 15.2081 13.7541 15.2081C13.754 15.2081 13.7538 15.2081 13.7537 15.2081C13.7535 15.2081 13.7534 15.2081 13.7532 15.2081C13.753 15.2081 13.7529 15.2081 13.7527 15.2081C13.7526 15.2081 13.7524 15.2081 13.7523 15.2081C13.7521 15.2081 13.752 15.2081 13.7518 15.2081C13.7517 15.2081 13.7515 15.2081 13.7514 15.2081C13.7512 15.2081 13.7511 15.2081 13.7509 15.2081C13.7508 15.2081 13.7506 15.2081 13.7505 15.2081C13.7503 15.2081 13.7502 15.2081 13.75 15.2081C13.7499 15.2081 13.7497 15.2081 13.7496 15.2081C13.7494 15.2081 13.7493 15.2081 13.7491 15.2081C13.749 15.2081 13.7488 15.2081 13.7486 15.2081C13.7485 15.2081 13.7483 15.2081 13.7482 15.2081C13.748 15.2081 13.7479 15.2081 13.7477 15.2081C13.7476 15.2081 13.7474 15.2081 13.7473 15.2081C13.7471 15.2081 13.747 15.2081 13.7468 15.2081C13.7467 15.2081 13.7465 15.2081 13.7464 15.2081C13.7462 15.2081 13.7461 15.2081 13.7459 15.2081C13.7458 15.2081 13.7456 15.2081 13.7455 15.2081C13.7453 15.2081 13.7452 15.2081 13.745 15.2081C13.7449 15.2081 13.7447 15.2081 13.7445 15.2081C13.7444 15.2081 13.7442 15.2081 13.7441 15.2081C13.7439 15.2081 13.7438 15.2081 13.7436 15.2081C13.7435 15.2081 13.7433 15.2081 13.7432 15.2081C13.743 15.2081 13.7429 15.2081 13.7427 15.2081C13.7426 15.2081 13.7424 15.2081 13.7423 15.2081C13.7421 15.2081 13.742 15.2081 13.7418 15.2081C13.7417 15.2081 13.7415 15.2081 13.7414 15.2081C13.7412 15.2081 13.7411 15.2081 13.7409 15.2081C13.7408 15.2081 13.7406 15.2081 13.7404 15.2081C13.7403 15.2081 13.7401 15.2081 13.74 15.2081C13.7398 15.2081 13.7397 15.2081 13.7395 15.2081C13.7394 15.2081 13.7392 15.2081 13.7391 15.2081C13.7389 15.2081 13.7388 15.2081 13.7386 15.2081C13.7385 15.2081 13.7383 15.2081 13.7382 15.2081C13.738 15.2081 13.7379 15.2081 13.7377 15.2081C13.7376 15.2081 13.7374 15.2081 13.7373 15.2081C13.7371 15.2081 13.737 15.2081 13.7368 15.2081C13.7367 15.2081 13.7365 15.2081 13.7364 15.2081C13.7362 15.2081 13.736 15.2081 13.7359 15.2081C13.7357 15.2081 13.7356 15.2081 13.7354 15.2081C13.7353 15.2081 13.7351 15.2081 13.735 15.2081C13.7348 15.2081 13.7347 15.2081 13.7345 15.2081C13.7344 15.2081 13.7342 15.2081 13.7341 15.2081C13.7339 15.2081 13.7338 15.2081 13.7336 15.2081C13.7335 15.2081 13.7333 15.2081 13.7332 15.2081C13.733 15.2081 13.7329 15.2081 13.7327 15.2081C13.7326 15.2081 13.7324 15.2081 13.7323 15.2081C13.7321 15.2081 13.732 15.2081 13.7318 15.2081C13.7317 15.2081 13.7315 15.2081 13.7313 15.2081C13.7312 15.2081 13.731 15.2081 13.7309 15.2081C13.7307 15.2081 13.7306 15.2081 13.7304 15.2081C13.7303 15.2081 13.7301 15.2081 13.73 15.2081C13.7298 15.2081 13.7297 15.2081 13.7295 15.2081C13.7294 15.2081 13.7292 15.2081 13.7291 15.2081C13.7289 15.2081 13.7288 15.2081 13.7286 15.2081C13.7285 15.2081 13.7283 15.2081 13.7282 15.2081C13.728 15.2081 13.7279 15.2081 13.7277 15.2081C13.7276 15.2081 13.7274 15.2081 13.7273 15.2081C13.7271 15.2081 13.7269 15.2081 13.7268 15.2081C13.7266 15.2081 13.7265 15.2081 13.7263 15.2081C13.7262 15.2081 13.726 15.2081 13.7259 15.2081C13.7257 15.2081 13.7256 15.2081 13.7254 15.2081C13.7253 15.2081 13.7251 15.2081 13.725 15.2081C13.7248 15.2081 13.7247 15.2081 13.7245 15.2081C13.7244 15.2081 13.7242 15.2081 13.7241 15.2081C13.7239 15.2081 13.7238 15.2081 13.7236 15.2081C13.7235 15.2081 13.7233 15.2081 13.7232 15.2081C13.723 15.2081 13.7229 15.2081 13.7227 15.2081C13.7225 15.2081 13.7224 15.2081 13.7222 15.2081C13.7221 15.2081 13.7219 15.2081 13.7218 15.2081C13.7216 15.2081 13.7215 15.2081 13.7213 15.2081C13.7212 15.2081 13.721 15.2081 13.7209 15.2081C13.7207 15.2081 13.7206 15.2081 13.7204 15.2081C13.7203 15.2081 13.7201 15.2081 13.72 15.2081V17.2081ZM13.9514 17.208C15.0543 17.2151 15.9579 16.7186 16.5449 15.7927L14.8557 14.7218C14.637 15.0669 14.3757 15.2107 13.9642 15.2081L13.9514 17.208ZM16.5457 15.7915C16.9284 15.1858 17.1261 14.5353 17.219 13.8974L15.2398 13.6094C15.1773 14.0388 15.0547 14.407 14.855 14.723L16.5457 15.7915ZM17.2196 13.893C17.2941 13.3647 17.2349 12.598 16.5434 12.0518L15.3038 13.6213C15.2993 13.6177 15.286 13.6058 15.2719 13.5845C15.2579 13.5635 15.2501 13.5438 15.2464 13.5308C15.243 13.5191 15.2445 13.5182 15.245 13.5328C15.2455 13.5477 15.2448 13.5741 15.2392 13.6139L17.2196 13.893ZM16.5429 12.0514C15.8274 11.4871 15.1123 10.928 14.399 10.3703L13.1671 11.9459C13.8809 12.504 14.5928 13.0605 15.3043 13.6217L16.5429 12.0514ZM14.3973 10.369C13.9772 10.042 13.468 9.85901 12.9282 9.88784C12.3902 9.91659 11.9054 10.1511 11.5216 10.5111L12.8896 11.97C12.9765 11.8885 13.0281 11.8854 13.0349 11.885C13.04 11.8847 13.0841 11.8813 13.1688 11.9472L14.3973 10.369ZM11.5195 10.5131C11.3487 10.6741 11.1778 10.8341 11.0053 10.9956C10.8332 11.1567 10.6595 11.3193 10.4856 11.4833L11.8578 12.9383C12.0286 12.7772 12.1995 12.6172 12.372 12.4557C12.5441 12.2946 12.7178 12.132 12.8917 11.968L11.5195 10.5131ZM10.48 11.4886C10.4853 11.4835 10.5347 11.4365 10.6305 11.4003C10.7394 11.3591 10.8613 11.3498 10.9714 11.3732L10.5566 13.3297C11.1544 13.4564 11.6068 13.1788 11.8634 12.9329L10.48 11.4886ZM10.9699 11.3729C10.7089 11.3179 10.5028 11.2646 10.3257 11.1924L9.57143 13.0448C9.91848 13.1861 10.2658 13.2685 10.5581 13.33L10.9699 11.3729ZM10.3253 11.1923C8.56926 10.4781 7.20461 9.31303 6.18018 7.70914L4.49466 8.78571C5.73211 10.7231 7.41566 12.168 9.5718 13.0449L10.3253 11.1923ZM6.18034 7.7094C5.89329 7.25968 5.71454 6.78673 5.65617 6.2799L3.6693 6.50873C3.76625 7.3505 4.06318 8.10972 4.49449 8.78546L6.18034 7.7094ZM5.65588 6.27741C5.65127 6.23822 5.66132 6.27405 5.64056 6.34378C5.63008 6.37899 5.61475 6.41253 5.5966 6.44154C5.57901 6.46968 5.5638 6.48552 5.55916 6.49004L4.16433 5.05671C3.96456 5.2511 3.80842 5.48864 3.72374 5.77297C3.64231 6.04644 3.64508 6.303 3.66959 6.51122L5.65588 6.27741ZM5.56315 6.48614C5.89289 6.16165 6.21856 5.80545 6.50228 5.50839L5.05596 4.12703C4.72809 4.47032 4.46159 4.76416 4.16034 5.06061L5.56315 6.48614ZM6.50468 5.50587C6.87034 5.12033 7.10408 4.63113 7.12932 4.0906C7.15458 3.54977 6.9672 3.04026 6.63702 2.62174L5.06682 3.86048C5.13466 3.94647 5.13173 3.99241 5.1315 3.99732C5.13126 4.00254 5.12959 4.04938 5.05356 4.12955L6.50468 5.50587ZM6.63845 2.62355C6.07551 1.90658 5.53724 1.2383 4.99081 0.536132L3.41244 1.76444C3.95326 2.45939 4.53137 3.17852 5.0654 3.85866L6.63845 2.62355ZM4.99689 0.544029C4.66003 0.102146 4.19522 -0.12454 3.70606 -0.174425L3.50315 1.81525C3.50872 1.81582 3.48945 1.81441 3.45953 1.79828C3.44542 1.79068 3.43286 1.78185 3.42262 1.773C3.41249 1.76426 3.40735 1.75785 3.40636 1.75655L4.99689 0.544029ZM3.71244 -0.173754C2.79034 -0.27377 2.01119 0.0434888 1.4075 0.364188L2.34579 2.13043C2.81965 1.8787 3.16658 1.77877 3.49677 1.81458L3.71244 -0.173754ZM1.40595 0.365012C0.910728 0.629205 0.495915 0.99531 0.209143 1.47589C-0.0770704 1.95553 -0.202441 2.49332 -0.205742 3.05084L1.79422 3.06269C1.79578 2.80037 1.85242 2.62506 1.92661 2.50074C2.00023 2.37736 2.12419 2.24865 2.34733 2.12961L1.40595 0.365012ZM-0.205745 3.05139C-0.210966 4.02198 -0.116983 4.99172 0.0882766 5.94906L2.04383 5.52977C1.87049 4.72132 1.78974 3.89615 1.79423 3.06214L-0.205745 3.05139ZM0.0877363 5.94652C0.639324 8.55209 1.82144 10.8509 3.67248 12.7897L5.11907 11.4086C3.5336 9.74798 2.5218 7.78753 2.04437 5.53231L0.0877363 5.94652ZM3.67379 12.7911C6.39515 15.6308 9.77155 17.0779 13.6869 17.2075L13.753 15.2086C10.3391 15.0956 7.46379 13.8553 5.11776 11.4073L3.67379 12.7911Z" fill="#16A7E1" mask="url(#path-1-inside-1_1163_25486)"/>
</svg>
