<svg width="20" height="20" viewBox="0 0 20 20" fill="none" xmlns="http://www.w3.org/2000/svg">
<path d="M20 10.0086C19.9879 15.5875 15.5009 20.048 9.88042 19.9996C4.3755 19.9526 -0.0187531 15.4638 6.01843e-05 9.93529C0.0188735 4.44841 4.51996 -0.0107352 10.037 1.94129e-05C15.5318 0.010774 20.0127 4.51092 20 10.0086ZM18.2382 9.32899C18.2382 9.33168 18.2382 9.33437 18.2389 9.33706C18.3222 9.33706 18.4062 9.32899 18.4889 9.33908C18.6313 9.35588 18.6864 9.31824 18.6555 9.16162C18.6158 8.95796 18.6091 8.74757 18.5722 8.54323C18.1811 6.37483 17.141 4.58418 15.4223 3.20221C14.0738 2.11801 12.525 1.51441 10.805 1.343C10.6981 1.33225 10.6585 1.35174 10.6645 1.46735C10.6739 1.6475 10.6712 1.82831 10.6659 2.00912C10.6545 2.38217 10.3622 2.66919 9.99935 2.66851C9.63719 2.66784 9.34625 2.37948 9.33483 2.00643C9.3308 1.87469 9.32005 1.74093 9.33685 1.6112C9.36372 1.40619 9.29721 1.36048 9.09227 1.38401C7.5086 1.56482 6.064 2.10524 4.79276 3.0698C2.85364 4.54116 1.72081 6.49448 1.38015 8.90419C1.31901 9.33572 1.33043 9.33773 1.77254 9.33773C1.84914 9.33773 1.92507 9.33571 2.00166 9.3384C2.37592 9.34983 2.66416 9.63752 2.66685 9.99981C2.66954 10.3628 2.38398 10.6579 2.01174 10.6706C1.8525 10.676 1.69124 10.6834 1.53335 10.6686C1.38217 10.6545 1.3647 10.719 1.37948 10.8447C1.42786 11.2581 1.49303 11.6688 1.5871 12.0748C2.40749 15.6171 5.59299 18.3723 9.20515 18.6667C9.30191 18.6748 9.34155 18.6633 9.33685 18.5538C9.32811 18.3669 9.32946 18.1787 9.33617 17.9912C9.34827 17.6275 9.6345 17.3466 9.98994 17.3405C10.3528 17.3351 10.6531 17.6195 10.6665 17.9892C10.6733 18.1693 10.676 18.3508 10.6659 18.5309C10.6592 18.6539 10.6975 18.6775 10.8164 18.6654C12.183 18.5282 13.4623 18.1223 14.6167 17.3755C17.0087 15.8288 18.3484 13.6255 18.6615 10.7943C18.6736 10.6847 18.6387 10.6659 18.5413 10.6693C18.3538 10.676 18.1663 10.6767 17.9789 10.6693C17.6436 10.6565 17.3688 10.3964 17.3372 10.0711C17.305 9.74036 17.5173 9.43318 17.8465 9.35857C17.9722 9.32967 18.1072 9.33773 18.2382 9.32899Z" fill="#16A7E1"/>
<path d="M6.00083 5.33483C6.21718 5.33214 6.38113 5.43498 6.52962 5.58353C7.64699 6.7047 8.76773 7.82117 9.88175 8.94502C9.99664 9.06064 10.0571 9.07677 10.1895 8.96048C11.8504 7.49718 13.5181 6.04195 15.1844 4.58469C15.5137 4.29633 15.9269 4.30306 16.1815 4.59814C16.4321 4.88851 16.3898 5.29315 16.068 5.57479C14.2162 7.19941 12.3631 8.82202 10.5086 10.4433C10.1445 10.7619 9.80314 10.7498 9.46248 10.409C8.16033 9.10971 6.86154 7.80772 5.56006 6.50776C5.34169 6.2893 5.27315 6.03724 5.38268 5.74754C5.47674 5.49682 5.72938 5.33483 6.00083 5.33483Z" fill="#16A7E1"/>
</svg>
