<svg width="14" height="15" viewBox="0 0 14 15" fill="none" xmlns="http://www.w3.org/2000/svg">
<path d="M6.99929 14.6886C5.26251 14.6886 3.52528 14.689 1.78849 14.6882C0.911992 14.6877 0.215525 14.1253 0.0385604 13.2685C0.00921243 13.1257 0.00527016 12.9755 0.00527016 12.8287C0.00351804 9.52421 0.0109645 6.21928 1.37991e-05 2.91434C-0.00349044 1.88804 0.661001 1.27086 1.33294 1.10134C1.60802 1.03213 1.88617 1.06016 2.16388 1.05359C2.22389 1.05228 2.2839 1.05359 2.34391 1.05315C2.48058 1.05315 2.63126 1.08951 2.74953 1.04264C2.87437 0.993582 2.81436 0.81837 2.85903 0.70273C3.03994 0.232286 3.49505 -0.0537472 3.99616 0.00845302C4.46704 0.067149 4.85295 0.464442 4.89763 0.948903C4.90551 1.03432 4.92697 1.05491 5.00976 1.05491C6.33699 1.05228 7.66422 1.05228 8.99145 1.05491C9.07731 1.05491 9.09395 1.0295 9.10184 0.947151C9.15265 0.406622 9.60601 0.00363469 10.1522 0.00451075C10.6879 0.00582484 11.1404 0.410126 11.1895 0.943647C11.1982 1.03958 11.2272 1.05666 11.3134 1.05534C11.592 1.05053 11.8715 1.06717 12.1488 1.05096C13.094 0.99621 14.0117 1.74787 13.9999 2.89945C13.9837 4.46146 13.9959 6.02392 13.9959 7.58637C13.9959 9.33455 13.9929 11.0823 13.9977 12.8305C13.999 13.3894 13.8277 13.8703 13.4064 14.2466C13.077 14.541 12.6875 14.689 12.2429 14.689C10.4952 14.6882 8.74703 14.6886 6.99929 14.6886ZM7.00017 4.90344C4.9572 4.90344 2.91423 4.90519 0.871255 4.89993C0.731524 4.8995 0.703928 4.93804 0.704366 5.0712C0.708746 7.6604 0.707432 10.25 0.707432 12.8392C0.707432 13.5497 1.13758 13.9847 1.84631 13.9847C5.28222 13.986 8.71812 13.9851 12.1536 13.9847C12.2732 13.9847 12.3932 13.9812 12.5106 13.9483C12.9986 13.8112 13.2925 13.4109 13.2925 12.8721C13.2933 10.2772 13.2916 7.6823 13.296 5.08741C13.2964 4.94242 13.2662 4.89862 13.1124 4.89906C11.0747 4.90519 9.03745 4.90344 7.00017 4.90344ZM6.98571 4.19996C8.60248 4.19996 10.2188 4.19996 11.8356 4.19996C12.2832 4.19996 12.7314 4.19909 13.179 4.20084C13.253 4.20128 13.2964 4.19821 13.2951 4.09965C13.2885 3.65724 13.3021 3.21439 13.2885 2.77242C13.2714 2.22445 12.8645 1.80131 12.3183 1.76714C11.9863 1.74612 11.6525 1.7632 11.3196 1.754C11.2175 1.75137 11.1996 1.78379 11.1886 1.88059C11.1304 2.40404 10.6774 2.80089 10.1496 2.80352C9.61696 2.80615 9.16053 2.40404 9.10315 1.87139C9.09352 1.78072 9.07118 1.75488 8.98007 1.75488C7.65853 1.75751 6.33655 1.75751 5.01502 1.75532C4.93573 1.75532 4.90726 1.77065 4.89719 1.85957C4.83586 2.40886 4.38382 2.80965 3.84504 2.80352C3.30758 2.79739 2.86911 2.40272 2.80954 1.85957C2.7999 1.77021 2.77099 1.75444 2.69171 1.75532C2.38596 1.75926 2.07978 1.7505 1.77403 1.75838C1.13626 1.77503 0.71006 2.21744 0.706994 2.85871C0.705242 3.25206 0.714003 3.64542 0.702614 4.03833C0.698672 4.18025 0.742913 4.20303 0.873883 4.20303C2.9116 4.19865 4.94888 4.19996 6.98571 4.19996ZM3.51696 1.39482C3.51696 1.53104 3.50644 1.66815 3.51958 1.80262C3.53623 1.97477 3.68691 2.10048 3.85292 2.10092C4.01938 2.10136 4.17181 1.97696 4.18802 1.80438C4.21255 1.53849 4.21211 1.27042 4.18846 1.00453C4.17269 0.827131 4.02945 0.711491 3.85468 0.711053C3.68034 0.710615 3.53754 0.826255 3.51958 1.00278C3.50601 1.13244 3.51696 1.26385 3.51696 1.39482ZM9.80882 1.39701C9.80926 1.39701 9.80926 1.39701 9.80969 1.39701C9.80969 1.53324 9.79918 1.67034 9.81232 1.80481C9.8294 1.97608 9.98272 2.1018 10.1479 2.10048C10.3147 2.09917 10.465 1.97477 10.4803 1.80131C10.504 1.53543 10.5044 1.26735 10.4799 1.00147C10.4637 0.824941 10.3182 0.709739 10.1439 0.710615C9.96914 0.711491 9.82897 0.827131 9.81101 1.00497C9.79874 1.13507 9.80882 1.26647 9.80882 1.39701Z" fill="#16A7E1"/>
<path d="M3.32595 12.5908C3.15118 12.5908 2.9764 12.5921 2.80163 12.5904C2.43412 12.5869 2.13276 12.328 2.11348 11.9609C2.09333 11.5689 2.09333 11.1742 2.11173 10.7822C2.12925 10.4169 2.42536 10.1471 2.79112 10.1383C3.14592 10.13 3.50116 10.1308 3.85597 10.1379C4.2318 10.1449 4.5279 10.4134 4.5463 10.7883C4.56514 11.1751 4.56514 11.5641 4.54542 11.9509C4.52615 12.3284 4.22654 12.5878 3.84983 12.5908C3.6755 12.5917 3.50072 12.5908 3.32595 12.5908ZM3.85378 11.3893C3.85378 11.2286 3.84896 11.098 3.85553 10.9675C3.85991 10.8794 3.83932 10.8448 3.74208 10.847C3.46481 10.8536 3.18709 10.8532 2.90938 10.847C2.82003 10.8453 2.79944 10.8759 2.80338 10.9583C2.80951 11.0941 2.80382 11.2303 2.80513 11.3665C2.80688 11.5347 2.74644 11.7629 2.83185 11.8549C2.92997 11.9605 3.16037 11.8834 3.33296 11.8865C3.50072 11.8895 3.72675 11.9443 3.82092 11.8589C3.92824 11.7612 3.83932 11.5312 3.85378 11.3893Z" fill="#16A7E1"/>
<path d="M6.99405 12.5907C6.81928 12.5907 6.64451 12.592 6.46973 12.5902C6.10398 12.5867 5.80261 12.3256 5.78378 11.9581C5.76363 11.5661 5.76363 11.1714 5.7829 10.7794C5.80086 10.415 6.09785 10.146 6.46448 10.1381C6.81928 10.1302 7.17452 10.1307 7.52933 10.1377C7.90472 10.1451 8.19951 10.4145 8.21747 10.7904C8.23587 11.1771 8.23587 11.5661 8.21572 11.9524C8.19645 12.3287 7.89596 12.5872 7.51794 12.5898C7.3436 12.5915 7.16883 12.5907 6.99405 12.5907ZM7.01201 10.8495C6.87053 10.8495 6.72861 10.8556 6.58756 10.8473C6.49076 10.8416 6.47149 10.8788 6.47324 10.9669C6.47849 11.2336 6.48068 11.5004 6.47236 11.7667C6.46886 11.8745 6.50959 11.8911 6.60377 11.8894C6.87053 11.8837 7.13729 11.8846 7.40361 11.8889C7.4899 11.8902 7.52889 11.874 7.52626 11.7746C7.51925 11.5026 7.52101 11.2301 7.52539 10.9581C7.5267 10.8771 7.51005 10.8416 7.41938 10.8469C7.28447 10.8552 7.14824 10.8495 7.01201 10.8495Z" fill="#16A7E1"/>
<path d="M10.6674 12.5908C10.4926 12.5908 10.3178 12.5921 10.143 12.5904C9.77598 12.5869 9.47418 12.3276 9.45534 11.9605C9.43519 11.5685 9.43519 11.1738 9.45359 10.7818C9.47111 10.4169 9.76722 10.1471 10.1334 10.1383C10.4882 10.13 10.8435 10.1308 11.1983 10.1379C11.5741 10.1449 11.8702 10.4134 11.8882 10.7888C11.907 11.1755 11.907 11.5645 11.8873 11.9513C11.868 12.3289 11.5684 12.5882 11.1917 12.5908C11.0169 12.5917 10.8421 12.5908 10.6674 12.5908ZM11.1952 11.3919C11.1952 11.2264 11.1926 11.0906 11.1965 10.9543C11.1983 10.8847 11.1908 10.8457 11.1032 10.8475C10.815 10.8532 10.5263 10.8514 10.2381 10.8479C10.168 10.847 10.1426 10.8659 10.1452 10.9386C10.1505 11.0801 10.1457 11.2215 10.147 11.363C10.1483 11.5317 10.0865 11.7586 10.1715 11.8527C10.2683 11.9605 10.4992 11.8817 10.6717 11.8856C10.8395 11.8891 11.0638 11.9443 11.1606 11.8598C11.2705 11.7638 11.1794 11.5339 11.1952 11.3919Z" fill="#16A7E1"/>
<path d="M4.5529 7.52347C4.5529 7.70919 4.56341 7.89536 4.55071 8.0802C4.52399 8.47312 4.23489 8.74513 3.84285 8.75083C3.499 8.75608 3.15471 8.75608 2.81085 8.75083C2.42758 8.7447 2.1284 8.47443 2.11044 8.09247C2.09248 7.71095 2.09204 7.32767 2.11088 6.94615C2.12972 6.55936 2.42801 6.29917 2.81523 6.29786C3.15909 6.29655 3.50338 6.29655 3.84723 6.29786C4.22569 6.29961 4.51698 6.55805 4.54676 6.93432C4.56253 7.12968 4.54939 7.32723 4.54939 7.52347C4.55071 7.52347 4.55202 7.52347 4.5529 7.52347ZM3.32378 8.03859C3.46527 8.03859 3.60719 8.03334 3.74824 8.04034C3.83628 8.04472 3.85687 8.01362 3.85555 7.9304C3.85073 7.65838 3.85161 7.38593 3.85512 7.11391C3.85599 7.03594 3.84592 6.99564 3.75086 6.99783C3.4679 7.0044 3.18493 7.00309 2.90196 6.99827C2.81961 6.99696 2.80253 7.02806 2.80341 7.10296C2.80691 7.38067 2.80866 7.65838 2.80253 7.93565C2.80034 8.02808 2.83626 8.04297 2.91598 8.03991C3.05177 8.03465 3.188 8.03859 3.32378 8.03859Z" fill="#16A7E1"/>
<path d="M8.22185 7.52402C8.22185 7.71501 8.23368 7.90686 8.21922 8.09697C8.19075 8.47236 7.90516 8.74219 7.52933 8.75007C7.17452 8.75752 6.81928 8.75795 6.46448 8.74963C6.09697 8.74087 5.80042 8.47236 5.7829 8.10792C5.76363 7.71588 5.76363 7.32122 5.78378 6.92918C5.80261 6.56124 6.1031 6.29973 6.46973 6.29754C6.82454 6.29535 7.17978 6.29535 7.53458 6.29754C7.89158 6.30017 8.18506 6.56036 8.21528 6.91779C8.23193 7.11841 8.21835 7.32122 8.21835 7.52315C8.21966 7.52402 8.22054 7.52402 8.22185 7.52402ZM7.52451 7.54374C7.52451 7.38342 7.51706 7.25201 7.5267 7.12235C7.53458 7.01591 7.49253 6.9962 7.3966 6.99839C7.12984 7.00452 6.86308 7.00583 6.59676 6.99795C6.49076 6.99488 6.47061 7.03212 6.47324 7.12848C6.47937 7.38955 6.482 7.65105 6.47236 7.91212C6.46798 8.0282 6.51266 8.04616 6.61122 8.0409C6.74131 8.03345 6.87228 8.04002 7.00282 8.03871C7.17058 8.03696 7.39748 8.09828 7.49078 8.01374C7.5981 7.91606 7.51137 7.6861 7.52451 7.54374Z" fill="#16A7E1"/>
<path d="M10.6704 6.29754C10.8504 6.29754 11.0309 6.29579 11.2109 6.29798C11.5592 6.30236 11.8566 6.56079 11.8846 6.90771C11.9171 7.30501 11.9114 7.70493 11.8886 8.10266C11.8676 8.47017 11.5789 8.73999 11.2114 8.74963C10.8513 8.75927 10.4904 8.75927 10.1303 8.74963C9.7637 8.73999 9.47109 8.46885 9.45313 8.1031C9.4343 7.71632 9.43386 7.32735 9.45313 6.94057C9.47241 6.55598 9.77246 6.29973 10.1623 6.29798C10.3318 6.2971 10.5009 6.29754 10.6704 6.29754ZM10.1461 7.4973C10.1461 7.66244 10.1492 7.79867 10.1448 7.93489C10.1426 8.00585 10.1531 8.04265 10.2394 8.0409C10.5276 8.03564 10.8163 8.03695 11.1045 8.04046C11.1759 8.04134 11.1991 8.02031 11.1965 7.94847C11.1917 7.80699 11.1961 7.66551 11.1947 7.52402C11.193 7.35582 11.2548 7.12804 11.1698 7.0343C11.0725 6.92743 10.8417 7.0054 10.6691 7.00189C10.5013 6.99839 10.2762 6.94319 10.1807 7.02817C10.0712 7.12541 10.161 7.35538 10.1461 7.4973Z" fill="#16A7E1"/>
</svg>
