<svg width="22" height="16" viewBox="0 0 22 16" fill="none" xmlns="http://www.w3.org/2000/svg">
<path d="M22 13.9219C21.9311 13.9429 21.9349 14.0091 21.9182 14.0597C21.6248 14.9565 20.9363 15.4674 19.991 15.4679C13.9986 15.47 8.00613 15.4706 2.01368 15.4679C0.836397 15.4674 0.00309527 14.6297 0.00201866 13.4498C-0.000672886 9.6407 -0.000672886 5.83217 0.00201866 2.0231C0.00309527 0.833436 0.839627 0.0017495 2.03252 0.00121119C8.01044 -0.000403731 13.9889 -0.000403731 19.9668 0.00121119C20.9476 0.00121119 21.6318 0.510989 21.9316 1.44765C21.9467 1.49502 21.9257 1.56823 21.9995 1.5903C22 5.70082 22 9.81135 22 13.9219ZM2.25161 1.298C2.25 1.35721 2.29468 1.37497 2.32213 1.40189C4.74236 3.81136 7.16368 6.22029 9.58553 8.62761C9.71203 8.75357 9.84715 8.872 10.0038 8.96082C10.8403 9.43561 11.7355 9.30372 12.4499 8.59423C14.8518 6.20683 17.2521 3.81782 19.6546 1.43096C19.6917 1.39382 19.7483 1.37659 19.7951 1.34967C19.7784 1.33245 19.7617 1.31522 19.745 1.29746C13.9146 1.298 8.08418 1.298 2.25161 1.298ZM19.7574 14.1765C19.7499 14.148 19.7499 14.1404 19.7466 14.1372C17.9395 12.3398 16.1308 10.5434 14.3259 8.74334C14.2403 8.65829 14.1972 8.67336 14.1224 8.7498C13.8624 9.01627 13.5975 9.27788 13.3316 9.53843C11.974 10.8713 10.0275 10.8707 8.66717 9.53681C8.41148 9.28596 8.15416 9.03672 7.90816 8.77726C7.80749 8.67121 7.75043 8.66529 7.6417 8.77403C5.87766 10.5338 4.10878 12.2886 2.34258 14.0468C2.30813 14.0812 2.24084 14.1027 2.25646 14.1765C8.08741 14.1765 13.9146 14.1765 19.7574 14.1765ZM1.38547 2.1819C1.35694 2.20397 1.32841 2.2255 1.29988 2.24757C1.29988 5.90646 1.29988 9.56534 1.29988 13.2285C1.32141 13.2226 1.33649 13.2226 1.34402 13.2156C3.15274 11.4204 4.95984 9.62402 6.77125 7.83091C6.86814 7.73509 6.81485 7.69472 6.75026 7.62958C4.96092 5.81387 3.17319 3.99761 1.38547 2.1819ZM20.6408 13.2754C20.658 13.2581 20.6758 13.2409 20.693 13.2237C20.693 9.56265 20.693 5.90161 20.693 2.24004C20.6677 2.22066 20.6418 2.20128 20.6165 2.18136C18.8288 3.99708 17.0422 5.81441 15.2491 7.62528C15.1253 7.75016 15.2006 7.79646 15.2781 7.8729C17.0406 9.62348 18.8024 11.3741 20.5627 13.1268C20.5999 13.165 20.6149 13.2258 20.6408 13.2754Z" fill="#B3B2B2"/>
</svg>
