<svg width="25" height="24" viewBox="0 0 25 24" fill="none" xmlns="http://www.w3.org/2000/svg">
<path d="M24.0897 3.87093C23.9994 3.96727 24.0175 4.09973 23.9753 4.21414C23.8248 4.65971 23.584 5.04507 23.2528 5.37624C19.7303 8.90471 16.2019 12.4272 12.6794 15.9556C12.5409 16.0941 12.3784 16.1784 12.1977 16.2266C10.572 16.6721 8.95226 17.1237 7.32652 17.5693C6.76052 17.7259 6.38118 17.3345 6.53773 16.7685C6.98331 15.1427 7.4349 13.523 7.88048 11.8973C7.93467 11.6926 8.04305 11.53 8.18756 11.3855C11.6859 7.88711 15.1843 4.38876 18.6826 0.890397C19.8688 -0.295794 21.5066 -0.295794 22.6868 0.884376C22.9758 1.1734 23.2829 1.44435 23.5358 1.76348C23.8007 2.10067 23.9753 2.48001 24.0476 2.90752C24.0536 2.93763 24.0596 2.96774 24.0958 2.97376C24.0897 3.27482 24.0897 3.57588 24.0897 3.87093ZM20.9527 5.95429C20.9105 5.90612 20.8744 5.86999 20.8322 5.82784C19.9772 4.97282 19.1222 4.12382 18.2732 3.26278C18.1528 3.14235 18.0986 3.1845 18.0022 3.27482C15.1843 6.0988 12.3603 8.92277 9.53031 11.7407C9.39784 11.8732 9.42192 11.9274 9.53633 12.0418C10.3733 12.8667 11.2042 13.6976 12.0291 14.5406C12.1616 14.6731 12.2278 14.6851 12.3663 14.5466C14.2209 12.6861 16.0754 10.8255 17.936 8.97094C18.8874 8.01958 19.8447 7.0622 20.7961 6.11084C20.8503 6.06267 20.8985 6.0145 20.9527 5.95429ZM21.7715 5.05712C22.0365 4.81627 22.3255 4.5995 22.5543 4.33456C22.9999 3.81673 22.9878 3.02193 22.5603 2.49808C22.3074 2.18497 22.0124 1.91401 21.7234 1.64306C21.3079 1.25769 20.8142 1.13727 20.2662 1.2878C19.7243 1.43231 19.4293 1.89595 19.0439 2.24518C18.9777 2.3054 19.0499 2.34152 19.08 2.37163C19.9893 3.27482 20.8985 4.18403 21.7715 5.05712ZM8.81377 13.0714C8.54884 14.0228 8.28992 14.9802 8.01897 15.9315C7.9708 16.0941 7.98886 16.1423 8.1695 16.0881C8.79571 15.9074 9.42794 15.7328 10.0602 15.5582C10.3853 15.4679 10.7105 15.3776 11.0296 15.2873C10.283 14.5406 9.55439 13.812 8.81377 13.0714Z" fill="#16A7E1"/>
<path d="M11.4148 23.9879C8.6631 23.9879 5.91138 23.9879 3.15966 23.9879C2.31668 23.9879 1.57005 23.7531 0.949855 23.169C0.347728 22.597 0.00451595 21.8986 0.00451595 21.0676C-0.00150532 15.799 -0.00150532 10.5304 0.00451595 5.25577C0.00451595 3.75647 1.23286 2.46792 2.73215 2.35953C2.94892 2.34147 3.1717 2.33545 3.38847 2.33545C4.97809 2.33545 6.57372 2.33545 8.16334 2.33545C8.39215 2.33545 8.60891 2.36556 8.76547 2.54017C8.92804 2.72081 8.99427 2.93758 8.88589 3.17241C8.77149 3.41326 8.5788 3.55175 8.28978 3.55175C6.57974 3.54572 4.8697 3.54572 3.15966 3.55175C2.78032 3.55175 2.41302 3.61196 2.08185 3.81668C1.56402 4.13581 1.275 4.59945 1.22081 5.21362C1.21479 5.31598 1.20877 5.41834 1.20877 5.5207C1.20877 10.6207 1.20877 15.7147 1.20275 20.8147C1.20275 21.465 1.39543 22.013 1.9253 22.4164C2.27453 22.6873 2.68398 22.7837 3.11149 22.7837C8.64504 22.7837 14.1846 22.7897 19.7182 22.7837C20.6515 22.7837 21.3138 22.2839 21.5607 21.4169C21.6209 21.2121 21.6269 21.0014 21.6269 20.7906C21.6269 19.1107 21.6389 17.4368 21.6209 15.7569C21.6149 15.2631 22.0243 14.9982 22.3374 15.0704C22.5722 15.1246 22.777 15.3173 22.8191 15.5582C22.8312 15.6364 22.8372 15.7147 22.8372 15.793C22.8372 17.497 22.8432 19.195 22.8372 20.899C22.8312 22.314 22.0424 23.4219 20.7598 23.8495C20.3986 23.9699 20.0252 24 19.6459 24C16.9062 23.9879 14.1605 23.9879 11.4148 23.9879Z" fill="#16A7E1"/>
</svg>
