<svg width="18" height="17" viewBox="0 0 18 17" fill="none" xmlns="http://www.w3.org/2000/svg">
<mask id="path-1-inside-1_2509_29901" fill="white">
<path fill-rule="evenodd" clip-rule="evenodd" d="M16.6078 3.97672C16.8122 3.93673 16.9233 3.79011 17.0077 3.61682C17.0077 2.53266 17.0077 1.44406 17.0121 0.364348C16.9366 0.195504 16.8166 0.0755355 16.6478 0H13.3909C13.2131 0.084422 13.0665 0.199947 13.031 0.413224C12.9776 0.728695 13.2087 0.995291 13.533 0.995291H15.2748C15.2704 1.0064 15.2681 1.01529 15.2665 1.02195C15.2648 1.02862 15.2637 1.03306 15.2615 1.03528C14.7654 1.52234 14.2694 2.00826 13.7739 2.49363C13.2886 2.9691 12.8038 3.44403 12.32 3.91896C12.2623 3.97228 12.2312 3.96339 12.1734 3.91896C11.2092 3.19471 10.1295 2.87479 8.92538 3.02586C8.60991 3.06585 8.30332 3.13695 7.99229 3.2658C8.25889 3.50574 8.50327 3.73679 8.7121 4.00338C8.76542 4.07003 8.82763 4.0567 8.88983 4.04337C9.32527 3.95451 9.76071 3.96784 10.1917 4.06559C12.0623 4.4877 13.2087 6.19391 12.8977 8.08674C12.5733 10.0462 10.5561 11.3525 8.62324 10.8505C6.61044 10.3261 5.33078 8.02454 6.3394 5.98952C6.37494 5.91399 6.38383 5.86067 6.31274 5.78957C6.13945 5.61184 5.94839 5.45633 5.73511 5.32303C5.62403 5.25194 5.57516 5.26971 5.51739 5.38524C4.88201 6.60714 4.80203 7.86014 5.31745 9.1398C6.12168 11.1259 8.24111 12.299 10.3206 11.8813C13.5375 11.237 15.0615 7.50467 13.0532 4.81206C12.9732 4.70542 12.991 4.65654 13.0754 4.57656C13.7951 3.8791 14.5103 3.1772 15.2255 2.47529L15.2259 2.4749C15.4792 2.22608 15.7325 1.97725 16.0124 1.70621V1.89727C16.0124 2.07517 16.0119 2.25257 16.0114 2.42981C16.0104 2.78379 16.0094 3.13711 16.0124 3.49241C16.0124 3.80788 16.3056 4.03893 16.6078 3.97672ZM5.14419 11.8856C5.41523 11.85 5.68182 11.7878 5.97063 11.6856L5.95682 11.673C5.70865 11.4466 5.47379 11.2324 5.27748 10.9925C5.21528 10.9125 5.14863 10.8947 5.05088 10.9125C4.61988 11.0014 4.18888 10.9836 3.76677 10.8903C1.82507 10.4548 0.660932 8.61532 1.09193 6.67805C1.49627 4.86076 3.41576 3.66996 5.21528 4.0743C7.23252 4.52751 8.66325 6.85579 7.60576 8.97967C7.56577 9.05964 7.5791 9.10852 7.63686 9.16628C7.81015 9.34401 8.00121 9.49953 8.21448 9.63283C8.32556 9.69948 8.37 9.68615 8.4322 9.57062C9.09869 8.28207 9.15201 6.97131 8.56106 5.64722C7.65907 3.62553 5.37968 2.54582 3.30023 3.1501C0.95863 3.82992 -0.392122 6.06488 0.10108 8.45536C0.465428 10.2149 2.06945 11.6856 3.8512 11.8944C3.95783 11.9033 3.98894 11.9389 3.98894 12.0455C3.98449 12.6454 3.98449 13.2496 3.98894 13.8539C3.98894 13.965 3.95783 13.9872 3.8512 13.9872C3.51808 13.9806 3.18747 13.9814 2.85561 13.9822C2.74481 13.9825 2.63387 13.9828 2.52266 13.9828C2.21607 13.9828 1.99835 14.1827 1.99391 14.4715C1.98947 14.7692 2.20719 14.9781 2.5271 14.9781C2.63832 14.9781 2.74927 14.9784 2.86007 14.9786C3.19193 14.9795 3.52253 14.9803 3.85564 14.9736C3.96672 14.9736 3.98894 15.0047 3.98894 15.1114C3.98597 15.4135 3.98696 15.7157 3.98795 16.0178C3.98844 16.1689 3.98894 16.3199 3.98894 16.471C3.98894 16.782 4.19333 16.9953 4.48214 16.9998C4.77984 17.0042 4.98867 16.7865 4.98867 16.4666C4.98867 16.3544 4.98895 16.2422 4.98923 16.13C4.99006 15.7934 4.99089 15.4568 4.98423 15.1203C4.97978 14.9914 5.01977 14.9692 5.13974 14.9692C5.46646 14.9759 5.79568 14.975 6.12365 14.9742C6.23279 14.9739 6.34179 14.9736 6.45051 14.9736C6.76154 14.9736 6.97925 14.7692 6.97925 14.4804C6.9837 14.1827 6.76598 13.9783 6.44606 13.9783H6.44578C6.01043 13.9783 5.57065 13.9783 5.1353 13.9828C5.02422 13.9872 4.98423 13.9695 4.98423 13.845C4.99311 13.2452 4.99311 12.6498 4.98423 12.05C4.98423 11.9211 5.0331 11.8989 5.14419 11.8856Z"/>
</mask>
<path fill-rule="evenodd" clip-rule="evenodd" d="M16.6078 3.97672C16.8122 3.93673 16.9233 3.79011 17.0077 3.61682C17.0077 2.53266 17.0077 1.44406 17.0121 0.364348C16.9366 0.195504 16.8166 0.0755355 16.6478 0H13.3909C13.2131 0.084422 13.0665 0.199947 13.031 0.413224C12.9776 0.728695 13.2087 0.995291 13.533 0.995291H15.2748C15.2704 1.0064 15.2681 1.01529 15.2665 1.02195C15.2648 1.02862 15.2637 1.03306 15.2615 1.03528C14.7654 1.52234 14.2694 2.00826 13.7739 2.49363C13.2886 2.9691 12.8038 3.44403 12.32 3.91896C12.2623 3.97228 12.2312 3.96339 12.1734 3.91896C11.2092 3.19471 10.1295 2.87479 8.92538 3.02586C8.60991 3.06585 8.30332 3.13695 7.99229 3.2658C8.25889 3.50574 8.50327 3.73679 8.7121 4.00338C8.76542 4.07003 8.82763 4.0567 8.88983 4.04337C9.32527 3.95451 9.76071 3.96784 10.1917 4.06559C12.0623 4.4877 13.2087 6.19391 12.8977 8.08674C12.5733 10.0462 10.5561 11.3525 8.62324 10.8505C6.61044 10.3261 5.33078 8.02454 6.3394 5.98952C6.37494 5.91399 6.38383 5.86067 6.31274 5.78957C6.13945 5.61184 5.94839 5.45633 5.73511 5.32303C5.62403 5.25194 5.57516 5.26971 5.51739 5.38524C4.88201 6.60714 4.80203 7.86014 5.31745 9.1398C6.12168 11.1259 8.24111 12.299 10.3206 11.8813C13.5375 11.237 15.0615 7.50467 13.0532 4.81206C12.9732 4.70542 12.991 4.65654 13.0754 4.57656C13.7951 3.8791 14.5103 3.1772 15.2255 2.47529L15.2259 2.4749C15.4792 2.22608 15.7325 1.97725 16.0124 1.70621V1.89727C16.0124 2.07517 16.0119 2.25257 16.0114 2.42981C16.0104 2.78379 16.0094 3.13711 16.0124 3.49241C16.0124 3.80788 16.3056 4.03893 16.6078 3.97672ZM5.14419 11.8856C5.41523 11.85 5.68182 11.7878 5.97063 11.6856L5.95682 11.673C5.70865 11.4466 5.47379 11.2324 5.27748 10.9925C5.21528 10.9125 5.14863 10.8947 5.05088 10.9125C4.61988 11.0014 4.18888 10.9836 3.76677 10.8903C1.82507 10.4548 0.660932 8.61532 1.09193 6.67805C1.49627 4.86076 3.41576 3.66996 5.21528 4.0743C7.23252 4.52751 8.66325 6.85579 7.60576 8.97967C7.56577 9.05964 7.5791 9.10852 7.63686 9.16628C7.81015 9.34401 8.00121 9.49953 8.21448 9.63283C8.32556 9.69948 8.37 9.68615 8.4322 9.57062C9.09869 8.28207 9.15201 6.97131 8.56106 5.64722C7.65907 3.62553 5.37968 2.54582 3.30023 3.1501C0.95863 3.82992 -0.392122 6.06488 0.10108 8.45536C0.465428 10.2149 2.06945 11.6856 3.8512 11.8944C3.95783 11.9033 3.98894 11.9389 3.98894 12.0455C3.98449 12.6454 3.98449 13.2496 3.98894 13.8539C3.98894 13.965 3.95783 13.9872 3.8512 13.9872C3.51808 13.9806 3.18747 13.9814 2.85561 13.9822C2.74481 13.9825 2.63387 13.9828 2.52266 13.9828C2.21607 13.9828 1.99835 14.1827 1.99391 14.4715C1.98947 14.7692 2.20719 14.9781 2.5271 14.9781C2.63832 14.9781 2.74927 14.9784 2.86007 14.9786C3.19193 14.9795 3.52253 14.9803 3.85564 14.9736C3.96672 14.9736 3.98894 15.0047 3.98894 15.1114C3.98597 15.4135 3.98696 15.7157 3.98795 16.0178C3.98844 16.1689 3.98894 16.3199 3.98894 16.471C3.98894 16.782 4.19333 16.9953 4.48214 16.9998C4.77984 17.0042 4.98867 16.7865 4.98867 16.4666C4.98867 16.3544 4.98895 16.2422 4.98923 16.13C4.99006 15.7934 4.99089 15.4568 4.98423 15.1203C4.97978 14.9914 5.01977 14.9692 5.13974 14.9692C5.46646 14.9759 5.79568 14.975 6.12365 14.9742C6.23279 14.9739 6.34179 14.9736 6.45051 14.9736C6.76154 14.9736 6.97925 14.7692 6.97925 14.4804C6.9837 14.1827 6.76598 13.9783 6.44606 13.9783H6.44578C6.01043 13.9783 5.57065 13.9783 5.1353 13.9828C5.02422 13.9872 4.98423 13.9695 4.98423 13.845C4.99311 13.2452 4.99311 12.6498 4.98423 12.05C4.98423 11.9211 5.0331 11.8989 5.14419 11.8856Z" fill="#16A7E1"/>
<path d="M17.0077 3.61682L17.9067 4.05478L18.0077 3.84745V3.61682H17.0077ZM16.6078 3.97672L16.4158 2.99528L16.4061 2.99727L16.6078 3.97672ZM17.0121 0.364348L18.0121 0.368464L18.013 0.15282L17.9249 -0.0440238L17.0121 0.364348ZM16.6478 0L17.0561 -0.91282L16.8613 -1H16.6478V0ZM13.3909 0V-1H13.1654L12.9618 -0.903277L13.3909 0ZM13.031 0.413224L14.017 0.579874L14.0173 0.577623L13.031 0.413224ZM15.2748 0.995291L16.2033 1.36669L16.7518 -0.00470865H15.2748V0.995291ZM15.2665 1.02195L16.2366 1.26458L16.2366 1.26447L15.2665 1.02195ZM15.2615 1.03528L15.9621 1.74884L15.9685 1.74244L15.2615 1.03528ZM13.7739 2.49363L14.4737 3.20798L14.4737 3.20798L13.7739 2.49363ZM12.32 3.91896L12.9983 4.65376L13.0096 4.64331L13.0206 4.63252L12.32 3.91896ZM12.1734 3.91896L12.7832 3.12629L12.774 3.1194L12.1734 3.91896ZM8.92538 3.02586L8.80089 2.03364L8.79962 2.0338L8.92538 3.02586ZM7.99229 3.2658L7.60955 2.34194L6.14507 2.94866L7.32333 4.00909L7.99229 3.2658ZM8.7121 4.00338L7.92483 4.62008L7.93123 4.62808L8.7121 4.00338ZM8.88983 4.04337L8.68986 3.06352L8.6803 3.06557L8.88983 4.04337ZM10.1917 4.06559L9.97052 5.04082L9.97159 5.04106L10.1917 4.06559ZM12.8977 8.08674L13.8842 8.25005L13.8844 8.24889L12.8977 8.08674ZM8.62324 10.8505L8.37116 11.8182L8.37181 11.8183L8.62324 10.8505ZM6.3394 5.98952L7.23538 6.4336L7.23989 6.42451L7.24422 6.41532L6.3394 5.98952ZM6.31274 5.78957L5.59668 6.48773L5.60563 6.49668L6.31274 5.78957ZM5.73511 5.32303L5.19603 6.16535L5.20511 6.17103L5.73511 5.32303ZM5.51739 5.38524L6.40461 5.84659L6.40827 5.83955L6.41182 5.83245L5.51739 5.38524ZM5.31745 9.1398L4.38986 9.51341L4.39055 9.51512L5.31745 9.1398ZM10.3206 11.8813L10.1242 10.9008L10.1236 10.9009L10.3206 11.8813ZM13.0532 4.81206L13.8548 4.21417L13.8532 4.21205L13.0532 4.81206ZM13.0754 4.57656L13.7632 5.30256L13.7713 5.29467L13.0754 4.57656ZM15.2255 2.47529L15.926 3.18901L15.9262 3.18878L15.2255 2.47529ZM15.2259 2.4749L15.9266 3.18839L15.9268 3.18823L15.2259 2.4749ZM16.0124 1.70621H17.0124V-0.653984L15.3168 0.987795L16.0124 1.70621ZM16.0114 2.42981L17.0114 2.4326L17.0114 2.43259L16.0114 2.42981ZM16.0124 3.49241L17.0124 3.49241L17.0123 3.48408L16.0124 3.49241ZM5.97063 11.6856L6.30421 12.6283L7.87762 12.0716L6.64456 10.9468L5.97063 11.6856ZM5.14419 11.8856L5.26334 12.8785L5.27422 12.8771L5.14419 11.8856ZM5.95682 11.673L5.2829 12.4118L5.2829 12.4118L5.95682 11.673ZM5.27748 10.9925L4.48813 11.6064L4.49571 11.6162L4.50353 11.6257L5.27748 10.9925ZM5.05088 10.9125L4.872 9.92862L4.86044 9.93072L4.84894 9.93309L5.05088 10.9125ZM3.76677 10.8903L3.54795 11.866L3.55093 11.8667L3.76677 10.8903ZM1.09193 6.67805L0.115797 6.46087L0.115794 6.46089L1.09193 6.67805ZM5.21528 4.0743L4.99605 5.04998L4.99607 5.04998L5.21528 4.0743ZM7.60576 8.97967L8.50018 9.42689L8.50093 9.42538L7.60576 8.97967ZM7.63686 9.16628L8.35292 8.46813L8.34397 8.45918L7.63686 9.16628ZM8.21448 9.63283L7.68449 10.4808L7.69219 10.4856L7.69999 10.4903L8.21448 9.63283ZM8.4322 9.57062L9.31267 10.0447L9.31661 10.0374L9.32042 10.03L8.4322 9.57062ZM8.56106 5.64722L7.64783 6.05466L7.64788 6.05478L8.56106 5.64722ZM3.30023 3.1501L3.57904 4.11045L3.57929 4.11038L3.30023 3.1501ZM0.10108 8.45536L-0.878293 8.65742L-0.878147 8.65813L0.10108 8.45536ZM3.8512 11.8944L3.73479 12.8876L3.75144 12.8896L3.76815 12.891L3.8512 11.8944ZM3.98894 12.0455L4.98894 12.0529V12.0455H3.98894ZM3.98894 13.8539L4.98896 13.8539L4.98891 13.8466L3.98894 13.8539ZM3.8512 13.9872L3.8312 14.987L3.8412 14.9872H3.8512V13.9872ZM2.85561 13.9822L2.85811 14.9822L2.85812 14.9822L2.85561 13.9822ZM1.99391 14.4715L0.994029 14.4562L0.994022 14.4566L1.99391 14.4715ZM2.86007 14.9786L2.85756 15.9786L2.85756 15.9786L2.86007 14.9786ZM3.85564 14.9736V13.9736H3.84564L3.83564 13.9738L3.85564 14.9736ZM3.98894 15.1114L4.98894 15.1212V15.1114H3.98894ZM3.98795 16.0178L2.98795 16.0211L2.98795 16.0211L3.98795 16.0178ZM4.48214 16.9998L4.46675 17.9996L4.46721 17.9996L4.48214 16.9998ZM4.98923 16.13L5.98922 16.1325L5.98922 16.1325L4.98923 16.13ZM4.98423 15.1203L5.98403 15.1005L5.98389 15.0931L5.98363 15.0858L4.98423 15.1203ZM5.13974 14.9692L5.16014 13.9694L5.14994 13.9692H5.13974V14.9692ZM6.12365 14.9742L6.12619 15.9742L6.12619 15.9742L6.12365 14.9742ZM6.97925 14.4804L5.97937 14.4655L5.97925 14.473V14.4804H6.97925ZM5.1353 13.9828L5.1251 12.9828L5.11021 12.983L5.09533 12.9836L5.1353 13.9828ZM4.98423 13.845L3.98434 13.8302L3.98423 13.8376V13.845H4.98423ZM4.98423 12.05H3.98423V12.0574L3.98434 12.0648L4.98423 12.05ZM16.1087 3.17885C16.0894 3.21845 16.099 3.18582 16.1487 3.13657C16.1765 3.10905 16.2153 3.0776 16.2658 3.05009C16.3168 3.02225 16.3685 3.00458 16.4158 2.99533L16.7998 4.95811C17.4721 4.82657 17.777 4.32098 17.9067 4.05478L16.1087 3.17885ZM16.0121 0.360232C16.0077 1.44235 16.0077 2.53301 16.0077 3.61682H18.0077C18.0077 2.53231 18.0077 1.44577 18.0121 0.368464L16.0121 0.360232ZM16.2394 0.91282C16.2221 0.905059 16.1906 0.887036 16.1578 0.85429C16.1251 0.821544 16.1071 0.790063 16.0993 0.772719L17.9249 -0.0440238C17.749 -0.437311 17.4494 -0.73687 17.0561 -0.91282L16.2394 0.91282ZM13.3909 1H16.6478V-1H13.3909V1ZM14.0173 0.577623C14.01 0.621777 13.9946 0.672936 13.9678 0.725378C13.9412 0.777466 13.9094 0.819074 13.8797 0.850063C13.8256 0.906577 13.7865 0.919169 13.8199 0.903277L12.9618 -0.903277C12.6662 -0.762852 12.1596 -0.441612 12.0446 0.248824L14.0173 0.577623ZM13.533 -0.00470865C13.6526 -0.00470865 13.7931 0.0484259 13.8971 0.168837C14.0023 0.290641 14.0395 0.44663 14.017 0.579874L12.0449 0.246574C11.8848 1.19417 12.6123 1.99529 13.533 1.99529V-0.00470865ZM15.2748 -0.00470865H13.533V1.99529H15.2748V-0.00470865ZM16.2366 1.26447C16.2376 1.26074 16.2338 1.27606 16.2282 1.29486C16.2222 1.31522 16.2141 1.33966 16.2033 1.36669L14.3463 0.623894C14.3152 0.70162 14.2997 0.765831 14.2963 0.779431L16.2366 1.26447ZM15.9685 1.74244C16.1346 1.57642 16.1954 1.39737 16.2098 1.35542C16.2208 1.32356 16.2279 1.29771 16.231 1.28614C16.2328 1.27951 16.2342 1.27406 16.235 1.27085C16.2358 1.26779 16.2365 1.265 16.2366 1.26458L14.2964 0.779324C14.2918 0.797589 14.3022 0.752713 14.3185 0.705146C14.3284 0.676382 14.3476 0.624815 14.3799 0.56399C14.4126 0.502447 14.4671 0.415397 14.5544 0.328117L15.9685 1.74244ZM14.4737 3.20798C14.9691 2.72268 15.4656 2.23635 15.9621 1.74882L14.5609 0.321746C14.0653 0.808329 13.5697 1.29385 13.0741 1.77928L14.4737 3.20798ZM13.0206 4.63252C13.5039 4.15805 13.9883 3.68351 14.4737 3.20798L13.0741 1.77928C12.5889 2.25468 12.1036 2.73001 11.6194 3.2054L13.0206 4.63252ZM11.5637 4.71158C11.5816 4.72535 11.8288 4.93597 12.1968 4.95437C12.6313 4.9761 12.9119 4.73354 12.9983 4.65376L11.6417 3.18416C11.6704 3.1577 11.9066 2.93736 12.2967 2.95686C12.4732 2.96569 12.6049 3.02186 12.6762 3.05917C12.7119 3.07787 12.7386 3.09506 12.7542 3.10562C12.7699 3.11625 12.7804 3.12423 12.7831 3.12634L11.5637 4.71158ZM9.04986 4.01808C9.97742 3.90171 10.8003 4.13824 11.5728 4.71852L12.774 3.1194C11.6181 2.25117 10.2816 1.84787 8.80089 2.03364L9.04986 4.01808ZM8.37503 4.18966C8.58777 4.10152 8.8049 4.04914 9.05113 4.01792L8.79962 2.0338C8.41491 2.08257 8.01887 2.17237 7.60955 2.34194L8.37503 4.18966ZM9.49933 3.38672C9.23334 3.04716 8.93337 2.76741 8.66126 2.52251L7.32333 4.00909C7.58441 4.24407 7.7732 4.42641 7.92487 4.62004L9.49933 3.38672ZM8.6803 3.06557C8.65784 3.07038 8.6802 3.06507 8.7094 3.06113C8.7426 3.05664 8.8147 3.04911 8.90807 3.05949C9.00752 3.07054 9.1227 3.10096 9.23782 3.16467C9.35186 3.22777 9.43538 3.30669 9.49297 3.37869L7.93123 4.62808C8.12168 4.86613 8.39062 5.0143 8.6872 5.04725C8.81056 5.06096 8.91321 5.05176 8.97723 5.04311C9.03726 5.035 9.09072 5.02302 9.09936 5.02117L8.6803 3.06557ZM10.4129 3.09036C9.85649 2.96416 9.27697 2.94375 8.68987 3.06357L9.08979 5.02318C9.37357 4.96526 9.66494 4.97151 9.97052 5.04082L10.4129 3.09036ZM13.8844 8.24889C14.281 5.83532 12.8004 3.6291 10.4118 3.09011L9.97159 5.04106C11.3242 5.34629 12.1364 6.55251 11.9109 7.9246L13.8844 8.24889ZM8.37181 11.8183C10.8695 12.4672 13.4632 10.7936 13.8842 8.25005L11.9111 7.92343C11.6834 9.29888 10.2426 10.2379 8.87466 9.88258L8.37181 11.8183ZM5.44341 5.54544C4.12188 8.21178 5.81451 11.1522 8.37116 11.8182L8.87531 9.88275C7.40636 9.50011 6.53967 7.83729 7.23538 6.4336L5.44341 5.54544ZM5.60563 6.49668C5.53751 6.42856 5.38877 6.24655 5.36851 5.95789C5.35962 5.83116 5.3797 5.72901 5.3978 5.66486C5.41459 5.60536 5.43333 5.56638 5.43458 5.56372L7.24422 6.41532C7.27282 6.35453 7.38497 6.12231 7.3636 5.81788C7.3389 5.46589 7.15905 5.22168 7.01984 5.08246L5.60563 6.49668ZM5.20511 6.17103C5.34834 6.26054 5.47732 6.3652 5.59674 6.48767L7.02874 5.09147C6.80158 4.85849 6.54844 4.65212 6.26511 4.47503L5.20511 6.17103ZM6.41182 5.83245C6.41052 5.83505 6.38149 5.89536 6.31853 5.96861C6.24936 6.04908 6.11203 6.17645 5.89361 6.24198C5.67174 6.30854 5.48079 6.27709 5.36694 6.24188C5.26536 6.21047 5.20282 6.16963 5.19606 6.1653L6.27417 4.48076C6.20599 4.43713 5.81703 4.17689 5.31891 4.32633C4.83967 4.4701 4.65114 4.88168 4.62297 4.93802L6.41182 5.83245ZM6.24503 8.76619C5.84281 7.76756 5.8988 6.8193 6.40461 5.84659L4.63018 4.92388C3.86521 6.39497 3.76125 7.95271 4.38986 9.51341L6.24503 8.76619ZM10.1236 10.9009C8.5301 11.2209 6.87376 10.3189 6.24434 8.76448L4.39055 9.51512C5.3696 11.933 7.95213 13.377 10.5175 12.8617L10.1236 10.9009ZM12.2516 5.40994C13.8071 7.49537 12.6436 10.3962 10.1242 10.9008L10.5169 12.8618C14.4313 12.0779 16.316 7.51398 13.8548 4.21417L12.2516 5.40994ZM12.3876 3.85061C12.3476 3.88858 12.0704 4.13243 12.0124 4.54506C11.9492 4.99431 12.1796 5.31395 12.2532 5.41206L13.8532 4.21205C13.8606 4.22198 13.9033 4.27893 13.9406 4.3728C13.9826 4.47872 14.0192 4.63631 13.9929 4.82356C13.9673 5.00552 13.8933 5.13579 13.8434 5.20687C13.819 5.24162 13.7975 5.26635 13.785 5.27998C13.7724 5.29373 13.7639 5.30182 13.7631 5.30252L12.3876 3.85061ZM14.5251 1.76156C13.8095 2.46384 13.0965 3.16354 12.3794 3.85846L13.7713 5.29467C14.4936 4.59466 15.2111 3.89055 15.926 3.18901L14.5251 1.76156ZM14.5253 1.7614L14.5249 1.7618L15.9262 3.18878L15.9266 3.18839L14.5253 1.7614ZM15.3168 0.987795C15.0339 1.26173 14.7781 1.51299 14.5251 1.76156L15.9268 3.18823C16.1803 2.93917 16.4311 2.69278 16.708 2.42463L15.3168 0.987795ZM17.0124 1.89727V1.70621H15.0124V1.89727H17.0124ZM17.0114 2.43259C17.0119 2.25558 17.0124 2.07679 17.0124 1.89727H15.0124C15.0124 2.07355 15.0119 2.24956 15.0114 2.42702L17.0114 2.43259ZM17.0123 3.48408C17.0094 3.13526 17.0104 2.78748 17.0114 2.4326L15.0114 2.42702C15.0104 2.7801 15.0094 3.13896 15.0124 3.50074L17.0123 3.48408ZM16.4061 2.99727C16.7117 2.93435 17.0124 3.1617 17.0124 3.49241H15.0124C15.0124 4.45406 15.8996 5.1435 16.8094 4.95618L16.4061 2.99727ZM5.63706 10.7429C5.41402 10.8218 5.21564 10.8676 5.01415 10.8941L5.27422 12.8771C5.61481 12.8324 5.94962 12.7538 6.30421 12.6283L5.63706 10.7429ZM5.2829 12.4118L5.29671 12.4244L6.64456 10.9468L6.63075 10.9342L5.2829 12.4118ZM4.50353 11.6257C4.7542 11.9321 5.04559 12.1953 5.2829 12.4118L6.63075 10.9342C6.37171 10.6979 6.19339 10.5327 6.05144 10.3592L4.50353 11.6257ZM5.22976 11.8964C5.18931 11.9037 5.04411 11.9254 4.86128 11.8645C4.66464 11.799 4.54457 11.679 4.48813 11.6064L6.06684 10.3785C5.94819 10.226 5.7637 10.0571 5.49374 9.96714C5.2376 9.88176 5.0102 9.90349 4.872 9.92862L5.22976 11.8964ZM3.55093 11.8667C4.08815 11.9855 4.66309 12.0135 5.25281 11.8919L4.84894 9.93309C4.57667 9.98923 4.28962 9.98171 3.98262 9.91384L3.55093 11.8667ZM0.115794 6.46089C-0.43486 8.93599 1.06737 11.3097 3.54795 11.866L3.9856 9.91451C2.58276 9.59991 1.75672 8.29465 2.06806 6.89522L0.115794 6.46089ZM5.4345 3.09863C3.10403 2.57499 0.642186 4.09501 0.115797 6.46087L2.06806 6.89524C2.35034 5.62651 3.72748 4.76494 4.99605 5.04998L5.4345 3.09863ZM8.50093 9.42538C9.88752 6.64056 7.99469 3.67382 5.43448 3.09862L4.99607 5.04998C6.47035 5.38121 7.43899 7.07101 6.71058 8.53395L8.50093 9.42538ZM8.34397 8.45918C8.37562 8.49083 8.51874 8.63846 8.56731 8.8959C8.61781 9.16355 8.53241 9.36242 8.50018 9.42688L6.71133 8.53245C6.63911 8.67689 6.54038 8.94019 6.60199 9.26671C6.66167 9.58302 6.84033 9.78397 6.92975 9.87338L8.34397 8.45918ZM8.74448 8.78483C8.60126 8.69532 8.47228 8.59066 8.35286 8.46818L6.92086 9.86438C7.14802 10.0974 7.40115 10.3037 7.68449 10.4808L8.74448 8.78483ZM7.55173 9.09652C7.55326 9.09369 7.56031 9.0807 7.57268 9.06179C7.58481 9.04325 7.60711 9.0112 7.64068 8.9735C7.70899 8.89677 7.84665 8.77199 8.06481 8.70913C8.28521 8.64562 8.47194 8.67859 8.57778 8.7108C8.62883 8.72633 8.66681 8.74326 8.68861 8.7538C8.71078 8.76453 8.72503 8.77296 8.72898 8.77533L7.69999 10.4903C7.74896 10.5197 8.13273 10.7709 8.61854 10.6309C9.09295 10.4943 9.28851 10.0896 9.31267 10.0447L7.55173 9.09652ZM7.64788 6.05478C8.11127 7.09305 8.07485 8.08486 7.54398 9.1112L9.32042 10.03C10.1225 8.47928 10.1928 6.84957 9.47424 5.23966L7.64788 6.05478ZM3.57929 4.11038C5.1642 3.64981 6.94304 4.47497 7.64783 6.05466L9.47429 5.23978C8.37511 2.77609 5.59516 1.44183 3.02118 2.18983L3.57929 4.11038ZM1.08045 8.2533C0.692854 6.37467 1.73746 4.6451 3.57904 4.11045L3.02142 2.18976C0.179803 3.01474 -1.4771 5.7551 -0.878292 8.65742L1.08045 8.2533ZM3.96761 10.9012C2.61449 10.7427 1.35747 9.59111 1.08031 8.25259L-0.878147 8.65813C-0.426618 10.8387 1.5244 12.6286 3.73479 12.8876L3.96761 10.9012ZM4.98894 12.0455C4.98894 11.9504 4.98884 11.5799 4.70159 11.2624C4.41025 10.9404 4.03669 10.9064 3.93424 10.8979L3.76815 12.891C3.75203 12.8897 3.68135 12.8835 3.58833 12.851C3.48524 12.815 3.34401 12.7429 3.21852 12.6042C3.09366 12.4662 3.03701 12.3204 3.01184 12.219C2.98903 12.1271 2.98894 12.0593 2.98894 12.0455H4.98894ZM4.98891 13.8466C4.9845 13.2472 4.9845 12.6478 4.98891 12.0529L2.98896 12.0381C2.98448 12.6429 2.98448 13.2521 2.98896 13.8613L4.98891 13.8466ZM3.8512 14.9872C3.8764 14.9872 4.29722 15.0112 4.63753 14.6978C5.0036 14.3606 4.98894 13.9147 4.98894 13.8539H2.98894C2.98894 13.8468 2.98811 13.7723 3.01431 13.6711C3.04414 13.5558 3.11593 13.3802 3.28258 13.2267C3.44459 13.0775 3.61551 13.024 3.70921 13.004C3.75589 12.994 3.7927 12.9904 3.81337 12.9888C3.83443 12.9873 3.84841 12.9872 3.8512 12.9872V14.9872ZM2.85812 14.9822C3.1918 14.9814 3.5112 14.9806 3.8312 14.987L3.87119 12.9874C3.52497 12.9805 3.18314 12.9814 2.8531 12.9822L2.85812 14.9822ZM2.52266 14.9828C2.63534 14.9828 2.74753 14.9825 2.85811 14.9822L2.8531 12.9822C2.74209 12.9825 2.63241 12.9828 2.52266 12.9828V14.9828ZM2.99379 14.4869C2.99203 14.6015 2.9417 14.7444 2.82308 14.8538C2.70922 14.9589 2.58833 14.9828 2.52266 14.9828V12.9828C2.1504 12.9828 1.76736 13.1067 1.46688 13.3839C1.16165 13.6655 1.00023 14.0528 0.994029 14.4562L2.99379 14.4869ZM2.5271 13.9781C2.58631 13.9781 2.71095 14.0003 2.82864 14.1124C2.95109 14.2291 2.99543 14.3771 2.9938 14.4865L0.994022 14.4566C0.987947 14.8637 1.13893 15.265 1.44911 15.5605C1.75452 15.8514 2.14798 15.9781 2.5271 15.9781V13.9781ZM2.86258 13.9786C2.75198 13.9784 2.63979 13.9781 2.5271 13.9781V15.9781C2.63686 15.9781 2.74655 15.9783 2.85756 15.9786L2.86258 13.9786ZM3.83564 13.9738C3.51565 13.9802 3.19626 13.9795 2.86258 13.9786L2.85756 15.9786C3.18759 15.9795 3.52942 15.9804 3.87564 15.9734L3.83564 13.9738ZM4.98894 15.1114C4.98894 15.0862 5.01293 14.6653 4.69949 14.325C4.36232 13.959 3.91636 13.9736 3.85564 13.9736V15.9736C3.84846 15.9736 3.77398 15.9745 3.67276 15.9483C3.55753 15.9184 3.38189 15.8466 3.2284 15.68C3.07917 15.518 3.02568 15.3471 3.00571 15.2534C2.99575 15.2067 2.99208 15.1699 2.99053 15.1492C2.98896 15.1281 2.98894 15.1142 2.98894 15.1114H4.98894ZM4.98794 16.0145C4.98695 15.7113 4.986 15.4157 4.98889 15.1212L2.98898 15.1016C2.98595 15.4113 2.98697 15.72 2.98795 16.0211L4.98794 16.0145ZM4.98894 16.471C4.98894 16.318 4.98844 16.1653 4.98794 16.0145L2.98795 16.0211C2.98845 16.1724 2.98894 16.3218 2.98894 16.471H4.98894ZM4.49753 15.9999C4.60472 16.0015 4.74509 16.0476 4.85582 16.1654C4.96394 16.2804 4.98894 16.4044 4.98894 16.471H2.98894C2.98894 16.8487 3.11612 17.2348 3.39865 17.5353C3.68377 17.8386 4.07075 17.9935 4.46675 17.9996L4.49753 15.9999ZM3.98867 16.4666C3.98867 16.4074 4.01089 16.2827 4.12301 16.165C4.23966 16.0426 4.38772 15.9982 4.49707 15.9999L4.46721 17.9996C4.87425 18.0057 5.27558 17.8547 5.57108 17.5446C5.86203 17.2392 5.98867 16.8457 5.98867 16.4666H3.98867ZM3.98923 16.1275C3.98895 16.2395 3.98867 16.3529 3.98867 16.4666H5.98867C5.98867 16.3558 5.98895 16.2449 5.98922 16.1325L3.98923 16.1275ZM3.98442 15.1401C3.99083 15.4636 3.99007 15.7891 3.98923 16.1275L5.98922 16.1325C5.99005 15.7977 5.99095 15.45 5.98403 15.1005L3.98442 15.1401ZM5.13974 13.9692C5.0906 13.9692 4.98717 13.9704 4.86873 13.994C4.74395 14.0188 4.54139 14.0802 4.35203 14.2481C3.95653 14.5986 3.982 15.0728 3.98482 15.1547L5.98363 15.0858C5.98392 15.094 5.98747 15.1735 5.96051 15.2825C5.92937 15.4083 5.85279 15.5904 5.67864 15.7448C5.51371 15.8909 5.34337 15.9387 5.25968 15.9554C5.21667 15.964 5.18357 15.9669 5.16664 15.9681C5.15749 15.9687 5.15054 15.969 5.14638 15.9691C5.14219 15.9692 5.13981 15.9692 5.13974 15.9692V13.9692ZM6.12111 13.9742C5.79118 13.975 5.47346 13.9758 5.16014 13.9694L5.11934 15.969C5.45946 15.9759 5.80019 15.975 6.12619 15.9742L6.12111 13.9742ZM6.45051 13.9736C6.3403 13.9736 6.23003 13.9739 6.12111 13.9742L6.12619 15.9742C6.23554 15.9739 6.34327 15.9736 6.45051 15.9736V13.9736ZM5.97925 14.4804C5.97925 14.362 6.02956 14.2161 6.14873 14.1047C6.26328 13.9977 6.38528 13.9736 6.45051 13.9736V15.9736C6.82676 15.9736 7.21314 15.8474 7.5143 15.566C7.82009 15.2802 7.97925 14.8876 7.97925 14.4804H5.97925ZM6.44606 14.9783C6.3928 14.9783 6.26882 14.9587 6.14906 14.8461C6.02295 14.7274 5.97772 14.5759 5.97937 14.4655L7.97914 14.4954C7.98523 14.0873 7.83336 13.6847 7.51952 13.3894C7.21204 13.1001 6.81924 12.9783 6.44606 12.9783V14.9783ZM6.44578 14.9783H6.44606V12.9783H6.44578V14.9783ZM5.1455 14.9827C5.57489 14.9783 6.00956 14.9783 6.44578 14.9783V12.9783C6.01131 12.9783 5.5664 12.9783 5.1251 12.9828L5.1455 14.9827ZM3.98423 13.845C3.98423 13.9252 3.97498 14.4026 4.38684 14.7378C4.58372 14.898 4.78903 14.9499 4.91251 14.969C5.02955 14.987 5.13057 14.9838 5.17527 14.982L5.09533 12.9836C5.09548 12.9836 5.09796 12.9835 5.10224 12.9834C5.10648 12.9834 5.11354 12.9833 5.12281 12.9836C5.13993 12.984 5.17347 12.9856 5.21715 12.9923C5.30189 13.0054 5.47638 13.0459 5.64937 13.1867C5.83225 13.3355 5.91699 13.517 5.95334 13.6436C5.98488 13.7534 5.98423 13.8348 5.98423 13.845H3.98423ZM3.98434 12.0648C3.99308 12.6547 3.99308 13.2403 3.98434 13.8302L5.98412 13.8599C5.99315 13.2501 5.99315 12.6449 5.98412 12.0351L3.98434 12.0648ZM5.02504 10.8927C4.99695 10.8961 4.64641 10.9195 4.35622 11.1788C4.00446 11.4931 3.98423 11.9002 3.98423 12.05H5.98423C5.98423 12.0708 5.98843 12.4024 5.68888 12.6701C5.55656 12.7883 5.42404 12.8376 5.35574 12.8578C5.29328 12.8762 5.2498 12.8801 5.26334 12.8784L5.02504 10.8927Z" fill="#16A7E1" mask="url(#path-1-inside-1_2509_29901)"/>
</svg>
