<svg width="18" height="17" viewBox="0 0 18 17" fill="none" xmlns="http://www.w3.org/2000/svg">
<path d="M5.73511 5.32303C5.62403 5.25194 5.57515 5.26971 5.51739 5.38524C4.88201 6.60714 4.80203 7.86014 5.31745 9.1398L5.73511 5.32303ZM5.73511 5.32303C5.94839 5.45633 6.13945 5.61184 6.31274 5.78957M5.73511 5.32303L6.31274 5.78957M6.31274 5.78957C6.38383 5.86067 6.37494 5.91399 6.3394 5.98952C5.33078 8.02454 6.61044 10.3261 8.62323 10.8505M6.31274 5.78957L8.62323 10.8505M8.62323 10.8505C10.5561 11.3525 12.5733 10.0462 12.8977 8.08674M8.62323 10.8505L12.8977 8.08674M12.8977 8.08674C13.2087 6.19391 12.0623 4.4877 10.1917 4.06559M12.8977 8.08674L10.1917 4.06559M10.1917 4.06559C9.76071 3.96784 9.32527 3.95451 8.88983 4.04337M10.1917 4.06559L8.88983 4.04337M8.88983 4.04337C8.82762 4.0567 8.76542 4.07003 8.7121 4.00338L8.88983 4.04337ZM14.8757 2.11804C14.2251 2.7565 13.5756 3.3939 12.923 4.02774C13.3183 3.63992 13.7205 3.24594 14.1232 2.85143C14.6226 2.36221 15.1228 1.87218 15.6118 1.39205L15.6118 1.39206L15.615 1.38883C15.6595 1.34436 15.6875 1.2998 15.7045 1.26778C15.7213 1.23612 15.7315 1.20888 15.737 1.19284C15.7413 1.18036 15.7445 1.16957 15.7465 1.16225L16.0114 0.5H16.0168H16.0231H16.0295H16.0359H16.0422H16.0486H16.055H16.0614H16.0677H16.0741H16.0805H16.0868H16.0932H16.0996H16.1059H16.1123H16.1187H16.1251H16.1314H16.1378H16.1442H16.1505H16.1569H16.1633H16.1697H16.176H16.1824H16.1888H16.1951H16.2015H16.2079H16.2143H16.2206H16.227H16.2334H16.2397H16.2461H16.2525H16.2589H16.2652H16.2716H16.278H16.2844H16.2907H16.2971H16.3035H16.3098H16.3162H16.3226H16.329H16.3353H16.3417H16.3481H16.3545H16.3608H16.3672H16.3736H16.38H16.3863H16.3927H16.3991H16.4055H16.4118H16.4182H16.4246H16.431H16.4373H16.4437H16.4501H16.4565H16.4628H16.4692H16.4756H16.482H16.4883H16.4947H16.5011H16.5075H16.5106C16.511 0.500309 16.5113 0.500619 16.5116 0.500931C16.5115 0.509616 16.5115 0.518306 16.5115 0.526992L15.6646 1.347C15.3833 1.61935 15.1289 1.86927 14.8759 2.11784L14.8757 2.11804ZM12.6703 4.27574C12.6703 4.27573 12.6704 4.27571 12.6704 4.2757C12.6098 4.34385 12.5295 4.45831 12.5075 4.61469C12.4891 4.7457 12.5165 4.85826 12.5546 4.94601C12.3923 4.74845 12.21 4.56627 12.0096 4.40224C12.0668 4.42825 12.1388 4.45085 12.2217 4.45499C12.4501 4.46641 12.6015 4.33958 12.6592 4.28636L12.6648 4.28114L12.6703 4.27574ZM10.3023 3.57797C10.2072 3.55641 10.1116 3.53837 10.0156 3.52404C10.2853 3.5611 10.5473 3.62762 10.8023 3.72283C10.6413 3.66535 10.4744 3.61684 10.3023 3.57797Z" fill="#16A7E1" stroke="#16A7E1"/>
<path d="M2.49274 14.475C2.48766 14.4739 2.48415 14.4728 2.48207 14.472C2.47997 14.4712 2.4791 14.4707 2.47916 14.4708C2.47923 14.4708 2.48103 14.4718 2.48375 14.4744C2.48524 14.4758 2.48662 14.4774 2.48785 14.4789L1.99391 14.4715L2.49274 14.475ZM2.49274 14.475C2.49312 14.4742 2.49347 14.4735 2.49377 14.4728C2.49446 14.4712 2.49468 14.4704 2.49468 14.4703C2.49467 14.4703 2.49426 14.4718 2.49402 14.4752L2.49274 14.475ZM0.975405 9.37263C0.534311 8.55321 0.380907 7.57161 0.60386 6.56947L0.603862 6.56946C1.06922 4.47789 3.25989 3.12248 5.32488 3.58646C7.54222 4.08463 9.17112 6.58511 8.15933 8.97239C8.1595 8.97254 8.15968 8.97269 8.15985 8.97284C8.58985 7.93895 8.57573 6.90692 8.10447 5.851L8.10444 5.85094C7.30106 4.05025 5.27194 3.09781 3.43976 3.63024L3.43963 3.63028C1.34816 4.23748 0.150497 6.21956 0.590692 8.35398L0.975405 9.37263ZM0.975405 9.37263C0.796529 9.05284 0.664376 8.70974 0.590719 8.35411L0.975405 9.37263ZM4.48685 11.9802C4.48006 11.8842 4.45134 11.7311 4.33082 11.5979C4.26802 11.5285 4.1975 11.4833 4.13055 11.4537C4.36591 11.4764 4.60541 11.4769 4.84731 11.4502C4.79506 11.4736 4.7403 11.5061 4.68939 11.5516C4.53522 11.6894 4.49605 11.8628 4.48685 11.9802ZM4.48734 13.5999C4.48502 13.1644 4.48503 12.7292 4.48735 12.296C4.49208 12.7312 4.49207 13.1647 4.48734 13.5999ZM4.29879 14.33C4.44735 14.1932 4.47988 14.0202 4.48697 13.9209C4.49603 14.0306 4.53499 14.2137 4.70247 14.35C4.80688 14.435 4.91725 14.4638 4.98867 14.4748C4.99498 14.4758 5.00125 14.4766 5.00744 14.4774C4.9941 14.4793 4.98039 14.4815 4.96647 14.4843C4.8938 14.4988 4.78447 14.5329 4.68368 14.6222C4.53537 14.7537 4.49596 14.92 4.48648 15.0321C4.47879 14.9404 4.44847 14.7905 4.33172 14.6638C4.21439 14.5364 4.07051 14.4943 3.96926 14.4804C4.06099 14.4677 4.18862 14.4315 4.29879 14.33ZM4.48794 16.0117C4.48719 15.7828 4.48644 15.5561 4.48743 15.3287C4.49054 15.5926 4.48989 15.8565 4.48923 16.1244C4.48907 16.1902 4.48891 16.2562 4.4888 16.3226C4.48861 16.2183 4.48827 16.1148 4.48794 16.0117ZM4.48581 16.4997C4.47809 16.4992 4.47653 16.4979 4.47929 16.499C4.48099 16.4998 4.48306 16.5009 4.48523 16.5024C4.48426 16.5067 4.48329 16.5097 4.48259 16.5116C4.48184 16.5136 4.48135 16.5145 4.48136 16.5145C4.48136 16.5145 4.48237 16.5127 4.48502 16.5099C4.48643 16.5084 4.48794 16.5071 4.48947 16.5058C4.48948 16.5059 4.4895 16.5059 4.48951 16.5059L4.48214 16.9998L4.48581 16.4997ZM4.48974 16.5056C4.49057 16.505 4.4914 16.5044 4.49223 16.5038L4.48974 16.5056ZM2.48916 14.4806C2.48764 14.4827 2.48591 14.4846 2.48403 14.4863C2.4817 14.4885 2.48022 14.4893 2.48022 14.4893C2.48022 14.4893 2.48108 14.4888 2.48306 14.4881C2.48492 14.4874 2.48797 14.4865 2.4923 14.4856C2.493 14.4868 2.49359 14.4881 2.49405 14.4892C2.49455 14.4905 2.49472 14.4911 2.49473 14.4912C2.49473 14.4912 2.49422 14.4894 2.49397 14.4852L2.48916 14.4806ZM7.98857 9.33957C7.98857 9.33954 7.98893 9.33891 7.98966 9.33775C7.98893 9.33902 7.98857 9.3396 7.98857 9.33957ZM8.47659 9.20685C8.4766 9.20688 8.47595 9.20654 8.47458 9.20575L8.47659 9.20685Z" fill="#16A7E1" stroke="#16A7E1"/>
</svg>
