<svg width="17" height="11" viewBox="0 0 17 11" fill="none" xmlns="http://www.w3.org/2000/svg">
<path d="M17 3.70532C16.9063 3.8387 16.7765 3.91801 16.6215 3.97568C16.2718 4.10545 15.9258 4.25325 15.5761 4.38663C15.5004 4.41546 15.4608 4.44791 15.4608 4.53803C15.468 4.85164 15.4644 5.16886 15.4608 5.48247C15.4608 5.54736 15.4608 5.58701 15.5509 5.59783C15.796 5.63027 15.9618 5.79969 15.9582 6.04121C15.9402 7.09741 16.1276 8.13198 16.2142 9.17736C16.2358 9.42249 16.0736 9.60633 15.8248 9.60993C15.4139 9.61354 15.0066 9.61354 14.5956 9.60993C14.3289 9.60633 14.1775 9.44051 14.2027 9.17015C14.246 8.6763 14.2928 8.17884 14.3505 7.68499C14.4118 7.16951 14.4622 6.65402 14.4478 6.13133C14.4406 5.8069 14.5596 5.66271 14.8804 5.59062C14.9417 5.5762 14.9489 5.55097 14.9489 5.5041C14.9489 5.24456 14.9525 4.98502 14.9489 4.72547C14.9453 4.58489 14.8624 4.6714 14.8155 4.68943C14.2892 4.8949 13.7593 5.10397 13.233 5.31305C11.7298 5.90784 10.2266 6.50262 8.72345 7.10102C8.57205 7.1623 8.42786 7.1659 8.27646 7.10462C5.63417 6.05924 2.98466 5.01025 0.33516 3.96126C0.205388 3.9108 0.0828258 3.85312 0.0251495 3.70893C-0.0505506 3.50346 0.0467781 3.3088 0.288298 3.21147C0.843432 2.98798 1.40217 2.76808 1.96091 2.54819C4.05167 1.7191 6.14244 0.890001 8.2332 0.0572998C8.41344 -0.0147956 8.57566 -0.0220051 8.7595 0.053695C11.391 1.10268 14.0261 2.14446 16.6575 3.18624C16.7981 3.24031 16.9099 3.32322 17 3.43857C17 3.52869 17 3.61881 17 3.70532ZM0.785755 3.58637C0.814594 3.60079 0.843432 3.61521 0.87227 3.62602C3.37758 4.61733 5.8829 5.60864 8.38821 6.60716C8.48193 6.64321 8.55403 6.6324 8.63694 6.59635C10.1329 6.00156 11.6325 5.40677 13.1285 4.81199C13.4529 4.68222 13.7773 4.55605 14.1018 4.42628C13.507 4.34337 12.9194 4.2893 12.3318 4.22802C11.0413 4.09824 9.75081 3.96487 8.46031 3.8351C8.27646 3.81707 8.16111 3.70893 8.16832 3.56113C8.17913 3.39892 8.3053 3.3124 8.50356 3.33043C8.74508 3.35206 8.9866 3.37729 9.22812 3.40252C10.0464 3.48183 10.8647 3.56113 11.6866 3.64404C12.7211 3.74858 13.7521 3.85672 14.7831 3.96487C14.92 3.97929 15.0714 4.02615 15.194 3.9865C15.5401 3.87475 15.8753 3.72335 16.2142 3.58637C16.1889 3.52509 16.1349 3.52509 16.0988 3.51067C13.6115 2.52657 11.1206 1.53886 8.63333 0.551153C8.5288 0.5115 8.44589 0.522315 8.34856 0.558362C5.87569 1.54246 3.39921 2.52296 0.926341 3.50706C0.879479 3.52509 0.818198 3.52509 0.785755 3.58637ZM14.7182 9.11969C15.0318 9.11969 15.3274 9.11969 15.6266 9.11969C15.6951 9.11969 15.7059 9.09445 15.6987 9.03317C15.6374 8.47443 15.5797 7.91569 15.5148 7.35695C15.4752 7.01811 15.4716 7.03252 15.1255 7.0109C14.9381 7.00008 14.9237 7.0866 14.9092 7.22718C14.848 7.85081 14.7831 8.47804 14.7182 9.11969ZM15.212 6.50262C15.2661 6.50262 15.3238 6.50262 15.3779 6.50262C15.4283 6.50262 15.4608 6.49181 15.4608 6.43053C15.4572 6.34401 15.4608 6.25389 15.4608 6.16738C15.4608 6.07366 15.3887 6.09168 15.3454 6.09889C15.2192 6.12412 15.0354 6.00877 14.9777 6.15296C14.8768 6.39809 14.9669 6.50262 15.212 6.50262Z" fill="#16A7E1"/>
<path d="M13.817 8.04194C13.8242 8.3916 13.6692 8.60068 13.3953 8.65475C12.6383 8.79533 11.8885 8.97557 11.1567 9.2243C10.3745 9.49105 9.61026 9.80106 8.87129 10.1687C8.61535 10.2949 8.38825 10.2949 8.13231 10.1687C6.92111 9.57757 5.67025 9.10174 4.35451 8.80615C4.1166 8.75208 3.87868 8.71603 3.64077 8.66556C3.29832 8.58986 3.14331 8.38078 3.19378 8.02752C3.26227 7.55169 3.35599 7.08307 3.4353 6.61084C3.45332 6.5027 3.47135 6.39456 3.49297 6.28641C3.52542 6.1278 3.64798 6.03048 3.78496 6.0521C3.92915 6.07373 4.01927 6.18909 3.99043 6.35851C3.90752 6.86318 3.8174 7.36784 3.72728 7.87251C3.67682 8.15729 3.67321 8.1645 3.94717 8.21497C5.4035 8.47451 6.78413 8.97197 8.11429 9.61001C8.39185 9.74339 8.61174 9.74699 8.88931 9.61001C10.0537 9.04406 11.2685 8.60428 12.5373 8.3159C12.7536 8.26904 12.9699 8.22938 13.1862 8.19334C13.2979 8.17531 13.3268 8.13926 13.3015 8.02031C13.197 7.46157 13.1033 6.90283 13.006 6.34409C12.9807 6.18548 13.0564 6.06292 13.1862 6.03769C13.3304 6.00524 13.4566 6.07013 13.489 6.22513C13.608 6.84876 13.7161 7.4832 13.817 8.04194Z" fill="#16A7E1"/>
</svg>
