<svg width="17" height="9" viewBox="0 0 17 9" fill="none" xmlns="http://www.w3.org/2000/svg">
<path d="M0 8.50611C0.191291 8.89738 0.390898 9.02781 0.740211 8.9952C0.93566 8.9789 1.07289 8.86885 1.20596 8.73843C2.66143 7.30784 4.12106 5.87317 5.57654 4.44258C6.50804 3.52553 7.4437 2.60849 8.37104 1.68737C8.47916 1.5814 8.52491 1.5977 8.62471 1.69144C11.0075 4.03908 13.3945 6.38264 15.7815 8.73028C15.9353 8.88108 16.0975 8.99928 16.3262 8.99928C16.6007 8.99928 16.8045 8.87701 16.9251 8.64061C17.0457 8.40014 17.0207 8.16782 16.8502 7.95588C16.8086 7.89882 16.7546 7.84991 16.7047 7.80101C14.1597 5.29849 11.6147 2.79597 9.06551 0.293455C8.6663 -0.0978184 8.3253 -0.0978184 7.92608 0.293455C5.43515 2.74299 2.94421 5.19252 0.449117 7.63797C0.278619 7.80508 0.108121 7.96404 0 8.17597C0 8.28602 0 8.39607 0 8.50611Z" fill="#404041"/>
</svg>
