<svg width="25" height="24" viewBox="0 0 25 24" fill="none" xmlns="http://www.w3.org/2000/svg">
<path d="M24.1353 14.676C24.1353 16.8624 24.1353 19.0488 24.1353 21.2352C24.1353 22.8292 22.9786 23.9859 21.3705 24C19.9317 24 18.4788 24 17.04 24C15.9538 24 15.1921 23.2383 15.1921 22.138C15.1921 20.5723 15.1921 19.0065 15.1921 17.4407C15.1921 16.7495 14.8394 16.3969 14.1483 16.3969C12.7659 16.3969 11.3694 16.3969 9.98701 16.3969C9.29581 16.3969 8.94316 16.7495 8.94316 17.4407C8.94316 19.0206 8.94316 20.5864 8.94316 22.1662C8.94316 23.2242 8.16734 24 7.1235 24C5.65648 24 4.17536 24 2.70834 24C1.1849 24 0 22.8151 0 21.2917C0 16.8765 0 12.4472 0 8.03207C0 7.31267 0.296225 6.77665 0.90278 6.40989C4.30231 4.36453 7.71595 2.31917 11.1155 0.273808C11.7926 -0.135264 12.4696 -0.0647343 13.1467 0.344338C16.3347 2.26275 19.5226 4.20937 22.7388 6.08546C23.7544 6.6779 24.1917 7.41141 24.1494 8.58221C24.0929 10.6135 24.1353 12.6447 24.1353 14.676Z" fill="#16A7E1"/>
</svg>
