<svg width="24" height="24" viewBox="0 0 24 24" fill="none" xmlns="http://www.w3.org/2000/svg">
<path d="M0 14.7721C0 12.4749 0.00770713 10.1854 0 7.88812C0 7.29052 0.246628 6.8559 0.755299 6.55322C4.23121 4.45775 7.70713 2.35451 11.183 0.251272C11.7303 -0.0824523 12.262 -0.0824523 12.8092 0.243511C16.2852 2.34675 19.7611 4.44222 23.237 6.54546C23.7534 6.8559 24 7.29052 24 7.90364C23.9923 12.4749 24 17.0384 23.9923 21.6096C23.9923 23.0066 22.9981 24 21.6185 24C19.9769 24 18.3276 24 16.6859 24C15.8073 24 15.2293 23.4179 15.2293 22.5332C15.2293 20.6084 15.2293 18.6837 15.2293 16.7512C15.2293 16.2467 15.0751 16.0993 14.5742 16.0993C12.8555 16.0993 11.1368 16.0993 9.41041 16.0993C8.92486 16.0993 8.77071 16.2545 8.77071 16.7357C8.77071 18.6604 8.77071 20.5851 8.77071 22.5176C8.77071 23.4257 8.20039 24 7.29865 24C5.65703 24 4.00771 24 2.36609 24C1.00193 24 0.00770713 22.9988 0 21.6251C0 19.3434 0 17.0616 0 14.7721ZM23.0674 14.7954C23.0674 12.5447 23.0597 10.2863 23.0751 8.03558C23.0751 7.69409 22.9595 7.48454 22.6744 7.30604C19.2524 5.24937 15.8382 3.18494 12.4239 1.11275C12.1233 0.926481 11.8844 0.926481 11.5838 1.11275C8.16185 3.18494 4.73218 5.25713 1.3025 7.32156C1.03276 7.48455 0.917148 7.68633 0.917148 7.99677C0.924856 12.5059 0.924856 17.0151 0.924856 21.5242C0.924856 22.5021 1.49518 23.0764 2.45857 23.0764C4.03083 23.0764 5.61079 23.0764 7.18304 23.0764C7.68401 23.0764 7.83815 22.929 7.83815 22.4245C7.83815 20.4998 7.83815 18.575 7.83815 16.6503C7.83815 15.7656 8.41619 15.1835 9.2948 15.1835C11.0906 15.1835 12.8863 15.1835 14.6821 15.1835C15.5684 15.1835 16.1387 15.7656 16.1387 16.6503C16.1387 18.575 16.1387 20.4998 16.1387 22.4245C16.1387 22.929 16.2852 23.0842 16.7938 23.0842C18.3584 23.0842 19.9229 23.0842 21.4952 23.0842C22.5048 23.0842 23.0674 22.5176 23.0674 21.5087C23.0674 19.2658 23.0674 17.0306 23.0674 14.7954Z" fill="black" fill-opacity="0.5"/>
</svg>
