<svg width="15" height="17" viewBox="0 0 15 17" fill="none" xmlns="http://www.w3.org/2000/svg">
<path d="M8.5141 15.5656C8.44526 15.6266 8.3765 15.6875 8.30789 15.7482C8.11617 15.9179 7.92558 16.0867 7.73736 16.255L7.73329 16.2587L7.73327 16.2586C7.63754 16.3424 7.45196 16.4915 7.19255 16.4915C6.93068 16.4915 6.74563 16.3401 6.65043 16.2546C6.46507 16.0885 6.27771 15.922 6.08936 15.7548C5.06866 14.8482 4.01868 13.9156 3.09785 12.8509L3.09773 12.8508C2.20507 11.8178 1.40223 10.6846 0.907597 9.33765L0.907578 9.33759C0.516261 8.27159 0.411631 7.17632 0.610234 6.05235L8.5141 15.5656ZM8.5141 15.5656C8.50636 15.5725 8.49862 15.5795 8.49089 15.5864C8.23213 15.8182 7.97585 16.0478 7.71637 16.2737M8.5141 15.5656L7.71637 16.2737M7.71637 16.2737C7.52832 16.4365 7.34557 16.4986 7.18864 16.5C7.03355 16.5014 6.85846 16.444 6.68024 16.2858L6.67965 16.2852C6.54891 16.1695 6.41841 16.0544 6.2883 15.9396C5.2921 15.0609 4.31889 14.2025 3.44131 13.2458C2.50215 12.2212 1.69486 11.1428 1.12974 9.90625C0.640746 8.82223 0.416989 7.71687 0.527905 6.55724C0.822141 3.53545 3.05881 1.23058 5.7503 0.655217L5.75105 0.655055C6.00165 0.601079 6.25387 0.562152 6.51237 0.534708C6.51265 0.534679 6.51293 0.53465 6.5132 0.534621L6.52799 0.533052L6.54267 0.530607C6.53204 0.532377 6.52119 0.533617 6.51318 0.534396L7.71637 16.2737ZM12.2598 2.83033L12.2607 2.83129C13.0367 3.71928 13.5303 4.74377 13.7549 5.90198L13.755 5.90216C13.9896 7.10966 13.8835 8.28731 13.4413 9.43791C13.7112 8.72013 13.8795 7.96209 13.8687 7.15313C13.8639 6.10039 13.6255 5.10106 13.1448 4.16192C12.8791 3.64183 12.5603 3.17077 12.1894 2.75047C12.213 2.77686 12.2365 2.80348 12.2598 2.83033ZM6.50064 0.535433C6.50051 0.535431 6.50176 0.53533 6.50477 0.535143L6.50064 0.535433ZM6.28978 0.568567C5.02003 0.739105 3.88365 1.2394 2.90414 2.06614L2.90398 2.06628C1.66373 3.114 0.892547 4.44854 0.610245 6.05229L6.28978 0.568567Z" fill="#16A7E1" stroke="#16A7E1"/>
<path d="M9.8535 6.91269C9.8535 5.94971 9.34025 5.10431 8.575 4.63581C9.35061 5.10634 9.87044 5.95763 9.86356 6.91325L9.86356 6.91447C9.86003 7.65632 9.55159 8.32931 9.05967 8.81402C9.54962 8.32849 9.8535 7.65478 9.8535 6.91269ZM4.53064 6.9068C4.52851 7.52039 4.73408 8.08713 5.08103 8.53987C4.72695 8.08583 4.5162 7.51902 4.52058 6.91214L4.52058 6.91091C4.52644 5.67733 5.3623 4.64369 6.49704 4.33999C5.36671 4.64746 4.53492 5.68246 4.53064 6.90679V6.9068Z" fill="#16A7E1" stroke="#16A7E1"/>
</svg>
