<svg width="17" height="20" viewBox="0 0 17 20" fill="none" xmlns="http://www.w3.org/2000/svg">
<mask id="path-1-inside-1_2509_29897" fill="white">
<path fill-rule="evenodd" clip-rule="evenodd" d="M9.61403 0.0835724C9.46114 0.0690091 9.30769 0.0543916 9.16051 0C8.66661 0 8.17271 0 7.67881 0.00489011C7.67113 0.0394223 7.64539 0.0408386 7.62049 0.0422089C7.61366 0.0425851 7.60688 0.0429578 7.60056 0.044011C7.27782 0.0782418 6.95996 0.127143 6.6421 0.195604C3.23369 0.924231 0.407209 3.83874 0.0355601 7.65792C-0.106253 9.13962 0.182263 10.5431 0.793528 11.8976C1.49281 13.4282 2.48551 14.7486 3.61512 15.9809C4.67009 17.131 5.83975 18.1626 7.00916 19.1939C7.16238 19.3291 7.31558 19.4642 7.46853 19.5996C8.07979 20.1424 8.84265 20.1277 9.4637 19.5898C9.77266 19.3208 10.0789 19.0464 10.3845 18.7727C10.49 18.6781 10.5955 18.5837 10.7009 18.4895C11.899 17.4186 13.0677 16.3183 14.0897 15.0713C15.0091 13.9515 15.7915 12.7534 16.3294 11.3989C16.9162 9.91715 17.0629 8.39143 16.7597 6.83149C16.4761 5.36934 15.8502 4.06857 14.8673 2.94385C13.5323 1.40835 11.8647 0.459671 9.85491 0.112473C9.77545 0.0989477 9.69482 0.0912677 9.61403 0.0835724ZM14.9406 5.16396C15.4639 6.18599 15.723 7.2716 15.7279 8.42077C15.7426 9.49171 15.4639 10.4942 15.0286 11.4624C14.2707 13.1153 13.1313 14.4943 11.8696 15.7804C11.0802 16.5852 10.2361 17.3325 9.39244 18.0794C9.16478 18.281 8.93715 18.4825 8.71062 18.6851C8.51501 18.8563 8.40743 18.8563 8.21672 18.6851C7.99453 18.4859 7.77138 18.2877 7.5482 18.0894C6.34699 17.0223 5.14519 15.9546 4.08946 14.7339C3.06254 13.5456 2.16765 12.2742 1.61996 10.7827C1.19452 9.62374 1.08204 8.44033 1.29721 7.2227C1.60529 5.47204 2.4415 4.02456 3.79606 2.88028C4.8621 1.9805 6.09441 1.43769 7.47831 1.25187C9.03337 1.04159 10.5053 1.30077 11.8843 2.03918C13.2242 2.75802 14.2462 3.80451 14.9406 5.16396ZM12.1924 8.13741C12.2071 6.09823 10.52 4.41114 8.46613 4.41114C6.4074 4.40625 4.73987 6.06889 4.73009 8.12763C4.71542 10.1619 6.41229 11.8588 8.45635 11.8637C10.5004 11.8686 12.1826 10.1913 12.1924 8.13741ZM8.45635 5.58477C9.85493 5.57988 11.0041 6.72417 11.0041 8.13252C11.0041 9.54087 9.85982 10.69 8.45635 10.69C7.05289 10.6852 5.9135 9.53598 5.91839 8.12763C5.92328 6.72906 7.05778 5.58966 8.45635 5.58477Z"/>
</mask>
<path fill-rule="evenodd" clip-rule="evenodd" d="M9.61403 0.0835724C9.46114 0.0690091 9.30769 0.0543916 9.16051 0C8.66661 0 8.17271 0 7.67881 0.00489011C7.67113 0.0394223 7.64539 0.0408386 7.62049 0.0422089C7.61366 0.0425851 7.60688 0.0429578 7.60056 0.044011C7.27782 0.0782418 6.95996 0.127143 6.6421 0.195604C3.23369 0.924231 0.407209 3.83874 0.0355601 7.65792C-0.106253 9.13962 0.182263 10.5431 0.793528 11.8976C1.49281 13.4282 2.48551 14.7486 3.61512 15.9809C4.67009 17.131 5.83975 18.1626 7.00916 19.1939C7.16238 19.3291 7.31558 19.4642 7.46853 19.5996C8.07979 20.1424 8.84265 20.1277 9.4637 19.5898C9.77266 19.3208 10.0789 19.0464 10.3845 18.7727C10.49 18.6781 10.5955 18.5837 10.7009 18.4895C11.899 17.4186 13.0677 16.3183 14.0897 15.0713C15.0091 13.9515 15.7915 12.7534 16.3294 11.3989C16.9162 9.91715 17.0629 8.39143 16.7597 6.83149C16.4761 5.36934 15.8502 4.06857 14.8673 2.94385C13.5323 1.40835 11.8647 0.459671 9.85491 0.112473C9.77545 0.0989477 9.69482 0.0912677 9.61403 0.0835724ZM14.9406 5.16396C15.4639 6.18599 15.723 7.2716 15.7279 8.42077C15.7426 9.49171 15.4639 10.4942 15.0286 11.4624C14.2707 13.1153 13.1313 14.4943 11.8696 15.7804C11.0802 16.5852 10.2361 17.3325 9.39244 18.0794C9.16478 18.281 8.93715 18.4825 8.71062 18.6851C8.51501 18.8563 8.40743 18.8563 8.21672 18.6851C7.99453 18.4859 7.77138 18.2877 7.5482 18.0894C6.34699 17.0223 5.14519 15.9546 4.08946 14.7339C3.06254 13.5456 2.16765 12.2742 1.61996 10.7827C1.19452 9.62374 1.08204 8.44033 1.29721 7.2227C1.60529 5.47204 2.4415 4.02456 3.79606 2.88028C4.8621 1.9805 6.09441 1.43769 7.47831 1.25187C9.03337 1.04159 10.5053 1.30077 11.8843 2.03918C13.2242 2.75802 14.2462 3.80451 14.9406 5.16396ZM12.1924 8.13741C12.2071 6.09823 10.52 4.41114 8.46613 4.41114C6.4074 4.40625 4.73987 6.06889 4.73009 8.12763C4.71542 10.1619 6.41229 11.8588 8.45635 11.8637C10.5004 11.8686 12.1826 10.1913 12.1924 8.13741ZM8.45635 5.58477C9.85493 5.57988 11.0041 6.72417 11.0041 8.13252C11.0041 9.54087 9.85982 10.69 8.45635 10.69C7.05289 10.6852 5.9135 9.53598 5.91839 8.12763C5.92328 6.72906 7.05778 5.58966 8.45635 5.58477Z" fill="#22D5E8"/>
<path d="M9.16051 0L9.50716 -0.937995L9.33938 -1H9.16051V0ZM9.61403 0.0835724L9.70886 -0.911921L9.70886 -0.911922L9.61403 0.0835724ZM7.67881 0.00489011L7.6689 -0.995061L6.87487 -0.987199L6.70262 -0.212038L7.67881 0.00489011ZM7.62049 0.0422089L7.67543 1.0407L7.67544 1.0407L7.62049 0.0422089ZM7.60056 0.044011L7.70603 1.03843L7.73562 1.0353L7.76497 1.0304L7.60056 0.044011ZM6.6421 0.195604L6.85115 1.17351L6.85266 1.17319L6.6421 0.195604ZM0.0355601 7.65792L-0.95974 7.56106L-0.959891 7.56264L0.0355601 7.65792ZM0.793528 11.8976L-0.117972 12.309L-0.116041 12.3132L0.793528 11.8976ZM3.61512 15.9809L2.87797 16.6566L2.8782 16.6569L3.61512 15.9809ZM7.00916 19.1939L6.34771 19.9439L6.34771 19.9439L7.00916 19.1939ZM7.46853 19.5996L8.13252 18.8518L8.13134 18.8508L7.46853 19.5996ZM9.4637 19.5898L10.1184 20.3457L10.1203 20.344L9.4637 19.5898ZM10.3845 18.7727L9.71721 18.0279L9.71721 18.0279L10.3845 18.7727ZM10.7009 18.4895L11.3669 19.2355L11.3673 19.2351L10.7009 18.4895ZM14.0897 15.0713L13.3168 14.4368L13.3163 14.4374L14.0897 15.0713ZM16.3294 11.3989L17.2588 11.7679L17.2592 11.7671L16.3294 11.3989ZM16.7597 6.83149L15.778 7.02192L15.7781 7.02227L16.7597 6.83149ZM14.8673 2.94385L14.1126 3.59997L14.1143 3.60189L14.8673 2.94385ZM9.85491 0.112473L10.0251 -0.872935L10.0227 -0.873349L9.85491 0.112473ZM15.7279 8.42077L14.7279 8.42503L14.728 8.43447L15.7279 8.42077ZM14.9406 5.16396L14.0501 5.61884L14.0505 5.61967L14.9406 5.16396ZM15.0286 11.4624L15.9376 11.8793L15.9407 11.8724L15.0286 11.4624ZM11.8696 15.7804L11.1558 15.0801L11.1557 15.0801L11.8696 15.7804ZM9.39244 18.0794L10.0553 18.8282L10.0553 18.8282L9.39244 18.0794ZM8.71062 18.6851L9.36916 19.4377L9.37731 19.4305L8.71062 18.6851ZM8.21672 18.6851L8.88463 17.9409L8.88426 17.9405L8.21672 18.6851ZM7.5482 18.0894L8.21236 17.3418L8.21236 17.3418L7.5482 18.0894ZM4.08946 14.7339L3.33285 15.3878L3.3331 15.3881L4.08946 14.7339ZM1.61996 10.7827L0.681208 11.1273L0.681246 11.1274L1.61996 10.7827ZM1.29721 7.2227L2.28195 7.39671L2.28208 7.39601L1.29721 7.2227ZM3.79606 2.88028L3.15106 2.11609L3.15073 2.11637L3.79606 2.88028ZM7.47831 1.25187L7.61139 2.24297L7.61231 2.24285L7.47831 1.25187ZM11.8843 2.03918L12.3571 1.15798L12.3563 1.1576L11.8843 2.03918ZM8.46613 4.41114L8.46376 5.41114H8.46613V4.41114ZM12.1924 8.13741L11.1924 8.13021L11.1924 8.13265L12.1924 8.13741ZM4.73009 8.12763L5.73006 8.13484L5.73008 8.13238L4.73009 8.12763ZM8.45635 11.8637L8.45396 12.8637L8.45635 11.8637ZM8.45635 5.58477L8.45286 4.58478L8.45286 4.58478L8.45635 5.58477ZM8.45635 10.69L8.45287 11.69H8.45635V10.69ZM5.91839 8.12763L4.91839 8.12413L4.91839 8.12416L5.91839 8.12763ZM8.81386 0.937995C9.10304 1.04487 9.3871 1.06648 9.51921 1.07907L9.70886 -0.911922C9.62696 -0.919723 9.58301 -0.924267 9.54482 -0.930445C9.51095 -0.935925 9.5025 -0.939718 9.50716 -0.937995L8.81386 0.937995ZM7.68871 1.00484C8.17683 1.00001 8.66578 1 9.16051 1V-1C8.66743 -1 8.16858 -1.00001 7.6689 -0.995061L7.68871 1.00484ZM7.67544 1.0407C7.67673 1.04063 7.69056 1.0399 7.70611 1.03871C7.72267 1.03745 7.74906 1.0351 7.78092 1.03054C7.84125 1.02189 7.95036 1.00146 8.07465 0.944183C8.39492 0.796588 8.58991 0.514706 8.65499 0.221819L6.70262 -0.212038C6.72624 -0.318333 6.77646 -0.454397 6.8794 -0.587292C6.98527 -0.723964 7.11461 -0.815549 7.23757 -0.872212C7.35135 -0.924651 7.44888 -0.942309 7.49714 -0.949226C7.5419 -0.955643 7.58 -0.957076 7.56555 -0.95628L7.67544 1.0407ZM7.76497 1.0304C7.73118 1.03604 7.70463 1.03849 7.69151 1.03956C7.6795 1.04053 7.66964 1.04102 7.67543 1.0407L7.56555 -0.956281C7.5645 -0.956223 7.54784 -0.955366 7.52915 -0.953843C7.50936 -0.952231 7.47627 -0.949067 7.43616 -0.942382L7.76497 1.0304ZM6.85266 1.17319C7.13189 1.11304 7.41437 1.06937 7.70603 1.03843L7.49509 -0.950412C7.14127 -0.912884 6.78802 -0.858757 6.43155 -0.781977L6.85266 1.17319ZM1.03086 7.75477C1.35885 4.3842 3.85382 1.81426 6.85115 1.17351L6.43305 -0.7823C2.61357 0.0342025 -0.544435 3.29327 -0.959739 7.56106L1.03086 7.75477ZM1.70502 11.4863C1.15412 10.2655 0.908206 9.03629 1.03101 7.75319L-0.959891 7.56264C-1.12071 9.24295 -0.789595 10.8206 -0.117962 12.309L1.70502 11.4863ZM4.35228 15.3052C3.26407 14.118 2.34392 12.8847 1.7031 11.4821L-0.116041 12.3132C0.641706 13.9718 1.70694 15.3791 2.87797 16.6566L4.35228 15.3052ZM7.67062 18.4439C6.49456 17.4067 5.36528 16.4095 4.35205 15.3049L2.8782 16.6569C3.9749 17.8524 5.18494 18.9184 6.34771 19.9439L7.67062 18.4439ZM8.13134 18.8508C7.97761 18.7147 7.82372 18.579 7.67062 18.4439L6.34771 19.9439C6.50104 20.0791 6.65356 20.2137 6.80572 20.3484L8.13134 18.8508ZM8.80899 18.8339C8.64998 18.9716 8.52635 18.9993 8.45358 19C8.38473 19.0006 8.27502 18.9784 8.13252 18.8518L6.80454 20.3473C7.2733 20.7636 7.85065 21.0054 8.47131 20.9999C9.08804 20.9944 9.65637 20.7459 10.1184 20.3457L8.80899 18.8339ZM9.71721 18.0279C9.41075 18.3024 9.10978 18.572 8.80708 18.8356L10.1203 20.344C10.4355 20.0696 10.7471 19.7904 11.0518 19.5175L9.71721 18.0279ZM10.0349 17.7436C9.9287 17.8384 9.82263 17.9334 9.71721 18.0279L11.0518 19.5175C11.1574 19.4228 11.2622 19.3289 11.3669 19.2355L10.0349 17.7436ZM13.3163 14.4374C12.3452 15.6223 11.224 16.6807 10.0345 17.744L11.3673 19.2351C12.574 18.1565 13.7902 17.0143 14.8632 15.7052L13.3163 14.4374ZM15.4 11.0298C14.9107 12.262 14.1914 13.3715 13.3168 14.4368L14.8626 15.7058C15.8268 14.5315 16.6723 13.2449 17.2588 11.7679L15.4 11.0298ZM15.7781 7.02227C16.0444 8.39223 15.9171 9.72408 15.3997 11.0306L17.2592 11.7671C17.9153 10.1102 18.0815 8.39064 17.7414 6.6407L15.7781 7.02227ZM14.1143 3.60189C14.9783 4.59055 15.5272 5.72899 15.778 7.02192L17.7414 6.64106C17.425 5.00969 16.7221 3.5466 15.6203 2.28581L14.1143 3.60189ZM9.68468 1.09788C11.465 1.40543 12.927 2.23626 14.1126 3.59997L15.6219 2.28773C14.1376 0.580449 12.2645 -0.486088 10.0251 -0.872932L9.68468 1.09788ZM9.51921 1.07907C9.60628 1.08736 9.65006 1.09199 9.68711 1.09829L10.0227 -0.873349C9.90083 -0.894092 9.78336 -0.904825 9.70886 -0.911921L9.51921 1.07907ZM16.7279 8.41652C16.7224 7.11339 16.4269 5.87276 15.8307 4.70825L14.0505 5.61967C14.5008 6.49922 14.7237 7.4298 14.7279 8.42503L16.7279 8.41652ZM15.9407 11.8724C16.416 10.8151 16.7451 9.66555 16.7278 8.40708L14.728 8.43447C14.7401 9.31786 14.5117 10.1733 14.1165 11.0524L15.9407 11.8724ZM12.5835 16.4807C13.8797 15.1593 15.11 13.684 15.9376 11.8793L14.1197 11.0456C13.4313 12.5466 12.3828 13.8293 11.1558 15.0801L12.5835 16.4807ZM10.0553 18.8282C10.8946 18.0851 11.7653 17.3148 12.5835 16.4806L11.1557 15.0801C10.395 15.8557 9.57768 16.5798 8.72957 17.3307L10.0553 18.8282ZM9.37731 19.4305C9.60161 19.2298 9.82732 19.03 10.0553 18.8282L8.72958 17.3307C8.50224 17.5319 8.27268 17.7352 8.04392 17.9398L9.37731 19.4305ZM7.54881 19.4294C7.67235 19.5402 7.99038 19.8135 8.46183 19.8135C8.92803 19.8135 9.24612 19.5453 9.36912 19.4377L8.05211 17.9325C8.031 17.951 8.05423 17.9269 8.11131 17.8968C8.17728 17.8621 8.29943 17.8135 8.46183 17.8135C8.62512 17.8135 8.74928 17.8626 8.81883 17.8998C8.87872 17.9319 8.90394 17.9582 8.88463 17.9409L7.54881 19.4294ZM6.88405 18.837C7.10751 19.0355 7.32896 19.2323 7.54917 19.4297L8.88426 17.9405C8.6601 17.7396 8.43525 17.5398 8.21236 17.3418L6.88405 18.837ZM3.3331 15.3881C4.43899 16.6667 5.69098 17.7771 6.88405 18.837L8.21236 17.3418C7.003 16.2674 5.85139 15.2424 4.84583 14.0798L3.3331 15.3881ZM0.681246 11.1274C1.28713 12.7774 2.26639 14.1537 3.33285 15.3878L4.84608 14.08C3.85869 12.9375 3.04817 11.771 2.55867 10.438L0.681246 11.1274ZM0.312465 7.04868C0.065845 8.44433 0.196367 9.80653 0.681208 11.1273L2.5587 10.4381C2.19267 9.44095 2.09824 8.43634 2.28195 7.39671L0.312465 7.04868ZM3.15073 2.11637C1.61825 3.41096 0.661191 5.06703 0.312343 7.04938L2.28208 7.39601C2.54938 5.87704 3.26474 4.63817 4.44138 3.64419L3.15073 2.11637ZM7.34523 0.260764C5.77427 0.471704 4.36397 1.09235 3.15106 2.11609L4.44106 3.64446C5.36024 2.86864 6.41454 2.40368 7.61139 2.24297L7.34523 0.260764ZM12.3563 1.1576C10.7889 0.318291 9.1045 0.0228747 7.34431 0.260887L7.61231 2.24285C8.96224 2.06031 10.2217 2.28325 11.4123 2.92075L12.3563 1.1576ZM15.8312 4.70907C15.0449 3.16977 13.8778 1.97386 12.3571 1.15798L11.4115 2.92037C12.5706 3.54219 13.4475 4.43925 14.0501 5.61884L15.8312 4.70907ZM8.46613 5.41114C9.9717 5.41114 11.2031 6.65291 11.1924 8.13021L13.1924 8.1446C13.2111 5.54355 11.0683 3.41114 8.46613 3.41114V5.41114ZM5.73008 8.13238C5.73725 6.62255 6.95882 5.40757 8.46376 5.41114L8.46851 3.41115C5.85598 3.40494 3.74249 5.51523 3.7301 8.12288L5.73008 8.13238ZM8.45875 10.8637C6.96146 10.8601 5.71944 9.60761 5.73006 8.13484L3.73011 8.12042C3.71139 10.7162 5.86312 12.8575 8.45396 12.8637L8.45875 10.8637ZM11.1924 8.13265C11.1852 9.63933 9.94728 10.8672 8.45875 10.8637L8.45396 12.8637C11.0536 12.8699 13.18 10.7432 13.1924 8.14217L11.1924 8.13265ZM12.0041 8.13252C12.0041 6.17257 10.4071 4.57794 8.45286 4.58478L8.45985 6.58476C9.30272 6.58182 10.0041 7.27576 10.0041 8.13252H12.0041ZM8.45635 11.69C10.4158 11.69 12.0041 10.0894 12.0041 8.13252H10.0041C10.0041 8.99233 9.3038 9.69005 8.45635 9.69005V11.69ZM4.91839 8.12416C4.91159 10.0826 6.49495 11.6832 8.45287 11.69L8.45984 9.69005C7.61083 9.68709 6.9154 8.98935 6.91838 8.1311L4.91839 8.12416ZM8.45286 4.58478C6.50224 4.5916 4.92519 6.17851 4.91839 8.12413L6.91838 8.13113C6.92136 7.27961 7.61333 6.58772 8.45985 6.58476L8.45286 4.58478Z" fill="#16A7E1" mask="url(#path-1-inside-1_2509_29897)"/>
</svg>
