<svg width="123" height="125" viewBox="0 0 123 125" fill="none" xmlns="http://www.w3.org/2000/svg">
<path d="M38.7515 66.5709C38.4457 65.4353 38.0589 64.3185 37.6159 63.2328C37.148 62.1222 36.6363 61.0927 36.081 60.0882C34.9767 58.0666 33.7475 56.1324 32.5059 54.2544C31.2642 52.3826 29.9789 50.5732 28.9307 48.7575C27.895 47.023 27.0527 45.0264 26.3539 43.0485C26.0045 42.0564 25.6987 41.0519 25.4429 40.0349C25.3119 39.5295 25.1996 39.0241 25.0998 38.5187C24.9999 38.0321 24.9063 37.4705 24.8627 37.0837L24.3323 32.3293L21.0379 35.7547C20.5263 36.2913 20.1644 36.7156 19.7651 37.2085C19.3783 37.6889 19.0039 38.1693 18.6483 38.6622C17.937 39.648 17.2631 40.6588 16.6579 41.707C15.4475 43.8035 14.4118 46.0059 13.6194 48.302C13.2263 49.4501 12.8893 50.6168 12.6086 51.7961C12.3216 52.9878 12.1157 54.1545 11.9659 55.4024C11.8037 56.6004 11.7475 57.7859 11.6976 58.9838V60.7807C11.7101 61.3797 11.7475 61.9787 11.7725 62.5777C11.8474 63.7756 12.0096 64.9673 12.203 66.1528L12.5524 67.9186C12.7022 68.4988 12.827 69.0853 12.9954 69.6656C13.3261 70.8199 13.688 71.9617 14.1747 73.0598C14.6301 74.1642 15.1605 75.2373 15.7407 76.2793C16.3023 77.3275 16.9699 78.3133 17.6812 79.268C18.3862 80.2226 19.1537 81.1148 19.9585 81.9696C20.7821 82.8057 21.6556 83.5918 22.5666 84.3156C23.49 85.0269 24.4509 85.6882 25.4866 86.1999C23.7708 84.6712 22.3233 82.918 21.0816 81.0586C20.4514 80.1352 19.8712 79.1868 19.3658 78.201C19.11 77.7081 18.8666 77.2152 18.642 76.7098C18.4049 76.2107 18.1866 75.7115 17.9807 75.1999C17.5689 74.1829 17.2132 73.1471 16.9262 72.0927C16.7765 71.5686 16.6454 71.0382 16.5269 70.5079C16.3834 69.9838 16.296 69.4472 16.19 68.9169C16.0839 68.3865 16.0215 67.8437 15.9342 67.3071L15.7657 65.6911C15.7345 65.1483 15.6908 64.6117 15.6783 64.0689L15.6534 62.4404C15.6659 61.8976 15.6659 61.3548 15.6908 60.8119L15.7969 59.1897L15.9591 57.5675C16.0215 57.0933 16.0964 56.4194 16.19 55.9577C16.3522 54.9407 16.5955 53.8675 16.8638 52.8443C17.1383 51.8085 17.4566 50.7915 17.8309 49.787C18.5796 47.7842 19.4906 45.8312 20.5887 43.9906C20.9069 43.4541 21.2376 42.9299 21.5745 42.4058C21.7991 43.1234 22.0362 43.8284 22.2983 44.5272C22.7226 45.6254 23.1968 46.7048 23.7022 47.7654C24.2138 48.8199 24.7878 49.8681 25.4429 50.8976C26.0856 51.8897 26.7532 52.8318 27.427 53.7428L29.4424 56.4319C30.7838 58.1914 32.0754 59.9447 33.2359 61.7666C33.8161 62.6713 34.3652 63.6134 34.8394 64.5306C35.3323 65.4665 35.7815 66.4274 36.1559 67.4132C36.9109 69.3848 37.3726 71.4563 37.4974 73.5527C37.6221 75.6554 37.279 77.7705 36.4616 79.7484C35.6256 81.7138 34.2155 83.467 32.4372 84.8272C34.4526 83.8476 36.2495 82.2753 37.4724 80.2787C38.7203 78.2946 39.3692 75.9361 39.5376 73.5839C39.6999 71.2129 39.3567 68.842 38.7515 66.5709Z" fill="url(#paint0_linear_1109_25266)"/>
<path d="M118.391 78.2447C118.072 78.5192 117.629 78.8624 117.23 79.1619C116.818 79.4676 116.394 79.7734 115.97 80.0666C115.115 80.6531 114.229 81.2084 113.324 81.7325C111.521 82.7807 109.637 83.6979 107.703 84.4716C104.365 85.8193 100.846 86.6866 97.2891 86.9424C100.571 83.6854 106.367 78.7251 109.125 75.1749C111.49 72.1301 114.21 66.1092 115.789 62.7025C116.419 61.3423 117.13 60.0632 116.937 59.3769C116.563 58.0167 114.416 58.1228 113.443 58.5596C111.228 59.5516 106.367 67.1075 102.618 69.6095C98.8677 72.1114 89.3465 77.6769 83.3317 77.34C77.317 76.9968 73.8978 75.4557 73.8978 75.4557C73.8978 75.4557 79.351 73.4716 81.3975 72.4546C83.444 71.4376 87.874 67.5692 88.7849 65.5227C89.6959 63.4762 88.0549 60.9305 82.0277 63.8755C76.0067 66.8205 72.4191 65.2981 59.9154 68.5924C53.0521 70.4018 49.8576 73.952 48.3726 76.7847C47.1684 79.0808 45.1219 80.8278 42.6823 81.7013L41.1412 82.3565C40.1367 82.8369 39.1509 83.3485 38.2025 83.9288C36.2995 85.0768 34.5275 86.4682 33.0363 88.1154C31.5388 89.7563 30.3097 91.6469 29.5048 93.7058C28.7062 95.7586 28.2507 97.9673 28.4004 100.151C28.3692 97.9611 28.937 95.8085 29.823 93.8431C30.7215 91.8715 32.0068 90.1057 33.5354 88.5958C35.0641 87.0796 36.8361 85.8442 38.7141 84.8085C39.65 84.2906 40.6296 83.8414 41.6154 83.4171L43.1066 82.8431L44.6477 82.3253C46.6942 81.7013 48.7969 81.3082 50.9183 81.1585C53.0397 81.0088 55.1673 81.0899 57.2824 81.3457C61.5127 81.8635 65.6494 83.0865 69.7674 84.4529C73.8853 85.8318 78.0096 87.3355 82.3085 88.5209C84.4548 89.1137 86.6386 89.6315 88.866 90.0059C89.9766 90.1931 91.0935 90.3491 92.254 90.4614C92.8467 90.5363 93.3646 90.555 93.9137 90.5986L94.3255 90.6298L94.4253 90.6361L94.5688 90.6423L94.7872 90.6486L95.6544 90.6673C100.284 90.7047 104.87 89.7688 109.15 88.1591C111.296 87.3604 113.362 86.3808 115.358 85.2702C115.62 85.1267 115.876 84.9707 116.132 84.8148C115.652 86.0065 115.103 87.1857 114.504 88.3338C113.019 91.1727 111.228 93.8743 109.219 96.4075C107.203 98.9407 104.989 101.324 102.611 103.552C101.407 104.693 100.265 105.698 98.9426 106.802C97.7134 107.832 96.4219 108.811 95.1179 109.747C89.8518 113.453 83.9557 116.199 77.7537 117.777C71.5456 119.356 65.0567 119.755 58.6613 119.175C55.4668 118.882 52.2722 118.314 49.1962 117.503C46.089 116.679 43.0193 115.581 40.068 114.314C34.1407 111.794 28.675 108.281 23.958 103.982C19.2099 99.7081 15.2916 94.5481 12.3778 88.8579C9.45777 83.1676 7.55477 76.9532 6.68126 70.5828C5.81399 64.2124 5.91382 57.6736 6.95579 51.3032C7.94161 44.9203 10.038 38.7808 13.2076 33.1591C16.371 27.5562 20.464 22.4462 25.3369 18.1722C30.1974 13.8858 35.7878 10.4042 41.8026 7.896C47.7986 5.35034 54.2376 3.78427 60.7702 3.31008C62.4049 3.19153 63.9772 3.12289 65.6931 3.15409C67.3215 3.13537 68.95 3.24768 70.5847 3.4099C72.2132 3.56589 73.8417 3.80922 75.4577 4.12119C77.0736 4.42692 78.6772 4.80752 80.2682 5.25675C86.6261 7.04745 92.7344 9.8302 98.3062 13.474C103.847 17.149 108.907 21.7037 112.725 27.263C109.306 21.4479 104.533 16.4252 99.0736 12.3759C93.6204 8.30156 87.4746 5.11949 80.967 2.95443C79.3385 2.40537 77.6913 1.93118 76.013 1.53186C74.3408 1.12006 72.6499 0.783137 70.9341 0.539802C69.2245 0.296467 67.4962 0.115526 65.7617 0.065611C64.1145 -0.0217399 62.3113 -0.0155006 60.5893 0.046893C53.6823 0.302707 46.8003 1.70032 40.3114 4.18982C33.8349 6.69804 27.7516 10.267 22.392 14.7468C17.0448 19.2267 12.3903 24.605 8.87127 30.6946C5.32108 36.7468 2.90021 43.5102 1.69601 50.3985L1.4714 51.6464L1.28421 52.9691C1.15319 53.8551 1.03464 54.7348 0.959768 55.5959C0.766348 57.3366 0.660279 59.0837 0.597885 60.8307C0.485577 64.331 0.635322 67.85 1.10951 71.3315C2.0267 78.2946 4.07321 85.1454 7.26776 91.4534C10.4498 97.7614 14.7737 103.527 20.0148 108.281C25.2683 113.023 31.3205 116.841 37.7907 119.555C41.0227 120.928 44.3233 122.082 47.7237 122.968C51.1554 123.854 54.6182 124.447 58.131 124.753C65.1378 125.389 72.2693 124.797 79.0952 122.975C85.9148 121.14 92.3725 118.008 98.0566 113.878C99.4729 112.836 100.846 111.756 102.181 110.602C103.429 109.535 104.795 108.293 106.012 107.102C108.501 104.681 110.81 102.054 112.919 99.2651C115.021 96.4699 116.899 93.4937 118.447 90.3241C122.44 82.1506 122.44 74.7694 122.44 74.7694L118.391 78.2447Z" fill="url(#paint1_linear_1109_25266)"/>
<path d="M87.5059 76.192C87.5059 76.192 94.0946 71.3877 97.8507 67.981C101.37 64.7802 104.87 60.1693 106.461 59.0899C108.052 58.0105 110.442 57.4989 111.403 59.0899C111.403 59.0899 106.105 65.5664 104.059 67.4881C102.474 68.9793 100.016 70.4767 96.9398 72.1364C92.9279 74.289 87.5059 76.192 87.5059 76.192Z" fill="url(#paint2_linear_1109_25266)"/>
<path d="M103.366 61.1614C103.366 61.1614 101.276 59.7138 98.4871 62.0973C96.5779 63.7257 92.8218 68.2368 92.8218 68.2368L86.283 76.3667C86.283 76.3667 92.2915 71.9679 96.1224 68.5799C99.8099 65.3105 103.366 61.1614 103.366 61.1614Z" fill="url(#paint3_linear_1109_25266)"/>
<path d="M102.449 36.909C101.763 40.8398 98.6805 43.7473 94.9743 44.3962V44.4024C94.9743 44.4024 92.2602 44.7144 91.7236 46.4552C91.7173 46.4864 91.7111 46.5176 91.6986 46.5425L91.6924 46.5488C91.2431 47.597 90.2448 48.352 88.997 48.5204C83.5188 49.2629 83.3878 45.0389 83.3753 44.9765C83.3753 44.964 83.3691 44.9578 83.3691 44.9515C83.3691 44.9453 83.3691 44.939 83.3691 44.939C83.0009 43.0298 82.2398 41.47 81.3725 40.2221C81.3725 40.2221 81.3725 40.2221 81.3662 40.2096C81.3662 40.2096 79.5443 33.9016 85.1161 30.7819C84.8104 30.8319 79.4944 31.9237 79.9374 38.4938C78.4462 36.9901 77.0486 36.2601 76.8614 36.179C82.6765 41.9254 82.5829 47.0791 80.4366 50.8602C78.8206 53.7178 75.1581 56.1387 70.3351 55.4336C70.0418 55.3899 69.7735 55.34 69.5052 55.2901C64.9692 54.3605 63.4531 51.8335 63.1598 51.272C68.014 48.7825 65.8115 44.546 65.5432 44.0967C65.6992 44.5772 66.9034 48.6577 62.6731 50.4421C58.4304 52.2391 56.0532 48.7388 56.0532 48.7388C56.8705 51.8148 60.271 52.1143 62.2738 51.6027C62.6232 52.2703 64.0021 54.5664 66.866 55.7144C66.7537 55.7768 66.6476 55.8454 66.5603 55.9141C64.4139 57.424 62.2177 61.7354 61.0135 65.4041C60.8762 65.8159 60.5143 66.1092 60.0838 66.1528C58.8359 66.2901 57.769 66.4586 56.8705 66.627C56.2216 66.7518 55.5852 66.2651 55.5977 65.5913C55.6164 64.5556 55.3294 63.6009 54.4497 62.9832C53.2767 62.1721 51.7917 62.0161 50.3504 62.0349C49.427 62.0411 48.4724 61.8664 47.524 61.4983C45.3277 60.6185 43.7991 58.7093 43.2625 56.4007C43.0441 55.4523 43.0192 54.5601 43.1502 53.7303C43.2625 53.044 42.7134 52.4013 42.0084 52.4138C40.9664 52.4138 39.8621 52.1892 38.7951 51.6713C37.7594 51.1597 36.8484 50.386 36.2744 49.3752C34.7707 46.6923 35.1513 43.4728 35.663 42.0752C36.9296 38.6123 41.0163 32.9345 49.7951 35.3242C49.6641 35.2368 48.5223 34.5817 46.8501 34.1512C47.2058 28.1614 41.5716 27.9867 41.5716 27.9867C45.8019 29.0412 45.8706 32.6475 45.752 33.9079C43.5495 33.5273 40.7356 33.6396 38.0526 35.5238C36.4117 36.6719 34.7957 38.1881 33.7912 40.8086C32.3811 38.5499 31.7634 35.7921 32.25 32.9657C32.8615 29.5216 34.9891 26.7076 37.8218 25.1166C38.2835 24.867 38.4457 24.3304 38.3209 23.8251C37.9279 22.2715 38.0838 18.4155 40.486 15.926C41.6403 14.7281 43.3561 13.7048 45.9205 13.293C46.0952 13.2494 46.2636 13.2306 46.4321 13.2119C46.4321 13.2119 46.4321 13.2119 46.4383 13.2119C46.8127 13.1807 47.1933 13.187 47.5926 13.2556C47.655 13.2618 47.7049 13.293 47.7548 13.2993C49.3022 11.0531 52.0662 9.77403 54.9301 10.2794C55.5228 10.3855 56.0719 10.554 56.5898 10.7848C57.1076 11.0032 57.7253 10.8659 58.0373 10.3917C58.0373 10.3917 59.7531 7.04744 65.094 6.74171C68.8751 6.51085 71.4831 7.81488 73.0492 8.9754C73.5795 9.29984 74.0412 9.71164 74.4281 10.1796C74.4343 10.1858 74.4406 10.1921 74.453 10.1983L74.4718 10.217C74.5841 10.3543 74.6839 10.4978 74.7775 10.6475C69.7798 13.3429 70.4099 18.453 70.4099 18.453C71.5642 14.4785 73.3799 11.1716 77.997 11.4399C81.2227 11.6209 83.2755 13.8546 83.4564 14.8841C83.55 15.4269 84.0554 15.7763 84.6045 15.7389C85.322 15.6889 86.0645 15.7139 86.8132 15.8449C90.2261 16.4501 92.8466 18.8461 93.9136 21.8971C94.0508 22.2902 94.4377 22.521 94.8557 22.5086C95.7417 22.4836 96.6839 22.7706 97.5386 23.4944C97.9629 23.8563 98.2874 24.3429 98.4558 24.8795C98.6867 25.6282 98.7241 26.3146 98.6056 26.926C98.5245 27.3441 98.6493 27.7683 98.9799 28.0179C101.632 30.0519 103.067 33.4149 102.449 36.909Z" fill="url(#paint4_linear_1109_25266)"/>
<path d="M29.6233 104.606C29.6233 104.606 29.9165 104.774 30.4718 105.08C30.7464 105.242 31.0895 105.423 31.4889 105.642C31.8819 105.866 32.3436 106.11 32.8678 106.372C33.9035 106.908 35.1701 107.526 36.655 108.156C38.1151 108.824 39.8184 109.448 41.6777 110.078C43.5433 110.696 45.5773 111.295 47.7611 111.794C49.9324 112.305 52.2722 112.73 54.6743 113.035C55.2982 113.116 55.9222 113.191 56.5586 113.272C57.17 113.322 57.7815 113.379 58.3992 113.428C59.0107 113.491 59.6471 113.503 60.2835 113.541C60.9199 113.572 61.5563 113.616 62.199 113.609C64.7633 113.666 67.3652 113.541 69.9545 113.26C72.5376 112.967 75.1082 112.53 77.5977 111.912C80.0934 111.307 82.5018 110.533 84.7917 109.654C87.0815 108.768 89.2341 107.763 91.2369 106.715C93.2398 105.667 95.0679 104.544 96.7026 103.433C98.3498 102.335 99.8036 101.237 101.051 100.207C102.312 99.1902 103.36 98.2418 104.19 97.4245C105.032 96.6196 105.662 95.9458 106.087 95.4778C106.505 95.0036 106.723 94.754 106.723 94.754C106.723 94.754 106.542 95.0411 106.211 95.5776C105.856 96.1017 105.344 96.8692 104.608 97.7989C103.878 98.7285 102.948 99.8266 101.794 101.018C100.64 102.198 99.2732 103.477 97.7071 104.787C96.1286 106.078 94.3316 107.389 92.3538 108.649C90.3696 109.909 88.1859 111.101 85.8399 112.162C81.1604 114.296 75.8132 115.843 70.3476 116.548C67.6147 116.91 64.8569 117.072 62.149 117.016C61.469 117.022 60.7951 116.985 60.1275 116.954C59.4536 116.922 58.7923 116.898 58.1184 116.823C57.4508 116.76 56.7832 116.698 56.1218 116.635C55.4917 116.554 54.8615 116.467 54.2375 116.386C51.6545 116.024 49.2336 115.462 46.9625 114.789C44.6976 114.096 42.6074 113.291 40.7418 112.411C38.87 111.55 37.2415 110.59 35.8314 109.697C34.4401 108.78 33.2671 107.925 32.3561 107.152C31.4389 106.397 30.7526 105.748 30.3096 105.305C29.8604 104.849 29.6233 104.606 29.6233 104.606Z" fill="url(#paint5_linear_1109_25266)"/>
<defs>
<linearGradient id="paint0_linear_1109_25266" x1="-3.98006" y1="26.5742" x2="83.5289" y2="129.085" gradientUnits="userSpaceOnUse">
<stop stop-color="#B5E970"/>
<stop offset="0.5161" stop-color="#40E2BD"/>
<stop offset="1" stop-color="#2EE6EF"/>
</linearGradient>
<linearGradient id="paint1_linear_1109_25266" x1="16.4593" y1="9.12603" x2="103.968" y2="111.636" gradientUnits="userSpaceOnUse">
<stop stop-color="#B5E970"/>
<stop offset="0.5161" stop-color="#40E2BD"/>
<stop offset="1" stop-color="#2EE6EF"/>
</linearGradient>
<linearGradient id="paint2_linear_1109_25266" x1="35.583" y1="-7.19944" x2="123.092" y2="95.3111" gradientUnits="userSpaceOnUse">
<stop stop-color="#B5E970"/>
<stop offset="0.5161" stop-color="#40E2BD"/>
<stop offset="1" stop-color="#2EE6EF"/>
</linearGradient>
<linearGradient id="paint3_linear_1109_25266" x1="32.3394" y1="-4.42844" x2="119.847" y2="98.0807" gradientUnits="userSpaceOnUse">
<stop stop-color="#B5E970"/>
<stop offset="0.5161" stop-color="#40E2BD"/>
<stop offset="1" stop-color="#2EE6EF"/>
</linearGradient>
<linearGradient id="paint4_linear_1109_25266" x1="82.5031" y1="53.5485" x2="46.0111" y2="14.7282" gradientUnits="userSpaceOnUse">
<stop stop-color="#0056D4"/>
<stop offset="1" stop-color="#2EFFEF"/>
</linearGradient>
<linearGradient id="paint5_linear_1109_25266" x1="86.4868" y1="118.008" x2="51.2159" y2="82.7375" gradientUnits="userSpaceOnUse">
<stop stop-color="#0056D4"/>
<stop offset="1" stop-color="#2EFFEF"/>
</linearGradient>
</defs>
</svg>
