<svg width="25" height="24" viewBox="0 0 25 24" fill="none" xmlns="http://www.w3.org/2000/svg">
<path d="M12.0199 0C14.1713 0 16.316 0 18.4675 0C21.2002 0 23.5253 1.99107 23.9462 4.68368C23.9863 4.94426 24.0064 5.21151 24.0064 5.47877C23.9997 8.09789 24.0064 10.7103 24.0064 13.3294C23.9997 16.0688 21.9151 18.4341 19.2024 18.7882C18.8884 18.8283 18.5744 18.8483 18.2537 18.8483C15.8684 18.8416 13.4898 18.8483 11.1045 18.8416C10.9442 18.8416 10.8306 18.8884 10.717 19.002C9.12683 20.6055 7.52997 22.2024 5.93311 23.7992C5.8262 23.9061 5.7193 24.0064 5.55227 23.9997C5.30505 23.9863 5.15806 23.8193 5.15806 23.5253C5.15806 22.0621 5.15138 20.5922 5.16474 19.1289C5.16474 18.8683 5.09793 18.7882 4.84403 18.7548C2.45208 18.4073 0.688187 16.8038 0.133629 14.4853C0.04677 14.1179 0 13.7504 0 13.3762C0 10.7838 0 8.19143 0.00668143 5.60572C0.0200443 2.83293 1.95098 0.541196 4.677 0.0668143C4.93757 0.0200443 5.20483 0 5.47209 0C7.65692 0.00668143 9.83506 0 12.0199 0ZM5.95983 22.5632C5.97988 22.5699 5.99992 22.5765 6.01997 22.5832C6.0801 22.5164 6.14023 22.4429 6.20705 22.3761C7.57006 21.0064 8.93975 19.6434 10.2961 18.267C10.4765 18.0866 10.6636 18.0131 10.9108 18.0131C13.3495 18.0198 15.7949 18.0198 18.2336 18.0131C18.6345 18.0131 19.0354 17.9998 19.4229 17.9129C21.6946 17.3918 23.1979 15.5276 23.1979 13.1958C23.2046 10.6702 23.1979 8.14466 23.1979 5.62576C23.1979 5.3585 23.1846 5.09125 23.1378 4.83067C22.7503 2.45877 20.8126 0.801771 18.414 0.801771C14.1579 0.79509 9.90187 0.801771 5.64581 0.801771C5.12465 0.801771 4.62355 0.875267 4.12244 1.03562C2.16478 1.65699 0.861904 3.40085 0.828497 5.54558C0.79509 8.15802 0.79509 10.7771 0.815134 13.3963C0.821816 14.5588 1.24275 15.5944 2.02447 16.4564C2.90642 17.4252 4.00217 17.9463 5.31173 18.0131C5.8997 18.0465 5.95983 18.1067 5.95983 18.7013C5.95983 19.9107 5.95983 21.12 5.95983 22.3226C5.95983 22.4028 5.95983 22.483 5.95983 22.5632Z" fill="black" fill-opacity="0.5"/>
<path d="M9.20701 9.41393C9.20701 10.0821 8.6725 10.6166 8.01104 10.6166C7.34958 10.6166 6.80838 10.0821 6.80838 9.41393C6.80838 8.75247 7.34958 8.20459 8.00435 8.20459C8.65913 8.20459 9.20701 8.75247 9.20701 9.41393ZM8.01772 9.03309C7.79723 9.0264 7.61683 9.19344 7.61015 9.40725C7.60347 9.62105 7.77719 9.80145 7.99767 9.80813C8.21816 9.81481 8.39856 9.64778 8.40524 9.43397C8.41192 9.22017 8.23821 9.03309 8.01772 9.03309Z" fill="black" fill-opacity="0.5"/>
<path d="M10.8039 9.42735C10.8039 8.76589 11.3317 8.21133 11.9932 8.20465C12.6479 8.19797 13.2025 8.74585 13.2025 9.40063C13.2025 10.0688 12.6813 10.61 12.0132 10.6166C11.3584 10.63 10.8105 10.0888 10.8039 9.42735ZM12.4007 9.41399C12.4007 9.20018 12.2136 9.02647 11.9932 9.03315C11.786 9.03983 11.6123 9.20686 11.6056 9.41399C11.599 9.63447 11.7794 9.80819 11.9998 9.80819C12.227 9.80819 12.4074 9.63447 12.4007 9.41399Z" fill="black" fill-opacity="0.5"/>
<path d="M17.2047 9.40731C17.2047 10.0754 16.6835 10.6166 16.0154 10.6233C15.3539 10.63 14.806 10.0955 14.806 9.42735C14.806 8.76589 15.3405 8.21133 15.9953 8.20465C16.6501 8.19797 17.2047 8.74585 17.2047 9.40731ZM16.4029 9.41399C16.4029 9.20018 16.2225 9.02647 16.002 9.02647C15.7815 9.02647 15.6011 9.20686 15.6078 9.41399C15.6078 9.62779 15.7882 9.80151 16.0087 9.80151C16.2292 9.80151 16.4029 9.63448 16.4029 9.41399Z" fill="black" fill-opacity="0.5"/>
</svg>
