<svg width="24" height="24" viewBox="0 0 24 24" fill="none" xmlns="http://www.w3.org/2000/svg">
<path d="M12.0301 0C14.1688 0 16.3141 0 18.4528 0C21.193 0 23.5054 1.97748 23.9332 4.68316C23.9799 4.96375 24 5.24434 24 5.53161C23.9933 8.12372 24 10.7158 24 13.3012C23.9933 16.0604 21.9348 18.4187 19.2013 18.7861C18.9206 18.8262 18.6399 18.8395 18.3525 18.8395C15.9332 18.8462 13.5205 18.8462 11.1011 18.8395C10.9407 18.8395 10.8271 18.8863 10.7134 18.9999C9.11612 20.6099 7.51211 22.2066 5.91479 23.81C5.70092 24.0238 5.48037 24.0572 5.29992 23.9102C5.17293 23.8033 5.15288 23.663 5.15288 23.5093C5.15288 22.0195 5.15288 20.5298 5.15957 19.0333C5.15957 18.8729 5.1462 18.7995 4.9457 18.7727C2.88722 18.4921 1.39014 17.4299 0.487886 15.546C0.153718 14.8445 0 14.1029 0 13.328C0 10.7626 0 8.1972 0.00668338 5.63182C0.00668338 2.83929 1.91145 0.554497 4.65831 0.0668069C4.9457 0.0133614 5.23308 0 5.52715 0C7.69256 0.00668069 9.86466 0 12.0301 0ZM15.9866 10.6023C16.6416 10.6023 17.183 10.0812 17.1963 9.43313C17.2097 8.77842 16.655 8.22393 15.9933 8.22393C15.3383 8.22393 14.797 8.75838 14.797 9.41309C14.7903 10.0544 15.3383 10.6023 15.9866 10.6023ZM7.99332 10.6023C8.64829 10.6023 9.18964 10.0745 9.19632 9.42645C9.20301 8.77174 8.64829 8.21725 7.98663 8.22393C7.33166 8.23061 6.79699 8.77174 6.79699 9.41309C6.79699 10.0611 7.33835 10.6023 7.99332 10.6023ZM12.0033 10.6023C12.6516 10.6023 13.1997 10.0611 13.193 9.41309C13.193 8.76506 12.6516 8.22393 11.9967 8.22393C11.335 8.21725 10.7803 8.77174 10.7937 9.42645C10.807 10.0812 11.3484 10.6089 12.0033 10.6023Z" fill="#16A7E1"/>
</svg>
