<svg width="21" height="24" viewBox="0 0 21 24" fill="none" xmlns="http://www.w3.org/2000/svg">
<path fill-rule="evenodd" clip-rule="evenodd" d="M10.9942 23.0297C10.9888 23.0331 10.9835 23.0367 10.9782 23.0404C10.7948 23.0404 10.6114 23.0404 10.4281 23.0403C10.2448 23.0404 10.0614 23.0404 9.87809 23.0404C9.87278 23.0367 9.86747 23.0331 9.8621 23.0297C9.80991 23.0169 9.75773 23.0042 9.70548 22.9916C9.61307 22.9692 9.52067 22.9468 9.42856 22.923C9.37937 22.9103 9.3303 22.8971 9.28135 22.8833C9.27964 22.8828 9.27793 22.8824 9.27622 22.8819C7.62906 22.4166 6.42802 20.9641 6.27396 19.2544C6.25675 19.0621 6.24821 18.9665 6.1959 18.9189C6.14414 18.8718 6.04948 18.8718 5.86106 18.8718C4.63907 18.8718 3.41709 18.8776 2.19547 18.8717C2.09904 18.8714 2.00278 18.8711 1.90635 18.8708C1.86826 18.8707 1.83079 18.8697 1.79343 18.8677C0.737891 18.8211 -0.0113159 18.0236 0.000158669 17.0169C-0.00612795 16.5366 0.174475 16.1127 0.528113 15.764C0.615393 15.6698 0.709448 15.5794 0.806982 15.4904C2.23453 14.1876 2.99277 12.5614 3.1019 10.6335C3.10489 10.5797 3.11155 10.5384 3.12614 10.5063C3.12864 10.4267 3.12986 10.347 3.12986 10.267C3.12937 9.32969 3.12839 8.39286 3.12986 7.45551C3.13566 3.93531 5.48337 1.01215 8.91123 0.249763C8.91733 0.248298 8.92368 0.246864 8.9304 0.24549C8.93125 0.245307 8.9321 0.245155 8.93296 0.244972C8.9603 0.23896 8.98759 0.233131 9.01511 0.227394C9.48557 0.12928 9.9564 0.0839915 10.4279 0.0860667C10.8994 0.0839915 11.3707 0.12928 11.8412 0.227394C11.8687 0.233131 11.8961 0.23899 11.9234 0.245002C11.9243 0.245185 11.925 0.245307 11.9259 0.24549C11.9326 0.246864 11.9388 0.248268 11.9449 0.249732C15.3728 1.01212 17.7206 3.93531 17.7264 7.45551C17.7279 8.39286 17.7269 9.32969 17.7264 10.267C17.7264 10.347 17.7276 10.4268 17.7301 10.5063C17.7447 10.5384 17.7514 10.5797 17.7544 10.6335C17.8635 12.5614 18.6217 14.1876 20.0493 15.4904C20.1468 15.5794 20.2408 15.6697 20.3281 15.764C20.6817 16.1126 20.8624 16.5366 20.8561 17.0169C20.8676 18.0237 20.1187 18.8211 19.0631 18.8677C19.0258 18.8696 18.988 18.8707 18.9499 18.8708C18.8535 18.8711 18.757 18.8714 18.6606 18.8717C17.4389 18.8776 16.2172 18.8718 14.9952 18.8718C14.8068 18.8718 14.7121 18.8718 14.6604 18.9189C14.6081 18.9665 14.5995 19.0621 14.5823 19.2544C14.4283 20.9641 13.2272 22.4166 11.5801 22.8819C11.5783 22.8824 11.5766 22.8828 11.5749 22.8833C11.5262 22.8974 11.4771 22.9106 11.4277 22.923C11.3356 22.9468 11.2432 22.9692 11.1508 22.9916C11.0985 23.0042 11.0464 23.0169 10.9942 23.0297Z" fill="#FFBB0E"/>
</svg>
