<svg width="18" height="21" viewBox="0 0 18 21" fill="none" xmlns="http://www.w3.org/2000/svg">
<path d="M9.8963 1C10.1626 1.08031 10.4426 1.09206 10.7108 1.17041C12.0237 1.55384 13.0149 2.34077 13.6341 3.55765C14.3517 4.96894 14.3576 6.4101 13.6322 7.81698C12.9116 9.21358 11.7496 10.0505 10.1934 10.309C8.24668 10.6322 6.33713 9.65136 5.3733 7.94724C4.43444 6.28768 4.66695 4.04637 5.9377 2.62479C6.72776 1.7409 7.70186 1.20861 8.87471 1.03966C8.91142 1.03428 8.96037 1.05289 8.98044 1C9.2854 1 9.59085 1 9.8963 1Z" stroke="#16A7E1" stroke-width="1.06769" stroke-miterlimit="10"/>
<path d="M9.04251 19.9998C7.00422 19.9827 5.14608 19.3858 3.50478 18.164C2.53165 17.4392 1.71809 16.5558 1.08712 15.5123C0.996078 15.3615 0.967197 15.2082 1.04503 15.0447C1.86152 13.3298 3.18464 12.2309 5.03006 11.7696C5.17202 11.7343 5.31789 11.7143 5.46131 11.6839C5.74572 11.6242 5.98704 11.7113 6.21906 11.8744C7.14324 12.5247 8.1756 12.8161 9.30195 12.7691C10.1684 12.7328 11.0025 12.5237 11.6995 12.011C12.2194 11.6291 12.7187 11.6491 13.2743 11.8039C14.8485 12.2422 16.037 13.1794 16.8701 14.577C16.9627 14.7322 17.0327 14.9012 17.1105 15.0652C17.1682 15.1867 17.1516 15.3017 17.0811 15.4158C15.712 17.6351 13.7814 19.0993 11.2462 19.7403C10.5272 19.9225 9.79096 19.9954 9.04251 19.9998Z" stroke="#16A7E1" stroke-width="1.06769" stroke-miterlimit="10"/>
</svg>
