<svg width="15" height="17" viewBox="0 0 15 17" fill="none" xmlns="http://www.w3.org/2000/svg">
<path d="M11.3502 16.4966C11.3297 16.4973 11.3091 16.4979 11.2884 16.4984L11.5939 16.9963M11.3502 16.4966C11.4145 16.4965 11.4788 16.4964 11.543 16.4963M11.3502 16.4966C11.4704 16.4921 11.5879 16.4817 11.7022 16.4652M11.3502 16.4966C11.3296 16.4966 11.309 16.4966 11.2884 16.4967L13.6754 14.2981M11.543 16.4963C11.5272 16.4995 11.5105 16.5029 11.4926 16.5066L11.5939 16.9963M11.543 16.4963C11.5598 16.4963 11.5765 16.4963 11.5933 16.4963L11.5939 16.9963M11.543 16.4963C11.5901 16.4868 11.6294 16.4793 11.6667 16.4721C11.6787 16.4697 11.6905 16.4675 11.7022 16.4652M11.5939 16.9963C11.6477 16.9851 11.7007 16.9748 11.7532 16.9646C11.8184 16.9519 11.8829 16.9394 11.9473 16.9256C13.2569 16.672 14.1757 15.591 14.1757 14.2565C14.1757 13.637 14.1425 13.0092 14.0718 12.3898M11.7022 16.4652C11.7499 16.4583 11.797 16.4503 11.8436 16.4413C11.8468 16.4407 11.85 16.4401 11.8532 16.4394C12.3306 16.3452 12.7467 16.1376 13.0657 15.8031C13.178 15.6855 13.274 15.5566 13.3546 15.4179M11.7022 16.4652C11.746 16.4567 11.7895 16.448 11.8426 16.4367L11.8523 16.4346L11.8523 16.4347C12.5076 16.3078 13.0382 15.9344 13.3546 15.4179M13.3546 15.4179C13.5538 15.0928 13.6682 14.7109 13.6754 14.2981M13.3546 15.4179C13.5441 15.0918 13.648 14.7117 13.6754 14.2981M13.6754 14.2981C13.6763 14.2843 13.6771 14.2704 13.6779 14.2565C13.6824 14.1716 13.6838 14.0853 13.682 13.9978M13.682 13.9978C13.682 13.9981 13.682 13.9983 13.682 13.9986L13.6737 13.9987C13.6737 13.9982 13.6737 13.9977 13.6737 13.9971L13.682 13.997C13.682 13.9973 13.682 13.9975 13.682 13.9978ZM13.682 13.9978C13.6734 13.4908 13.639 12.9793 13.5788 12.4759L13.5787 12.475C13.5775 12.4656 13.5764 12.4561 13.5752 12.4466L14.0718 12.3898M14.0718 12.3898L13.5752 12.4465M14.0718 12.3898C13.9762 11.5541 13.7558 10.7434 13.3526 9.99509C12.8744 9.1054 12.176 8.50257 11.174 8.28222M13.5752 12.4465L4.96696 8.85179C5.70283 9.31327 6.49691 9.56272 7.36997 9.4962C8.00606 9.44631 8.59642 9.23428 9.14521 8.90168M13.5752 12.4465L13.575 12.4465C13.5744 12.4414 13.5739 12.4364 13.5733 12.4314M13.5752 12.4465L13.5733 12.4314M13.5752 12.4465C13.5745 12.4414 13.5739 12.4364 13.5733 12.4314M13.5752 12.4465L13.5733 12.4314M11.174 8.28222C10.6502 8.16997 10.1596 8.17413 9.71478 8.53167M11.174 8.28222L11.0667 8.77055C11.0671 8.77065 11.0675 8.77074 11.068 8.77084C11.0684 8.77093 11.0688 8.77103 11.0693 8.77112L11.174 8.28222ZM9.71478 8.53167C9.56306 8.65449 9.3925 8.75534 9.2222 8.85604C9.19651 8.87123 9.17082 8.88642 9.14521 8.90168M9.71478 8.53167L10.029 8.91988M9.71478 8.53167L10.029 8.91988M9.14521 8.90168L9.40111 9.33123C9.40162 9.33093 9.40213 9.33063 9.40263 9.33032M9.14521 8.90168L9.40436 9.32928C9.40378 9.32963 9.40321 9.32998 9.40263 9.33032M9.40263 9.33032C9.42525 9.31686 9.44885 9.30293 9.47325 9.28853C9.59014 9.21956 9.72535 9.13979 9.8584 9.04773M9.40263 9.33032C8.79783 9.69656 8.13356 9.93784 7.40907 9.99467L7.40796 9.99475C6.99439 10.0263 6.59808 9.99529 6.21839 9.9123M9.8584 9.04773L4.23941 8.39447M9.8584 9.04773C9.79571 9.09802 9.73006 9.13714 9.63837 9.19176C9.59307 9.21875 9.54143 9.24952 9.48065 9.28729M9.8584 9.04773C9.86497 9.04318 9.87153 9.03861 9.87808 9.03401L10.2012 9.41305M6.21839 9.9123C5.88567 9.8363 5.55036 9.71796 5.2119 9.55655C5.03183 9.47008 4.87022 9.37482 4.7041 9.27095C4.70302 9.27027 4.70194 9.2696 4.70086 9.26892C4.63766 9.22937 4.57378 9.18857 4.50796 9.14653C4.46199 9.11717 4.41507 9.08721 4.36678 9.05665M6.21839 9.9123C5.8688 9.8359 5.5333 9.71542 5.21136 9.55903L4.99607 10.0076M6.21839 9.9123C7.32794 10.1658 8.40862 9.94836 9.48065 9.28729M4.36678 9.05665C4.24497 8.9768 4.13039 8.90411 4.004 8.8356M4.36678 9.05665C4.27051 8.99571 4.16877 8.93239 4.05815 8.86671L4.05818 8.86665L4.05095 8.86252C4.01453 8.84171 3.95544 8.8093 3.88622 8.78268C3.82418 8.75881 3.71523 8.724 3.58437 8.73063C2.89291 8.7566 2.25931 9.00298 1.76592 9.55928C1.34037 10.0381 1.0743 10.5936 0.897613 11.1599L0.89741 11.1606C0.593952 12.1379 0.513332 13.1329 0.50907 14.1046H0.509065V14.1068C0.509065 14.1276 0.509251 14.1484 0.509628 14.1692C0.476591 13.5991 0.532131 13.0188 0.618494 12.4107C0.70674 11.7971 0.835796 11.2208 1.0657 10.6819L1.06574 10.6818C1.38096 9.94234 1.77756 9.37145 2.41946 9.03182L2.41946 9.03183L2.42131 9.03084C2.82812 8.81341 3.26258 8.70932 3.72022 8.71971M4.36678 9.05665C4.39704 9.07648 4.42774 9.09676 4.45919 9.11752C4.53342 9.16654 4.61176 9.21827 4.69806 9.27332L4.69805 9.27334L4.70132 9.27539C4.86708 9.37934 5.03671 9.47414 5.21028 9.55851L4.99607 10.0076M4.004 8.8356C4.00484 8.83604 4.00569 8.83648 4.00654 8.83693L4.23941 8.39447M4.004 8.8356C4.00317 8.83514 4.00233 8.83469 4.0015 8.83424L4.23941 8.39447M4.004 8.8356C3.83386 8.7462 3.75601 8.72068 3.72022 8.71971M4.23941 8.39447C4.08143 8.31132 3.90265 8.22402 3.7322 8.21986M3.72022 8.71971C3.7204 8.71972 3.72057 8.71972 3.72075 8.71973L3.7322 8.21986M3.72022 8.71971C3.72015 8.71971 3.72008 8.71971 3.72001 8.71971L3.7322 8.21986M3.7322 8.21986L1.37492 11.3088C1.53706 10.7892 1.77404 10.3027 2.13989 9.89116C2.53069 9.45047 3.02959 9.25091 3.60748 9.23012C3.66984 9.22596 3.74467 9.26338 3.80288 9.29664C3.93827 9.37703 4.07128 9.46173 4.20416 9.54635C4.46299 9.71117 4.72136 9.87571 4.99607 10.0076M4.99607 10.0076C6.62579 10.785 8.21394 10.6561 9.74388 9.71239M9.74388 9.71239L9.47991 9.28774C9.48016 9.28759 9.4804 9.28744 9.48065 9.28729M9.74388 9.71239C9.78283 9.68817 9.82258 9.6645 9.86245 9.64074C9.98005 9.57069 10.0987 9.49998 10.2012 9.41305M9.74388 9.71239L9.48138 9.28683C9.48114 9.28699 9.48089 9.28714 9.48065 9.28729M10.2012 9.41305C10.4548 9.19686 10.725 9.20518 11.0244 9.27585L10.029 8.91988M10.2012 9.41305L9.87903 9.03334C9.93 8.99751 9.98051 8.95985 10.0294 8.92029L10.029 8.91988M10.029 8.91988C10.0304 8.919 10.0318 8.91813 10.0332 8.91726C10.0315 8.91863 10.0297 8.92001 10.028 8.92139L10.0276 8.92082C10.0281 8.92051 10.0285 8.92019 10.029 8.91988ZM1.10669 15.7694C1.23014 15.9023 1.37143 16.019 1.52907 16.1179C1.49875 16.0984 1.46858 16.0781 1.43859 16.0567L1.10669 15.7694ZM1.10669 15.7694C1.20312 15.8715 1.31325 15.9676 1.43848 16.0567L1.10669 15.7694ZM2.44842 16.461C2.57312 16.4815 2.69709 16.4938 2.81906 16.5004C2.76111 16.5004 2.70316 16.5004 2.64521 16.5004C2.5769 16.4871 2.51159 16.4743 2.44842 16.461ZM12.9736 10.3495C13.092 10.5832 13.1921 10.8243 13.2757 11.0717C13.194 10.8274 13.0947 10.5859 12.9736 10.3495Z" fill="#00DDE4" stroke="#16A7E1"/>
<path d="M10.587 4.21582L10.5871 4.21582C10.6107 3.64557 10.4942 3.10209 10.2711 2.61547C10.4762 3.07105 10.5886 3.57749 10.5847 4.11116C10.5847 4.11117 10.5847 4.11118 10.5847 4.1112L10.0847 4.10756C10.0723 5.84122 8.69615 7.18823 6.97912 7.19655L10.587 4.21582ZM10.587 4.21582L10.5868 4.22452C10.5692 4.96299 10.3188 5.64148 9.91165 6.19917L10.587 4.21582ZM8.25989 7.46303C7.86294 7.61222 7.43215 7.69436 6.98154 7.69654L6.98039 7.69655C6.03416 7.69894 5.14001 7.30744 4.4812 6.6661C5.11368 7.28485 5.9679 7.67314 6.89678 7.69867L8.25989 7.46303ZM8.25989 7.46303C7.83278 7.6269 7.37117 7.71126 6.89687 7.69867L8.25989 7.46303ZM3.39897 4.30585C3.38928 4.14299 3.39049 3.97713 3.40335 3.80895L3.40338 3.80862C3.43924 3.33584 3.57478 2.87622 3.79269 2.45738C3.54421 2.94263 3.40139 3.49252 3.39432 4.07656L3.39432 4.07662C3.3934 4.15366 3.39498 4.23009 3.39897 4.30585ZM8.48271 0.823347C8.03042 0.618042 7.52747 0.503221 6.99696 0.501939C6.73653 0.501304 6.48278 0.528222 6.23838 0.579971C6.56968 0.509014 6.92073 0.483293 7.28637 0.511031L7.28675 0.511059C7.70648 0.54258 8.11028 0.651321 8.48271 0.823347Z" fill="#00DDE4" stroke="#16A7E1"/>
</svg>
