<svg width="22" height="22" viewBox="0 0 22 22" fill="none" xmlns="http://www.w3.org/2000/svg">
<path d="M17.4914 21.9984C14.0932 21.8603 10.9462 20.8935 8.11328 19.0039C4.18739 16.3735 1.65598 12.7511 0.512765 8.16827C0.186131 6.8813 0.0542213 5.56923 0.00396994 4.2446C-0.0776885 2.12895 1.1095 0.948711 2.72382 0.352313C3.20121 0.176532 3.69116 0.0384191 4.19996 0.00702967C4.9977 -0.0431933 5.69493 0.170255 6.21001 0.823154C6.93865 1.75228 7.67986 2.66885 8.40222 3.60425C9.18112 4.60871 9.09946 5.98357 8.22006 6.90014C7.88087 7.25798 7.54795 7.62209 7.19619 7.96738C7.06428 8.09921 7.03288 8.22477 7.06428 8.40683C7.24644 9.3799 7.72383 10.2023 8.32685 10.9619C9.59569 12.5691 11.1409 13.8435 13.0379 14.647C13.8294 14.986 13.8356 14.9798 14.4512 14.3834C14.6711 14.1699 14.8972 13.9627 15.1171 13.7556C16.0216 12.9018 17.3784 12.8139 18.3583 13.5672C19.3696 14.3457 20.3746 15.1304 21.3545 15.9466C21.8507 16.3609 22.0329 16.9699 21.9952 17.5976C21.9261 18.7904 21.5492 19.8891 20.7515 20.8119C20.0794 21.5904 19.2063 21.9482 18.1887 21.9922C17.9625 22.0047 17.7301 21.9984 17.4914 21.9984ZM17.7553 20.9751C17.8558 20.9751 17.9563 20.9751 18.063 20.9751C19.0429 20.9814 19.7967 20.5671 20.3181 19.7447C20.695 19.1483 20.9022 18.4891 21.0027 17.7985C21.0656 17.3528 20.9965 16.9196 20.607 16.612C19.6836 15.8838 18.7603 15.1618 17.8369 14.4399C17.1836 13.9314 16.4047 13.9753 15.7955 14.5466C15.3495 14.9672 14.9035 15.3815 14.4575 15.8022C14.3068 15.9466 14.1372 16.0282 13.9299 15.9842C13.5718 15.9089 13.2138 15.821 12.8746 15.6829C10.3432 14.6533 8.37082 12.9646 6.90725 10.6731C6.44242 9.94491 6.13463 9.14762 6.03413 8.27499C5.99644 7.95482 6.05297 7.70371 6.29167 7.47142C6.69996 7.06964 7.08313 6.64902 7.47886 6.23468C8.05047 5.63201 8.08815 4.84727 7.57308 4.19437C6.86328 3.29036 6.14091 2.39262 5.4374 1.48861C5.23639 1.22494 4.97257 1.0931 4.66478 1.06171C3.85448 0.973823 3.12583 1.24377 2.4286 1.61417C1.49895 2.11012 1.03412 2.89485 1.02784 3.95581C1.02156 5.1235 1.13462 6.28491 1.3796 7.42748C2.04543 10.5727 3.46503 13.3287 5.68865 15.6578C8.96755 19.0792 13.0128 20.8182 17.7553 20.9751Z" fill="#D7D7D7"/>
<path d="M0.997902 8.04725L0.997399 8.04527C0.682591 6.8049 0.553131 5.531 0.503611 4.22564L0.503598 4.22531C0.466781 3.27143 0.714574 2.56543 1.12402 2.03384C1.53911 1.49493 2.14998 1.09738 2.89684 0.821422C3.35241 0.653694 3.7907 0.533229 4.23074 0.506081L4.23137 0.506042C4.90979 0.463331 5.42859 0.640296 5.81699 1.13225C6.11258 1.50915 6.40725 1.88029 6.70083 2.25006C7.13865 2.80149 7.57405 3.34988 8.00649 3.90986L8.0071 3.91065C8.34341 4.34435 8.48058 4.8625 8.42485 5.36396C8.42855 5.32837 8.43125 5.29261 8.43293 5.25668C8.45567 4.76973 8.28886 4.29458 7.96595 3.88509C7.66113 3.49687 7.35714 3.11374 7.05421 2.73194C6.64517 2.2164 6.23805 1.70329 5.83339 1.18333C5.54215 0.802503 5.14916 0.608913 4.71718 0.564464C3.75953 0.461031 2.92333 0.785173 2.19403 1.1726L2.19325 1.17302C1.66041 1.45728 1.23907 1.8368 0.95259 2.3169C0.666385 2.79653 0.531427 3.34857 0.52785 3.95285L0.527848 3.95312C0.521384 5.15474 0.637714 6.35208 0.890575 7.53167C1.575 10.7642 3.03714 13.6046 5.327 16.003L5.32766 16.0037C8.70039 19.5231 12.8709 21.3138 17.7387 21.4749L17.747 21.4751H17.7553H17.7558H17.7564H17.757H17.7576H17.7582H17.7588H17.7594H17.76H17.7606H17.7611H17.7617H17.7623H17.7629H17.7635H17.7641H17.7647H17.7653H17.7659H17.7664H17.767H17.7676H17.7682H17.7688H17.7694H17.77H17.7706H17.7712H17.7717H17.7723H17.7729H17.7735H17.7741H17.7747H17.7753H17.7759H17.7765H17.777H17.7776H17.7782H17.7788H17.7794H17.78H17.7806H17.7812H17.7818H17.7823H17.7829H17.7835H17.7841H17.7847H17.7853H17.7859H17.7865H17.7871H17.7877H17.7882H17.7888H17.7894H17.79H17.7906H17.7912H17.7918H17.7924H17.793H17.7935H17.7941H17.7947H17.7953H17.7959H17.7965H17.7971H17.7977H17.7983H17.7989H17.7994H17.8H17.8006H17.8012H17.8018H17.8024H17.803H17.8036H17.8042H17.8047H17.8053H17.8059H17.8065H17.8071H17.8077H17.8083H17.8089H17.8095H17.8101H17.8106H17.8112H17.8118H17.8124H17.813H17.8136H17.8142H17.8148H17.8154H17.816H17.8166H17.8171H17.8177H17.8183H17.8189H17.8195H17.8201H17.8207H17.8213H17.8219H17.8225H17.823H17.8236H17.8242H17.8248H17.8254H17.826H17.8266H17.8272H17.8278H17.8284H17.829H17.8295H17.8301H17.8307H17.8313H17.8319H17.8325H17.8331H17.8337H17.8343H17.8349H17.8355H17.8361H17.8366H17.8372H17.8378H17.8384H17.839H17.8396H17.8402H17.8408H17.8414H17.842H17.8426H17.8432H17.8437H17.8443H17.8449H17.8455H17.8461H17.8467H17.8473H17.8479H17.8485H17.8491H17.8497H17.8503H17.8509H17.8514H17.852H17.8526H17.8532H17.8538H17.8544H17.855H17.8556H17.8562H17.8568H17.8574H17.858H17.8586H17.8592H17.8597H17.8603H17.8609H17.8615H17.8621H17.8627H17.8633H17.8639H17.8645H17.8651H17.8657H17.8663H17.8669H17.8675H17.8681H17.8687H17.8692H17.8698H17.8704H17.871H17.8716H17.8722H17.8728H17.8734H17.874H17.8746H17.8752H17.8758H17.8764H17.877H17.8776H17.8782H17.8788H17.8794H17.8799H17.8805H17.8811H17.8817H17.8823H17.8829H17.8835H17.8841H17.8847H17.8853H17.8859H17.8865H17.8871H17.8877H17.8883H17.8889H17.8895H17.8901H17.8907H17.8913H17.8919H17.8925H17.8931H17.8937H17.8942H17.8948H17.8954H17.896H17.8966H17.8972H17.8978H17.8984H17.899H17.8996H17.9002H17.9008H17.9014H17.902H17.9026H17.9032H17.9038H17.9044H17.905H17.9056H17.9062H17.9068H17.9074H17.908H17.9086H17.9092H17.9098H17.9104H17.911H17.9116H17.9122H17.9128H17.9134H17.914H17.9146H17.9152H17.9158H17.9164H17.917H17.9176H17.9182H17.9188H17.9194H17.92H17.9206H17.9212H17.9218H17.9224H17.923H17.9236H17.9242H17.9248H17.9254H17.926H17.9266H17.9272H17.9278H17.9284H17.929H17.9296H17.9302H17.9308H17.9314H17.932H17.9326H17.9332H17.9338H17.9344H17.935H17.9356H17.9362H17.9368H17.9374H17.938H17.9386H17.9392H17.9398H17.9404H17.941H17.9416H17.9422H17.9428H17.9434H17.944H17.9446H17.9452H17.9458H17.9464H17.947H17.9476H17.9482H17.9489H17.9495H17.9501H17.9507H17.9513H17.9519H17.9525H17.9531H17.9537H17.9543H17.9549H17.9555H17.9561H17.9567H17.9573H17.9579H17.9585H17.9591H17.9597H17.9603H17.9609H17.9616H17.9622H17.9628H17.9634H17.964H17.9646H17.9652H17.9658H17.9664H17.967H17.9676H17.9682H17.9688H17.9694H17.97H17.9706H17.9713H17.9719H17.9725H17.9731H17.9737H17.9743H17.9749H17.9755H17.9761H17.9767H17.9773H17.9779H17.9786H17.9792H17.9798H17.9804H17.981H17.9816H17.9822H17.9828H17.9834H17.984H17.9846H17.9853H17.9859H17.9865H17.9871H17.9877H17.9883H17.9889H17.9895H17.9901H17.9907H17.9914H17.992H17.9926H17.9932H17.9938H17.9944H17.995H17.9956H17.9962H17.9969H17.9975H17.9981H17.9987H17.9993H17.9999H18.0005H18.0011H18.0018H18.0024H18.003H18.0036H18.0042H18.0048H18.0054H18.0061H18.0067H18.0073H18.0079H18.0085H18.0091H18.0097H18.0104H18.011H18.0116H18.0122H18.0128H18.0134H18.014H18.0147H18.0153H18.0159H18.0165H18.0171H18.0177H18.0183H18.019H18.0196H18.0202H18.0208H18.0214H18.022H18.0227H18.0233H18.0239H18.0245H18.0251H18.0258H18.0264H18.027H18.0276H18.0282H18.0288H18.0295H18.0301H18.0307H18.0313H18.0319H18.0326H18.0332H18.0338H18.0344H18.035H18.0356H18.0363H18.0369H18.0375H18.0381H18.0387H18.0394H18.04H18.0406H18.0412H18.0419H18.0425H18.0431H18.0437H18.0443H18.045H18.0456H18.0462H18.0468H18.0474H18.0481H18.0487H18.0493H18.0499H18.0506H18.0512H18.0518H18.0524H18.0531H18.0537H18.0543H18.0549H18.0555H18.0562H18.0568H18.0574H18.058H18.0587H18.0593H18.0599H18.0605H18.0612H18.0614C18.8561 21.4799 19.5375 21.2423 20.085 20.7769C19.5632 21.2364 18.9239 21.4599 18.1671 21.4926L18.1671 21.4926L18.161 21.4929C18.0085 21.5014 17.8577 21.5004 17.6865 21.4993C17.6276 21.4989 17.5663 21.4985 17.5017 21.4984C14.1937 21.3623 11.1404 20.4219 8.39148 18.5884C4.56945 16.0275 2.11129 12.5105 0.997902 8.04725ZM7.85732 11.1734C7.88293 11.2065 7.90872 11.2394 7.9347 11.2721C9.24732 12.9346 10.8572 14.2663 12.8429 15.1074L12.8435 15.1077C13.0321 15.1885 13.2067 15.2633 13.3577 15.3102C13.5156 15.3593 13.7005 15.3959 13.9039 15.3572C14.1068 15.3186 14.2651 15.2171 14.3933 15.1152C14.5121 15.0206 14.643 14.8937 14.7839 14.7572L14.7991 14.7425L14.7995 14.7421C14.9443 14.6015 15.0892 14.4662 15.2372 14.3281C15.3106 14.2596 15.3847 14.1904 15.46 14.1195L15.4603 14.1192C16.1922 13.4284 17.2746 13.365 18.0533 13.9635C18.8877 14.6057 19.7145 15.2498 20.525 15.9109C19.7313 15.2863 18.9377 14.6659 18.1449 14.046L18.144 14.0453C17.7336 13.7258 17.2592 13.563 16.773 13.589C16.2877 13.6149 15.8323 13.8266 15.4535 14.1818L15.4524 14.1828C15.2302 14.3924 15.0079 14.6005 14.7848 14.8094C14.5619 15.018 14.3382 15.2274 14.1145 15.4384L14.1144 15.4384L14.1117 15.4411C14.0692 15.4817 14.0449 15.4934 14.0385 15.496C14.0374 15.4958 14.0358 15.4956 14.0336 15.4951L14.0328 15.4949C13.6826 15.4212 13.3599 15.3406 13.0632 15.2198L13.063 15.2197C10.9234 14.3495 9.20097 12.9915 7.85732 11.1734ZM21.4248 16.9203C21.3623 16.7432 21.2658 16.5713 21.1244 16.4138C21.2634 16.5555 21.3632 16.7265 21.4248 16.9203ZM6.57282 8.49883C6.69126 9.1315 6.92111 9.70074 7.21777 10.2234C6.85188 9.60264 6.61361 8.93642 6.53085 8.21778L6.5307 8.21654C6.51683 8.09871 6.52475 8.02899 6.53846 7.98295C6.55055 7.94235 6.5748 7.89357 6.64038 7.82976L6.64038 7.82976L6.64237 7.82781C6.6751 7.7956 6.70773 7.76321 6.74025 7.73069C6.67546 7.81617 6.62183 7.91466 6.58866 8.02943C6.54024 8.19695 6.54809 8.35578 6.57156 8.49183L6.57151 8.49184L6.57282 8.49883Z" stroke="#ABABAB" stroke-opacity="0.81"/>
</svg>
