<svg width="20" height="20" viewBox="0 0 20 20" fill="none" xmlns="http://www.w3.org/2000/svg">
<path d="M10.8739 18.4534C10.8739 18.1896 10.8729 17.9256 10.8742 17.6618C10.8761 17.2983 10.9993 16.9795 11.2555 16.7228C12.9918 14.9825 14.7272 13.2414 16.4713 11.5095C17.0053 10.9793 17.8205 10.9917 18.3648 11.5154C18.7 11.838 19.0287 12.1675 19.3521 12.5019C19.8828 13.051 19.8928 13.8695 19.354 14.4121C17.6261 16.1505 15.8898 17.8808 14.1544 19.6119C13.8923 19.8733 13.5665 19.9979 13.1959 19.9987C12.6544 20 12.1126 20.0016 11.5711 19.9984C11.1568 19.996 10.8791 19.7185 10.8745 19.3075C10.8712 19.0227 10.8737 18.7379 10.8739 18.4534ZM12.7178 18.6737C12.7178 18.671 12.718 18.6683 12.718 18.6656C12.8292 18.6656 12.9408 18.6586 13.0511 18.6675C13.1706 18.6769 13.2558 18.6384 13.3421 18.5515C14.5074 17.3803 15.6754 16.212 16.8472 15.0472C16.9438 14.9512 16.9416 14.9019 16.8448 14.8102C16.5829 14.5621 16.327 14.3069 16.0802 14.0437C15.9783 13.9348 15.9249 13.9267 15.8127 14.0402C14.7331 15.1303 13.6552 16.2223 12.5546 17.2908C12.293 17.5448 12.1544 17.7945 12.2054 18.1546C12.2283 18.3169 12.1568 18.5443 12.2418 18.6314C12.3265 18.7179 12.5533 18.6653 12.7178 18.6737ZM17.4133 12.4539C17.3831 12.4809 17.3577 12.5019 17.3343 12.5251C17.2159 12.6422 17.1026 12.7651 16.9788 12.8757C16.8931 12.9523 16.9103 13.0011 16.9853 13.072C17.1568 13.2339 17.3173 13.4073 17.4883 13.5699C17.6272 13.702 17.7555 13.9574 17.9044 13.9372C18.0651 13.9154 18.194 13.6826 18.3437 13.5494C18.4244 13.4777 18.4033 13.4326 18.337 13.3676C18.0546 13.0907 17.7768 12.8094 17.4969 12.5297C17.4729 12.5057 17.4467 12.4841 17.4133 12.4539Z" fill="#16A7E1"/>
<path d="M19.4971 3.2244C19.4885 2.26674 18.7822 1.46523 17.837 1.32769C17.4087 1.26539 16.9772 1.2867 16.5465 1.29533C16.0176 1.29479 15.4888 1.29452 14.9599 1.29452C14.9599 1.10412 14.9599 0.913721 14.9591 0.723322C14.9572 0.301262 14.6803 0.00110054 14.2952 2.17958e-05C13.9082 -0.00105695 13.6277 0.297486 13.6266 0.719007C13.6263 0.910754 13.6258 1.10277 13.6255 1.29452C13.0101 1.29425 12.3949 1.29452 11.7795 1.29506C10.2873 1.29371 8.7949 1.29398 7.30272 1.29506C7.27926 1.29479 7.25552 1.29479 7.23206 1.29506C6.78007 1.29452 6.32807 1.29452 5.87608 1.29452C5.87581 1.10142 5.87554 0.908327 5.875 0.715501C5.87392 0.297217 5.58859 -0.00294476 5.20267 2.17958e-05C4.81675 0.00325804 4.54409 0.302071 4.54247 0.726558C4.54166 0.915878 4.54167 1.1052 4.54167 1.29452C4.08374 1.29452 3.62554 1.29452 3.16761 1.29479C2.81001 1.29263 2.45213 1.29425 2.09453 1.29479C0.827538 1.29641 0.000678207 2.12569 0.00040852 3.39538C-0.000130854 5.72817 0.00040852 8.06123 0.00040852 10.394C0.00040852 12.7478 -0.000670228 15.1017 0.000678207 17.4555C0.00148727 18.6567 0.84291 19.4984 2.04167 19.5C3.13875 19.5016 4.23584 19.5005 5.33266 19.5005C6.56162 19.5003 7.79058 19.5016 9.01955 19.4995C9.34155 19.4989 9.58589 19.315 9.67327 19.0208C9.75768 18.736 9.64845 18.4442 9.39711 18.277C9.25121 18.1802 9.08912 18.1659 8.91976 18.1661C6.65628 18.1675 4.39253 18.157 2.12932 18.1742C1.57592 18.1785 1.32592 17.8519 1.32754 17.3805C1.3394 13.8395 1.33563 10.2986 1.32943 6.75756C1.32916 6.56851 1.37554 6.52267 1.56405 6.52294C5.31324 6.52887 9.06269 6.52752 12.8122 6.52644C12.8437 6.52644 12.8753 6.52617 12.9071 6.52536C13.3246 6.52536 13.742 6.52509 14.1595 6.52509C14.6447 6.52509 15.1296 6.52509 15.6147 6.52482C15.6161 6.52509 15.6174 6.52509 15.6188 6.52482C15.6306 6.52563 15.6428 6.5259 15.6549 6.5259C16.4327 6.5313 17.2105 6.5313 17.988 6.52375C18.132 6.5224 18.1719 6.55692 18.1708 6.70417C18.1641 7.76646 18.1671 8.82876 18.1679 9.89106C18.1681 9.97385 18.1665 10.0593 18.1843 10.1394C18.2587 10.4747 18.5745 10.6998 18.9082 10.6626C19.242 10.6257 19.4977 10.3452 19.4988 9.99408C19.5025 8.8622 19.5004 7.73059 19.4998 6.59872C19.4996 5.47386 19.5074 4.34899 19.4971 3.2244ZM17.9524 5.19824C17.4634 5.1923 16.9745 5.19122 16.4856 5.19203H16.447C14.8451 5.19068 13.2434 5.19095 11.6414 5.19203C11.6204 5.19203 11.5996 5.19257 11.5791 5.19419C8.23422 5.19365 4.88956 5.19311 1.5449 5.19824C1.37069 5.1985 1.32565 5.15562 1.32943 4.98276C1.34102 4.43448 1.33239 3.88594 1.33401 3.3374C1.33563 2.88216 1.58617 2.6319 2.04383 2.62866C2.26254 2.62704 2.48126 2.62731 2.69997 2.62785C2.70024 2.62785 2.70024 2.62785 2.70051 2.62785C2.82079 2.62785 2.94134 2.62812 3.06162 2.62812C3.55488 2.62839 4.04841 2.62839 4.54167 2.62812C4.54167 2.8196 4.54166 3.01081 4.54247 3.20201C4.54409 3.62677 4.81594 3.92208 5.20402 3.92423C5.59533 3.92612 5.87392 3.63324 5.875 3.21172C5.87554 3.01728 5.87581 2.82283 5.87608 2.62812C6.32645 2.62812 6.77656 2.62812 7.22694 2.62785H7.23125C8.07079 2.62866 8.91059 2.62812 9.75013 2.62812C10.3664 2.62812 10.9826 2.62839 11.5986 2.62785H11.6002C12.2752 2.62839 12.9505 2.62839 13.6258 2.62812C13.6261 2.82391 13.6263 3.01944 13.6269 3.21523C13.628 3.63351 13.9114 3.92747 14.3019 3.92397C14.6824 3.92073 14.9567 3.62866 14.9589 3.21927C14.9599 3.0224 14.9599 2.82526 14.9599 2.62812C15.4354 2.62812 15.9111 2.62812 16.3869 2.62758C16.7517 2.62893 17.1169 2.62488 17.4818 2.62893C17.91 2.63405 18.1654 2.89349 18.1668 3.32014C18.1687 3.87569 18.159 4.43125 18.1719 4.98653C18.1762 5.16587 18.1207 5.20012 17.9524 5.19824Z" fill="#16A7E1"/>
<path d="M8.14985 11.4912C8.64041 11.4934 9.03604 11.8869 9.03846 12.375C9.04116 12.8674 8.62989 13.2776 8.13771 13.2733C7.64256 13.2693 7.24343 12.8596 7.25071 12.3631C7.25799 11.8758 7.65686 11.4891 8.14985 11.4912Z" fill="#16A7E1"/>
<path d="M4.95318 8.36784C5.43997 8.37701 5.83479 8.78504 5.82427 9.26886C5.81402 9.75565 5.41084 10.1502 4.92621 10.1483C4.42109 10.1462 4.02654 9.7338 4.03975 9.2214C4.05243 8.7365 4.45696 8.35867 4.95318 8.36784Z" fill="#16A7E1"/>
<path d="M8.15981 8.36726C8.64794 8.37319 9.04141 8.77341 9.03818 9.26046C9.03494 9.75372 8.61908 10.1585 8.12798 10.1472C7.6385 10.1359 7.2488 9.73673 7.25123 9.24941C7.25366 8.75345 7.65765 8.36106 8.15981 8.36726Z" fill="#16A7E1"/>
<path d="M4.03956 15.5113C4.0374 15.0088 4.43114 14.6148 4.9333 14.6167C5.42386 14.6186 5.81949 15.0099 5.82435 15.4983C5.8292 15.9889 5.41793 16.4004 4.92548 16.3974C4.43654 16.3948 4.04172 15.9997 4.03956 15.5113Z" fill="#16A7E1"/>
<path d="M8.15171 14.6167C8.64119 14.6197 9.03655 15.0145 9.03817 15.5021C9.03979 15.9945 8.62851 16.4026 8.13607 16.3972C7.6482 16.3915 7.25257 15.9937 7.25122 15.5075C7.24988 15.0102 7.6509 14.6137 8.15171 14.6167Z" fill="#16A7E1"/>
<path d="M11.3588 8.36719C11.8505 8.36746 12.2458 8.75742 12.2499 9.24637C12.2542 9.74232 11.8516 10.1485 11.3562 10.1479C10.8707 10.1474 10.4686 9.7496 10.4629 9.26444C10.4573 8.77037 10.8602 8.36692 11.3588 8.36719Z" fill="#16A7E1"/>
<path d="M14.5678 8.36719C15.0616 8.36557 15.4558 8.75177 15.461 9.24152C15.4661 9.7426 15.0723 10.1452 14.5748 10.1479C14.0829 10.1506 13.6713 9.73855 13.6764 9.24826C13.6813 8.76013 14.0775 8.36881 14.5678 8.36719Z" fill="#16A7E1"/>
<path d="M11.3669 11.4917C11.8569 11.495 12.2493 11.889 12.2498 12.3787C12.2504 12.8736 11.8407 13.2792 11.3477 13.2719C10.8601 13.2646 10.4634 12.8647 10.4629 12.3803C10.4624 11.8852 10.8661 11.4885 11.3669 11.4917Z" fill="#16A7E1"/>
<path d="M4.95055 11.4923C5.43869 11.5004 5.8327 11.9055 5.82434 12.3907C5.81598 12.8844 5.39769 13.2868 4.90794 13.2723C4.40848 13.2574 4.02795 12.8524 4.03982 12.348C4.05115 11.8629 4.45433 11.484 4.95055 11.4923Z" fill="#16A7E1"/>
</svg>
