<svg width="20" height="26" viewBox="0 0 20 26" fill="none" xmlns="http://www.w3.org/2000/svg">
<path d="M1.97307 0C7.34172 0 12.7104 0 18.079 0C18.1384 0.100687 18.2486 0.0528196 18.332 0.0763408C19.3492 0.359008 19.9995 1.22104 19.9995 2.31581C20.0003 9.68661 19.9999 17.0574 19.9999 24.4282C19.9999 24.5215 19.9999 24.6143 19.9944 24.7076C19.9814 24.9379 19.9267 25.159 19.8219 25.3658C19.5677 25.8659 19.0559 26.0916 18.5029 25.955C18.1931 25.8787 17.9406 25.7066 17.7028 25.5077C15.4696 23.6425 13.2369 21.7769 11.0029 19.913C10.3922 19.4034 9.71587 19.4017 9.10813 19.9072C7.44358 21.2917 5.78113 22.679 4.117 24.0634C3.47895 24.5941 2.85522 25.1438 2.19361 25.6447C1.2559 26.3545 0.220977 25.9579 0.0214837 24.8363C0.000860895 24.7208 0.00128177 24.6003 0.00128177 24.4823C1.91517e-05 17.0776 -0.000822594 9.673 0.00128177 2.26835C0.00170264 1.29779 0.612389 0.473313 1.54799 0.143191C1.6894 0.0932595 1.84765 0.0924342 1.97307 0Z" fill="#16A7E1"/>
</svg>
