<svg width="28" height="28" viewBox="0 0 28 28" fill="none" xmlns="http://www.w3.org/2000/svg">
<path d="M24.8257 28C24.7234 27.8977 24.5773 27.9123 24.453 27.8685C23.9488 27.6931 23.5468 27.3862 23.1887 26.9915C21.3178 24.9381 19.4396 22.8846 17.5761 20.8238C17.3934 20.6192 17.2837 20.59 17.028 20.7434C15.0109 21.9784 12.8185 22.5192 10.4506 22.3731C5.70035 22.0807 1.3447 18.668 0.23386 13.5161C0.153471 13.1361 0.11693 12.7415 0.0584651 12.3615C0.0511569 12.3176 0.0657732 12.2665 0 12.2519C0 11.543 0 10.8269 0 10.118C0.138855 9.76723 0.131546 9.37992 0.211936 9.01454C0.964674 5.55068 2.89402 2.96374 6.0146 1.28297C7.76855 0.340271 9.66866 -0.0762689 11.6638 0.0114238C16.8526 0.245271 21.0036 3.89913 22.0925 8.65646C22.7795 11.6672 22.3044 14.5026 20.682 17.1334C20.5724 17.3161 20.6309 17.3892 20.7551 17.5061C22.8672 19.428 24.9792 21.3427 27.0766 23.2719C28.5456 24.6311 28.2094 26.9258 26.4408 27.7515C26.1997 27.8612 25.9439 27.8977 25.7027 27.9927C25.4104 28 25.1181 28 24.8257 28ZM11.2034 21.4523C16.7356 21.5254 21.3617 16.9726 21.4494 11.3676C21.5371 5.6676 17.0206 0.997966 11.2911 0.946812C5.63457 0.895658 0.971982 5.39721 0.942749 11.163C0.913517 16.9726 5.63457 21.4815 11.2034 21.4523ZM27.062 25.2815C27.0401 24.7919 26.8501 24.3461 26.4554 23.9881C24.3653 22.0807 22.2679 20.1734 20.1851 18.2588C20.0316 18.1127 19.9585 18.1638 19.8562 18.2953C19.3958 18.8727 18.8769 19.3988 18.2923 19.8519C18.1242 19.9834 18.1388 20.0565 18.2703 20.2027C19.2423 21.255 20.1997 22.3146 21.1644 23.3669C22.0998 24.3973 23.0425 25.4277 23.978 26.4508C24.5042 27.0281 25.2496 27.2035 25.9366 26.9331C26.6089 26.6773 27.062 26.0196 27.062 25.2815Z" fill="#404041"/>
</svg>
