<svg width="22" height="22" viewBox="0 0 22 22" fill="none" xmlns="http://www.w3.org/2000/svg">
<path d="M13.7486 22C13.6108 21.9483 13.4729 21.9081 13.3351 21.8507C12.7378 21.5924 12.3358 21.1503 12.1578 20.5187C11.3825 17.8145 10.6129 15.1161 9.84339 12.4119C9.80319 12.2798 9.75725 12.1994 9.60793 12.1593C6.89152 11.3899 4.17512 10.6206 1.45871 9.83399C0.712124 9.62156 0.252689 9.10484 0.0459435 8.35846C0.0344576 8.31827 0.0516864 8.27234 0 8.24937C0 8.00823 0 7.76135 0 7.52022C0.114859 7.23889 0.189517 6.94608 0.379034 6.6992C0.660438 6.32601 1.0165 6.06764 1.46445 5.93559C7.60939 4.08686 13.7601 2.24388 19.905 0.400893C20.3128 0.280324 20.7263 0.159754 21.134 0.0391852C21.3867 -0.0411943 21.6164 -0.00100453 21.8059 0.188461C22.0012 0.383669 22.0414 0.613324 21.961 0.877428C20.8181 4.68397 19.6753 8.48477 18.5382 12.2913C17.7284 14.9898 16.9187 17.694 16.1089 20.3924C15.8562 21.2364 15.3451 21.7991 14.455 21.9656C14.4435 21.9656 14.4377 21.9885 14.432 22C14.208 22 13.9783 22 13.7486 22ZM18.9919 2.06015C18.9172 2.04293 18.8483 2.07738 18.7851 2.10034C13.783 3.59885 8.78095 5.09735 3.77885 6.60159C3.14713 6.79106 2.50966 6.98052 1.87794 7.17573C1.50465 7.29056 1.29216 7.5604 1.29216 7.89915C1.2979 8.23215 1.50465 8.49051 1.8722 8.5996C1.90666 8.61108 1.94111 8.62256 1.97557 8.63404C4.62306 9.39191 7.2763 10.1498 9.9238 10.9076C10.0674 10.9478 10.1593 10.9363 10.2741 10.8215C13.1341 7.95082 15.9998 5.09161 18.8655 2.22665C18.9058 2.17498 18.9747 2.13479 18.9919 2.06015ZM19.9567 3.03619C19.9395 3.02471 19.9223 3.01897 19.905 3.00748C19.8591 3.05916 19.8074 3.11083 19.7614 3.1625C16.9072 6.01597 14.053 8.87518 11.193 11.7229C11.0781 11.8377 11.0494 11.9296 11.0954 12.0904C11.6869 14.1228 12.2669 16.1553 12.847 18.1877C13.0365 18.8422 13.2145 19.5025 13.4098 20.157C13.5361 20.5934 13.9611 20.8058 14.3688 20.6508C14.6617 20.5417 14.7823 20.3005 14.8685 20.025C16.442 14.7831 18.0156 9.54118 19.5892 4.2993C19.7098 3.88017 19.8361 3.45531 19.9567 3.03619Z" fill="#ABABAB" fill-opacity="0.81"/>
</svg>
