<svg width="17" height="9" viewBox="0 0 17 9" fill="none" xmlns="http://www.w3.org/2000/svg">
<path d="M17 0.493888C16.8087 0.102615 16.6091 -0.0278088 16.2598 0.00479725C16.0643 0.0211003 15.9271 0.131146 15.794 0.26157C14.3386 1.69216 12.8789 3.12683 11.4235 4.55742C10.492 5.47447 9.5563 6.39151 8.62896 7.31263C8.52084 7.4186 8.47509 7.4023 8.37529 7.30856C5.99247 4.96092 3.6055 2.61736 1.21853 0.269722C1.06466 0.118919 0.902481 0.000721489 0.673765 0.000721489C0.399303 0.000721489 0.195538 0.122994 0.0749416 0.359388C-0.0456543 0.599858 -0.0207043 0.832177 0.149794 1.04412C0.19138 1.10118 0.24544 1.15009 0.295341 1.19899C2.84034 3.70151 5.38533 6.20403 7.93449 8.70654C8.3337 9.09782 8.6747 9.09782 9.07392 8.70654C11.5649 6.25701 14.0558 3.80748 16.5509 1.36203C16.7214 1.19492 16.8919 1.03596 17 0.824025C17 0.71398 17 0.603934 17 0.493888Z" fill="#404041"/>
</svg>
