<svg width="12" height="12" viewBox="0 0 12 12" fill="none" xmlns="http://www.w3.org/2000/svg">
<path d="M12 4.57031C12 4.64062 12 4.71094 12 4.78125C11.9419 4.85297 11.8908 4.92938 11.8252 4.99594C10.9758 5.86406 10.1288 6.73406 9.28078 7.60312C9.24234 7.6425 9.21187 7.67437 9.22312 7.74281C9.37547 8.65453 9.52312 9.56719 9.67219 10.4794C9.72797 10.822 9.78516 11.1642 9.84 11.5073C9.87234 11.7098 9.81 11.8566 9.66047 11.9405C9.62109 11.9625 9.57984 11.9803 9.53906 12C9.49219 12 9.44531 12 9.39844 12C9.33141 11.963 9.26391 11.9259 9.19687 11.8889C8.16281 11.3175 7.12875 10.7461 6.09609 10.1723C6.02672 10.1339 5.97516 10.1334 5.90578 10.1723C5.47078 10.417 5.03438 10.6594 4.59609 10.898C3.92297 11.265 3.26156 11.6531 2.57812 12C2.53125 12 2.48438 12 2.4375 12C2.19656 11.8852 2.12391 11.7075 2.16937 11.4394C2.37797 10.2164 2.57016 8.99063 2.77219 7.76672C2.78484 7.68891 2.76281 7.64531 2.71266 7.59469C2.11969 6.98906 1.52531 6.38484 0.9375 5.77453C0.6225 5.44641 0.283125 5.14031 0 4.78125C0 4.70297 0 4.62516 0 4.54688C0.0796875 4.42547 0.164062 4.31391 0.324844 4.29C1.50844 4.11094 2.69156 3.92906 3.87516 3.75141C3.96937 3.73734 4.02281 3.70219 4.06453 3.61219C4.56469 2.53828 5.07141 1.46719 5.57156 0.393281C5.64844 0.227813 5.72625 0.0726562 5.90672 0C5.96156 0 6.01594 0 6.07078 0C6.24844 0.0553125 6.33516 0.190313 6.41016 0.352031C6.91734 1.44375 7.4325 2.53172 7.94109 3.6225C7.97953 3.70453 8.02875 3.73641 8.11359 3.74906C9.26578 3.92203 10.4175 4.10016 11.5702 4.27031C11.7698 4.30031 11.9222 4.37625 12 4.57031Z" fill="#FEC007"/>
</svg>
