<svg width="16" height="17" viewBox="0 0 16 17" fill="none" xmlns="http://www.w3.org/2000/svg">
<path d="M3.38961 0C3.6474 0.128893 3.86222 0.300751 3.86222 0.601502C3.86222 0.859289 3.77629 1.03115 3.56147 1.16004C3.38961 1.28893 3.17479 1.3319 2.95996 1.203C2.87404 1.16004 2.83107 1.16004 2.74514 1.16004C2.35846 1.24597 2.01475 1.3319 1.714 1.46079C1.15546 1.63265 0.897673 2.06229 0.854708 2.66379C0.725815 3.8668 1.02657 4.94091 1.49917 6.01502C1.714 6.44466 1.97178 6.87431 2.27253 7.30395C2.3155 7.38988 2.35846 7.43285 2.44439 7.43285C2.61625 7.47581 2.74514 7.6047 2.87404 7.7336C3.17479 8.07731 3.56147 8.37806 3.99111 8.59289C4.72151 8.9366 5.4519 8.85067 6.13933 8.37806C6.44008 8.16324 6.69787 7.94842 6.95566 7.69063C7.08455 7.56174 7.21344 7.47581 7.3853 7.43285C7.42827 7.43285 7.47123 7.38988 7.51419 7.34692C8.24459 6.31577 8.7172 5.15573 8.93202 3.90976C9.01795 3.48012 8.97499 3.05047 8.97499 2.62083C8.93202 1.97636 8.63127 1.58968 7.94384 1.37486C7.64309 1.28893 7.34234 1.203 7.04159 1.16004C6.99862 1.16004 6.91269 1.16004 6.86973 1.203C6.56898 1.41783 6.13933 1.203 6.01044 0.902253C5.88155 0.558537 6.01044 0.214822 6.35415 0.0429644C6.39712 0.0429644 6.39712 0 6.44008 0C6.52601 0 6.61194 0 6.69787 0C6.86973 0.0859288 7.04159 0.128893 7.12751 0.300751C7.17048 0.343715 7.21344 0.343715 7.25641 0.343715C7.64309 0.429644 8.02977 0.515573 8.41645 0.644466C9.23277 0.945217 9.66242 1.50375 9.79131 2.36304C9.9202 3.39419 9.74834 4.42534 9.44759 5.37055C9.14684 6.22984 8.76016 7.0032 8.24459 7.7336C8.20163 7.81953 8.15866 7.90545 8.15866 7.99138C8.15866 8.12028 8.1157 8.20621 8.02977 8.29213C7.3853 9.02253 6.65491 9.62403 5.70969 9.83885C5.40894 9.92478 5.40894 9.92478 5.40894 10.2255C5.40894 11.0419 5.40894 11.8582 5.40894 12.6745C5.40894 14.2642 6.31119 15.5531 7.81495 16.0687C9.40463 16.6272 11.2951 15.8539 12.0255 14.3501C12.2832 13.7916 12.4121 13.233 12.4121 12.6315C12.4121 11.8582 12.4121 11.1278 12.4121 10.3544C12.4121 10.2685 12.3692 10.1826 12.2832 10.1826C11.2521 9.96775 10.4787 9.02253 10.4358 7.99138C10.3928 6.83134 11.1662 5.84316 12.2403 5.58538C13.6151 5.24166 14.947 6.14391 15.1619 7.56174C15.3337 8.76474 14.5604 9.96775 13.3574 10.2255C13.2285 10.2685 13.2285 10.3115 13.2285 10.3974C13.2285 11.1278 13.2285 11.9011 13.2285 12.6315C13.2285 13.7916 12.8418 14.8227 12.0684 15.6391C11.381 16.4124 10.4787 16.885 9.44759 16.9709C7.51419 17.1858 5.75265 16.1976 4.93633 14.3931C4.67854 13.8345 4.59261 13.233 4.59261 12.6315C4.59261 11.7293 4.59261 10.827 4.59261 9.96775C4.59261 9.88182 4.54965 9.83885 4.46372 9.79589C3.56147 9.62403 2.87404 9.15142 2.22957 8.54992C2.14364 8.46399 2.05771 8.37806 2.01475 8.29213C1.79993 8.3351 1.714 8.24917 1.714 8.12028C1.714 7.94842 1.62807 7.81953 1.54214 7.7336C0.811744 6.70245 0.339135 5.58538 0.0813485 4.38237C-0.0045804 3.65198 -0.0475448 2.96455 0.0813485 2.27711C0.210242 1.41783 0.725815 0.902253 1.5851 0.644466C1.92882 0.558538 2.22957 0.472609 2.57329 0.38668C2.65921 0.38668 2.70218 0.343715 2.74514 0.257787C2.78811 0.128893 2.95996 0.0859288 3.04589 0C3.17479 0 3.26072 0 3.38961 0ZM12.6699 9.58107C13.5292 9.58107 14.2166 8.89364 14.2596 8.03435C14.2596 7.17506 13.5292 6.44466 12.6699 6.44466C11.8106 6.44466 11.0802 7.13209 11.0802 8.03435C11.1232 8.85067 11.8106 9.58107 12.6699 9.58107Z" fill="#16A7E1"/>
<path d="M12.7124 6.8313C13.3569 6.8313 13.9154 7.38984 13.9154 8.0343C13.9154 8.72173 13.3998 9.19434 12.7124 9.23731C12.0679 9.23731 11.5094 8.67877 11.5094 8.0343C11.5094 7.34687 12.025 6.8313 12.7124 6.8313Z" fill="#16A7E1"/>
</svg>
