<svg width="136" height="160" viewBox="0 0 136 160" fill="none" xmlns="http://www.w3.org/2000/svg">
<path d="M128.524 106.847C124.241 118.502 117.764 128.636 109.27 136.965C99.6014 146.445 86.9414 153.978 71.6409 159.352C71.1388 159.527 70.6149 159.672 70.0885 159.778C69.3931 159.916 68.6856 159.99 67.9842 160H67.8468C67.0991 160 66.3479 159.924 65.6026 159.778C65.0763 159.672 64.5596 159.527 64.06 159.355C48.7412 153.99 36.0654 146.461 26.3874 136.981C17.8898 128.652 11.4139 118.524 7.13718 106.869C-0.63949 85.6774 -0.196983 62.3327 0.159209 43.5729L0.165288 43.2848C0.237013 41.7358 0.283208 40.1086 0.308738 38.3117C0.438815 29.4897 7.42408 22.1911 16.211 21.6991C34.5312 20.6725 48.7035 14.6728 60.8129 2.82096L60.9186 2.7233C62.9294 0.871496 65.4628 -0.0367067 67.9842 0.00113528C70.4155 0.0328736 72.8371 0.939856 74.7761 2.7233L74.8795 2.82096C86.9912 14.6728 101.164 20.6725 119.484 21.6991C128.271 22.1911 135.256 29.4897 135.386 38.3117C135.412 40.1208 135.458 41.7455 135.529 43.2848L135.533 43.4069C135.888 62.2021 136.328 85.5932 128.524 106.847Z" fill="url(#paint0_linear_1128_25433)"/>
<path d="M107.424 79.8755C107.424 101.815 89.6834 119.674 67.8523 119.752H67.7125C45.8169 119.752 28 101.863 28 79.8755C28 57.8894 45.8169 40 67.7125 40H67.8523C89.6834 40.0781 107.424 57.937 107.424 79.8755Z" fill="white"/>
<path d="M86.0427 72.0142L68.1577 89.9756L64.2931 93.8563C63.3801 94.773 62.1827 95.2308 60.9864 95.2308C59.789 95.2308 58.5928 94.773 57.6786 93.8563L49.3695 85.5091C47.5435 83.6756 47.5435 80.7056 49.3695 78.8709C51.193 77.0374 54.1544 77.0374 55.9803 78.8709L60.9864 83.8978L79.4319 65.376C81.2578 63.5413 84.2192 63.5413 86.0427 65.376C87.8687 67.2095 87.8687 70.1832 86.0427 72.0142Z" fill="#81E592"/>
<defs>
<linearGradient id="paint0_linear_1128_25433" x1="67.8456" y1="240" x2="225.697" y2="106.131" gradientUnits="userSpaceOnUse">
<stop stop-color="#16A7E1"/>
<stop offset="1" stop-color="#2EFFEF"/>
</linearGradient>
</defs>
</svg>
